<svg width="32" height="32" viewBox="0 0 32 32" fill="none" xmlns="http://www.w3.org/2000/svg">
<g filter="url(#filter0_b_530_878)">
<rect width="32" height="32" rx="16" fill="white"/>
<rect x="0.5" y="0.5" width="31" height="31" rx="15.5" stroke="white"/>
<path d="M19.4683 18.8491C19.6135 18.5697 19.7049 18.2848 19.7909 17.9999C20.2371 16.5473 20.6834 15.1003 21.135 13.6477C21.2049 13.4298 21.2855 13.2119 21.3715 12.9996C21.8608 11.8543 22.7264 11.2286 23.9092 11.0777C24.9576 10.9436 26.0113 11.0274 27.0651 11.0107C27.307 11.0051 27.5436 11.0051 27.7855 11.0107C28.0382 11.0163 28.0436 11.0274 27.9253 11.2509C27.5866 11.8822 27.2533 12.5136 26.9038 13.1337C26.049 14.6589 25.2156 16.1953 24.2855 17.6758C23.8554 18.3574 23.3823 19.0055 22.8447 19.5921C22.3769 20.1005 21.8662 20.5475 21.178 20.6983C21.0059 20.7374 20.8285 20.7374 20.6565 20.7374C19.1565 20.7374 17.6565 20.7207 16.1565 20.7374C15.4844 20.743 14.9737 20.4748 14.5489 19.9553C14.0704 19.3686 13.807 18.6647 13.5704 17.9496C13.1457 16.6478 12.9091 15.2902 12.5597 13.9661C12.5005 13.7371 12.436 13.5024 12.3823 13.2734C12.35 13.1449 12.307 13.1169 12.2102 13.2175C11.5758 13.8767 11.0113 14.5975 10.5274 15.3796C10.4468 15.5081 10.4145 15.6701 10.3661 15.821C10.0866 16.7372 9.82311 17.6591 9.53279 18.5697C9.03816 20.1173 7.90375 20.9609 6.32847 20.9777C5.61879 20.9832 4.90911 20.9888 4.19943 21C4.04352 21 3.96287 20.9832 4.01664 20.7765C4.71556 18.1619 5.71019 15.6925 7.32848 13.5304C7.893 12.7705 8.53816 12.0945 9.34461 11.6085C9.75859 11.3571 10.1995 11.223 10.6833 11.223C12.2694 11.2286 13.8608 11.2286 15.4468 11.2174C16.3231 11.2118 16.9791 11.5973 17.4468 12.3459C17.9737 13.184 18.2479 14.1282 18.4898 15.0835C18.7855 16.2512 19.0651 17.4244 19.35 18.5976C19.3823 18.6759 19.3823 18.7653 19.4683 18.8491Z" fill="#1383C7"/>
</g>
<defs>
<filter id="filter0_b_530_878" x="-30" y="-30" width="92" height="92" filterUnits="userSpaceOnUse" color-interpolation-filters="sRGB">
<feFlood flood-opacity="0" result="BackgroundImageFix"/>
<feGaussianBlur in="BackgroundImageFix" stdDeviation="15"/>
<feComposite in2="SourceAlpha" operator="in" result="effect1_backgroundBlur_530_878"/>
<feBlend mode="normal" in="SourceGraphic" in2="effect1_backgroundBlur_530_878" result="shape"/>
</filter>
</defs>
</svg>
