<svg width="32" height="32" viewBox="0 0 32 32" fill="none" xmlns="http://www.w3.org/2000/svg">
<g filter="url(#filter0_b_530_872)">
<rect width="32" height="32" rx="16" fill="white"/>
<rect x="0.5" y="0.5" width="31" height="31" rx="15.5" stroke="white"/>
<path d="M8.51045 13.3964C8.51696 13.5201 8.52347 13.6372 8.52998 13.7608C8.53648 13.904 8.54299 14.0407 8.54299 14.1838C8.54299 16.2077 8.54299 18.2315 8.54299 20.2488C8.54299 20.2748 8.54299 20.3009 8.54299 20.3399C8.51045 20.3464 8.48443 20.3529 8.45189 20.3529C8.04842 20.3529 7.64496 20.3529 7.248 20.3529C7.16991 20.3529 7.15039 20.3269 7.15039 20.2553C7.15039 17.379 7.15039 14.5092 7.15039 11.6329C7.15039 11.6004 7.1569 11.5743 7.1569 11.5353C7.19594 11.5353 7.22848 11.5353 7.26102 11.5353C7.74257 11.5353 8.22413 11.5353 8.70568 11.5353C8.79028 11.5353 8.83583 11.5613 8.88138 11.6329C10.1894 13.7218 11.4974 15.8107 12.8119 17.8996C12.9095 18.0558 13.0071 18.212 13.1112 18.3877C13.1047 18.3161 13.0982 18.264 13.0982 18.2054C13.0852 17.8215 13.0657 17.4376 13.0657 17.0471C13.0592 15.2511 13.0657 13.4615 13.0657 11.6654C13.0657 11.6264 13.0657 11.5873 13.0657 11.5483C13.5277 11.5483 13.9833 11.5483 14.4453 11.5483C14.4453 14.4832 14.4453 17.4115 14.4453 20.3529C14.4127 20.3529 14.3802 20.3594 14.3477 20.3594C13.8921 20.3594 13.4301 20.3594 12.9746 20.3594C12.9095 20.3594 12.8705 20.3399 12.8379 20.2813C11.5104 18.1859 10.1829 16.097 8.86186 14.0016C8.74472 13.8194 8.65362 13.6177 8.5495 13.429C8.54299 13.4159 8.53648 13.4094 8.52998 13.3964C8.51696 13.3899 8.51045 13.3899 8.51045 13.3964Z" fill="#512BD4"/>
<path d="M16.3188 11.5353C17.8676 11.5353 19.4099 11.5353 20.9522 11.5353C20.9522 11.9452 20.9522 12.3552 20.9522 12.7782C19.8915 12.7782 18.8307 12.7782 17.7635 12.7782C17.7635 12.8173 17.757 12.8498 17.757 12.8823C17.757 13.6372 17.757 14.3921 17.757 15.1469C17.757 15.2576 17.757 15.2576 17.8676 15.2576C18.7787 15.2576 19.6832 15.2576 20.5943 15.2576C20.7179 15.2576 20.7179 15.2576 20.7179 15.3812C20.7179 15.7196 20.7179 16.0515 20.7179 16.3899C20.7179 16.5135 20.7179 16.5135 20.5943 16.5135C19.6897 16.5135 18.7852 16.5135 17.8806 16.5135C17.757 16.5135 17.757 16.5135 17.757 16.6371C17.757 17.418 17.757 18.1989 17.757 18.9798C17.757 19.097 17.757 19.097 17.8741 19.097C18.9283 19.097 19.9826 19.097 21.0303 19.097C21.1539 19.097 21.1539 19.097 21.1539 19.2206C21.1539 19.5655 21.1539 19.9039 21.1539 20.2488C21.1539 20.3269 21.1344 20.3594 21.0498 20.3594C19.5075 20.3594 17.9652 20.3594 16.423 20.3594C16.3384 20.3594 16.3188 20.3334 16.3188 20.2488C16.3188 17.379 16.3188 14.5092 16.3188 11.6459C16.3188 11.6069 16.3188 11.5808 16.3188 11.5353Z" fill="#512BD4"/>
<path d="M24.0894 12.7848C24.0503 12.7848 24.0178 12.7848 23.9853 12.7848C23.2304 12.7848 22.482 12.7848 21.7272 12.7848C21.6491 12.7848 21.623 12.7653 21.623 12.6807C21.6296 12.3293 21.6296 11.9779 21.623 11.62C21.623 11.5484 21.6361 11.5223 21.7142 11.5223C23.777 11.5223 25.8399 11.5223 27.9093 11.5223C27.9809 11.5223 28.0004 11.5419 28.0004 11.6134C27.9939 11.9714 27.9939 12.3228 28.0004 12.6807C28.0004 12.7588 27.9744 12.7783 27.9028 12.7783C27.1479 12.7783 26.3995 12.7783 25.6447 12.7783C25.6121 12.7783 25.5796 12.7783 25.534 12.7783C25.534 12.8238 25.534 12.8629 25.534 12.9084C25.534 15.3357 25.534 17.7565 25.534 20.1838C25.534 20.2163 25.534 20.2424 25.534 20.2749C25.5406 20.327 25.5145 20.3465 25.4625 20.3465C25.0265 20.3465 24.5905 20.3465 24.1545 20.3465C24.1024 20.3465 24.0829 20.327 24.0894 20.2749C24.0894 20.2489 24.0894 20.2228 24.0894 20.2033C24.0894 17.7695 24.0894 15.3357 24.0894 12.9019C24.0894 12.8694 24.0894 12.8303 24.0894 12.7848Z" fill="#512BD4"/>
<path d="M4.00038 19.6502C4.00038 19.1296 4.48844 18.7261 5.00253 18.8172C5.36695 18.8823 5.60773 19.084 5.71185 19.4354C5.85501 19.9105 5.4971 20.4181 5.00253 20.4701C4.69668 20.5027 4.43638 20.4311 4.22163 20.2098C4.07196 20.0536 3.99387 19.8714 4.00038 19.6502Z" fill="#512BD4"/>
</g>
<defs>
<filter id="filter0_b_530_872" x="-30" y="-30" width="92" height="92" filterUnits="userSpaceOnUse" color-interpolation-filters="sRGB">
<feFlood flood-opacity="0" result="BackgroundImageFix"/>
<feGaussianBlur in="BackgroundImageFix" stdDeviation="15"/>
<feComposite in2="SourceAlpha" operator="in" result="effect1_backgroundBlur_530_872"/>
<feBlend mode="normal" in="SourceGraphic" in2="effect1_backgroundBlur_530_872" result="shape"/>
</filter>
</defs>
</svg>
