<svg width="24" height="10" viewBox="0 0 24 10" fill="none" xmlns="http://www.w3.org/2000/svg">
<path d="M4.51045 2.39642C4.51696 2.52006 4.52347 2.6372 4.52998 2.76084C4.53648 2.904 4.54299 3.04066 4.54299 3.18382C4.54299 5.20765 4.54299 7.23148 4.54299 9.2488C4.54299 9.27483 4.54299 9.30086 4.54299 9.33991C4.51045 9.34641 4.48443 9.35292 4.45189 9.35292C4.04842 9.35292 3.64496 9.35292 3.248 9.35292C3.16991 9.35292 3.15039 9.32689 3.15039 9.25531C3.15039 6.379 3.15039 3.5092 3.15039 0.632891C3.15039 0.600353 3.1569 0.574323 3.1569 0.535278C3.19594 0.535278 3.22848 0.535278 3.26102 0.535278C3.74257 0.535278 4.22413 0.535278 4.70568 0.535278C4.79028 0.535278 4.83583 0.561308 4.88138 0.632891C6.18939 2.72179 7.49739 4.8107 8.8119 6.8996C8.90952 7.05578 9.00713 7.21196 9.11125 7.38766C9.10474 7.31608 9.09823 7.26402 9.09823 7.20545C9.08522 6.82151 9.06569 6.43757 9.06569 6.04712C9.05919 4.25105 9.06569 2.46149 9.06569 0.665428C9.06569 0.626383 9.06569 0.587338 9.06569 0.548293C9.52773 0.548293 9.98325 0.548293 10.4453 0.548293C10.4453 3.48317 10.4453 6.41154 10.4453 9.35292C10.4127 9.35292 10.3802 9.35943 10.3477 9.35943C9.89215 9.35943 9.43011 9.35943 8.97459 9.35943C8.90952 9.35943 8.87047 9.33991 8.83793 9.28134C7.51041 7.18593 6.18288 5.09703 4.86186 3.00161C4.74472 2.81941 4.65362 2.61767 4.5495 2.42896C4.54299 2.41594 4.53648 2.40943 4.52998 2.39642C4.51696 2.38991 4.51045 2.38991 4.51045 2.39642Z" fill="#512BD4"/>
<path d="M12.3188 0.535278C13.8676 0.535278 15.4099 0.535278 16.9522 0.535278C16.9522 0.94525 16.9522 1.35522 16.9522 1.77821C15.8915 1.77821 14.8307 1.77821 13.7635 1.77821C13.7635 1.81725 13.757 1.84979 13.757 1.88233C13.757 2.6372 13.757 3.39206 13.757 4.14693C13.757 4.25756 13.757 4.25756 13.8676 4.25756C14.7787 4.25756 15.6832 4.25756 16.5943 4.25756C16.7179 4.25756 16.7179 4.25756 16.7179 4.3812C16.7179 4.71959 16.7179 5.05147 16.7179 5.38986C16.7179 5.5135 16.7179 5.5135 16.5943 5.5135C15.6897 5.5135 14.7852 5.5135 13.8806 5.5135C13.757 5.5135 13.757 5.5135 13.757 5.63715C13.757 6.41805 13.757 7.19894 13.757 7.97984C13.757 8.09698 13.757 8.09698 13.8741 8.09698C14.9283 8.09698 15.9826 8.09698 17.0303 8.09698C17.1539 8.09698 17.1539 8.09698 17.1539 8.22062C17.1539 8.56551 17.1539 8.9039 17.1539 9.2488C17.1539 9.32689 17.1344 9.35943 17.0498 9.35943C15.5075 9.35943 13.9652 9.35943 12.423 9.35943C12.3384 9.35943 12.3188 9.3334 12.3188 9.2488C12.3188 6.379 12.3188 3.5092 12.3188 0.645905C12.3188 0.60686 12.3188 0.580831 12.3188 0.535278Z" fill="#512BD4"/>
<path d="M20.0894 1.78479C20.0503 1.78479 20.0178 1.78479 19.9853 1.78479C19.2304 1.78479 18.482 1.78479 17.7272 1.78479C17.6491 1.78479 17.623 1.76527 17.623 1.68067C17.6296 1.32927 17.6296 0.977863 17.623 0.619951C17.623 0.548369 17.6361 0.522339 17.7142 0.522339C19.777 0.522339 21.8399 0.522339 23.9093 0.522339C23.9809 0.522339 24.0004 0.541861 24.0004 0.613443C23.9939 0.971355 23.9939 1.32276 24.0004 1.68067C24.0004 1.75876 23.9744 1.77828 23.9028 1.77828C23.1479 1.77828 22.3995 1.77828 21.6447 1.77828C21.6121 1.77828 21.5796 1.77828 21.534 1.77828C21.534 1.82384 21.534 1.86288 21.534 1.90843C21.534 4.33572 21.534 6.75651 21.534 9.1838C21.534 9.21634 21.534 9.24237 21.534 9.27491C21.5406 9.32697 21.5145 9.34649 21.4625 9.34649C21.0265 9.34649 20.5905 9.34649 20.1545 9.34649C20.1024 9.34649 20.0829 9.32697 20.0894 9.27491C20.0894 9.24888 20.0894 9.22285 20.0894 9.20332C20.0894 6.76952 20.0894 4.33573 20.0894 1.90193C20.0894 1.86939 20.0894 1.83034 20.0894 1.78479Z" fill="#512BD4"/>
<path d="M0.000376175 8.65018C0.000376175 8.12958 0.488438 7.72612 1.00253 7.81722C1.36695 7.88229 1.60773 8.08403 1.71185 8.43543C1.85501 8.91048 1.4971 9.41806 1.00253 9.47012C0.696677 9.50266 0.436378 9.43108 0.221631 9.20982C0.0719586 9.05364 -0.00613131 8.87143 0.000376175 8.65018Z" fill="#512BD4"/>
</svg>
