<svg width="16" height="18" viewBox="0 0 16 18" fill="none" xmlns="http://www.w3.org/2000/svg">
<path d="M15.936 0L14.4901 16.1982L7.99052 18.0001L1.50886 16.2007L0.0644531 0H15.936Z" fill="#264DE4"/>
<path d="M8 16.6227L13.252 15.1667L14.4876 1.32458H8V16.6227Z" fill="#2965F1"/>
<path d="M7.99999 7.33337H3.37549L3.55357 9.3203H7.99999V7.33337Z" fill="#EBEBEB"/>
<path d="M7.99992 3.31177H7.99305H3.01758L3.1982 5.29874H7.99992V3.31177Z" fill="#EBEBEB"/>
<path d="M3.64307 10.3137L3.92144 13.4335L7.99156 14.5634L8.00071 14.5609V12.4936L7.992 12.4959L5.77912 11.8984L5.63766 10.3137H4.56237H3.64307Z" fill="#EBEBEB"/>
<path d="M10.4399 9.32034L10.2092 11.8973L7.99316 12.4954V14.5626L12.0665 13.4336L12.0964 13.098L12.5633 7.86696L12.6118 7.33341L12.9705 3.31177H7.99316V5.29874H10.793L10.6122 7.33341H7.99316V9.32034H10.4399Z" fill="white"/>
</svg>
