<svg width="32" height="32" viewBox="0 0 32 32" fill="none" xmlns="http://www.w3.org/2000/svg">
<g filter="url(#filter0_b_530_909)">
<rect width="32" height="32" rx="16" fill="white"/>
<rect x="0.5" y="0.5" width="31" height="31" rx="15.5" stroke="white"/>
<path d="M18.6402 15.2703L14.2344 16.7089L10.4014 18.4006L9.32908 18.6837C9.05598 18.9435 8.76963 19.2066 8.45992 19.473C8.12025 19.766 7.80389 20.0325 7.56075 20.2256C7.29103 20.4387 6.89141 20.8383 6.68829 21.0914C6.38523 21.471 6.14547 21.8739 6.04222 22.1837C5.85905 22.7432 5.94901 23.3093 6.30199 23.8321C6.75489 24.4981 7.65738 25.1775 8.70966 25.6403C9.24585 25.8768 10.1483 26.1798 10.8276 26.3497C11.9565 26.6361 14.1411 26.9458 15.3433 26.9924C15.5863 27.0024 15.9127 27.0024 15.926 26.9924C15.9527 26.9757 16.1392 26.6194 16.3557 26.1766C17.095 24.668 17.6278 23.2527 17.9175 22.0438C18.0906 21.3112 18.2272 20.3355 18.317 19.18C18.3404 18.8569 18.3503 17.7746 18.3304 17.4083C18.3004 16.8089 18.2471 16.3227 18.1639 15.8465C18.1506 15.7765 18.1472 15.7133 18.1539 15.7099C18.1672 15.7 18.2071 15.6866 18.7499 15.5301L18.6401 15.2704V15.2703H18.6402V15.2703ZM17.6345 15.8597C17.6744 15.8597 17.781 16.8821 17.8076 17.5282C17.8143 17.6647 17.8109 17.7546 17.8043 17.7546C17.7777 17.7546 17.2415 17.4383 16.8586 17.1985C16.5255 16.9887 15.8928 16.5691 15.7929 16.4892C15.7596 16.4659 15.7629 16.4625 16.036 16.3693C16.4988 16.2127 17.5978 15.8597 17.6345 15.8597ZM15.3899 16.599C15.4199 16.599 15.4965 16.6423 15.6796 16.7555C16.3656 17.1851 17.2981 17.7047 17.6977 17.8778C17.8209 17.9311 17.8342 17.9111 17.5512 18.1043C16.9451 18.5172 16.1891 18.9235 15.2633 19.3331C15.1002 19.4064 14.9637 19.4629 14.9603 19.4629C14.9537 19.4629 14.9736 19.3797 15.0002 19.2798C15.2234 18.4506 15.3499 17.6114 15.3566 16.9387C15.36 16.6057 15.36 16.6057 15.3899 16.5957C15.3832 16.599 15.3866 16.599 15.3899 16.599ZM14.9271 16.7755C14.947 16.7955 14.9337 17.5415 14.907 17.7446C14.8471 18.2308 14.7539 18.6837 14.6007 19.1932C14.5641 19.3164 14.5307 19.4197 14.5241 19.4263C14.5108 19.4429 14.0545 18.9967 13.9047 18.8235C13.6449 18.5238 13.4418 18.2241 13.292 17.9311C13.2154 17.7812 13.0955 17.4882 13.1055 17.4782C13.1587 17.4416 14.9137 16.7622 14.9271 16.7755ZM12.7491 17.6314C12.7524 17.6314 12.7558 17.6314 12.7591 17.6347C12.7658 17.6413 12.7891 17.6946 12.8091 17.7546C12.9156 18.0443 13.1554 18.4705 13.3619 18.7436C13.5883 19.0434 13.8847 19.363 14.1311 19.5728C14.2111 19.6394 14.2843 19.7027 14.2943 19.7127C14.3143 19.7327 14.3209 19.7293 13.7781 19.9358C13.1488 20.1756 12.4627 20.4153 11.6768 20.6684C11.489 20.7289 11.3015 20.79 11.1141 20.8516C11.0841 20.8616 11.0941 20.8449 11.1807 20.7084C11.5703 20.099 12.163 18.9035 12.496 18.0576C12.5527 17.9111 12.6093 17.7646 12.6193 17.7313C12.6326 17.6846 12.6492 17.668 12.6925 17.6447C12.7158 17.6381 12.7392 17.6314 12.7491 17.6314ZM12.0832 17.9078C12.0931 17.9145 11.9233 18.2707 11.7568 18.5971C11.4337 19.2265 11.0807 19.8459 10.6079 20.5985C10.528 20.7284 10.4514 20.8483 10.4414 20.8616C10.4247 20.8849 10.418 20.8782 10.3648 20.775C10.2516 20.5519 10.1583 20.2655 10.1083 20.0024C10.0584 19.7426 10.0684 19.2898 10.125 19.01C10.1683 18.8036 10.165 18.8069 10.2649 18.757C10.6911 18.5405 12.0698 17.8944 12.0832 17.9078ZM17.8276 18.1409V18.2808C17.8276 19.0234 17.7477 20.0424 17.6311 20.785C17.6111 20.9149 17.5944 21.0214 17.5911 21.0248C17.5911 21.0248 17.4946 20.9982 17.3813 20.9648C16.8818 20.8083 16.339 20.5785 15.8495 20.3088C15.5264 20.1323 15.0569 19.8426 15.0702 19.8292C15.0735 19.8259 15.2134 19.7527 15.3766 19.6661C16.0293 19.3264 16.6554 18.9601 17.1982 18.5971C17.4013 18.4606 17.7076 18.2408 17.7743 18.1809L17.8276 18.1409ZM9.56885 19.1266C9.58216 19.1266 9.57883 19.1532 9.55885 19.2731C9.54552 19.3597 9.52889 19.5195 9.52227 19.6294C9.49556 20.1156 9.57554 20.4753 9.8153 20.9681C9.8819 21.1047 9.93522 21.2179 9.93184 21.2212C9.90852 21.2412 7.70401 21.8873 7.0113 22.0771C6.80484 22.1337 6.62505 22.1836 6.61166 22.1869C6.58839 22.1936 6.58505 22.1903 6.59503 22.1336C6.67161 21.6442 7.0446 21.0048 7.56408 20.4652C7.91044 20.1056 8.18685 19.8958 8.65973 19.626C8.9994 19.4329 9.52222 19.1433 9.56218 19.1299C9.56221 19.1266 9.56553 19.1266 9.56885 19.1266ZM14.7639 20.0557C14.7672 20.0524 14.8471 20.0957 14.9437 20.1523C15.6563 20.5652 16.6487 20.9482 17.4945 21.1447L17.5712 21.1613L17.4646 21.2212C17.0217 21.4677 15.5664 22.0737 14.0779 22.6299C13.8614 22.7098 13.6483 22.7897 13.6083 22.8064C13.5683 22.823 13.5317 22.833 13.5317 22.8297C13.5317 22.8263 13.5916 22.7098 13.6682 22.5666C14.0844 21.7874 14.5041 20.8383 14.7172 20.1789C14.7439 20.1156 14.7605 20.059 14.7639 20.0557ZM14.2344 20.2289C14.2378 20.2323 14.2111 20.3021 14.1778 20.382C13.8881 21.0847 13.5084 21.8507 13.0222 22.7098C12.899 22.9296 12.7958 23.1062 12.7924 23.1062C12.7891 23.1062 12.6892 23.0462 12.5693 22.9729C11.8633 22.54 11.2372 22.0072 10.8277 21.491L10.7677 21.4177L11.0707 21.3345C12.1563 21.0381 13.0787 20.7184 13.9946 20.3255C14.1245 20.2722 14.2311 20.2289 14.2344 20.2289ZM17.5246 21.3778C17.5279 21.4544 17.358 22.1404 17.2182 22.6365C17.1016 23.0528 17.0017 23.3792 16.8185 23.9552C16.7386 24.2084 16.6687 24.4181 16.6654 24.4181C16.662 24.4181 16.6421 24.4148 16.6221 24.4082C15.6331 24.2283 14.7472 23.9786 13.9147 23.6456C13.6816 23.5523 13.3486 23.4024 13.3286 23.3858C13.3219 23.3791 13.5218 23.2859 13.7748 23.176C15.2901 22.5133 16.8619 21.7607 17.4013 21.4377C17.4646 21.3977 17.5145 21.3778 17.5246 21.3778ZM9.92853 21.6375C9.93519 21.6442 9.51226 22.2536 8.91947 23.0828C8.71301 23.3725 8.47325 23.7122 8.38335 23.8387C8.29343 23.9653 8.15691 24.1651 8.08031 24.285L7.94038 24.5014L7.79052 24.3749C7.61401 24.2283 7.30768 23.9153 7.17114 23.7422C6.88473 23.3859 6.69162 23.0096 6.61502 22.6666C6.57838 22.5067 6.57838 22.4268 6.61164 22.4168C6.66158 22.4035 7.55074 22.1937 8.38332 22.0005C8.84621 21.894 9.38233 21.7674 9.57548 21.7208C9.76865 21.6741 9.92521 21.6375 9.92853 21.6375ZM10.3548 21.8007L10.4613 21.9206C10.9409 22.4567 11.4304 22.8531 12.0232 23.1994C12.1298 23.2593 12.2097 23.3126 12.203 23.316C12.1797 23.3326 10.1449 24.0552 9.20253 24.3815C8.67307 24.568 8.23679 24.7179 8.23351 24.7179C8.23019 24.7179 8.2002 24.6979 8.16684 24.6746L8.10694 24.6313L8.2035 24.4914C8.51651 24.0385 8.90953 23.5424 9.76536 22.51L10.3548 21.8007ZM13.0123 23.7022C13.0155 23.6989 13.1621 23.7521 13.3419 23.8188C13.7748 23.9819 14.1178 24.0852 14.5774 24.2017C15.1435 24.3449 15.9627 24.4848 16.4456 24.5248C16.5189 24.5314 16.5588 24.5381 16.5455 24.5481C16.5221 24.5614 16.0327 24.7246 15.673 24.8378C15.1002 25.0176 13.3519 25.5338 11.9266 25.9434C11.6635 26.02 11.4371 26.0833 11.4237 26.0866C11.3905 26.0933 11.2805 26.0632 11.2805 26.0499C11.2805 26.0433 11.3605 25.9401 11.4571 25.8269C11.9366 25.2541 12.4128 24.6147 12.8091 24.0086C12.919 23.842 13.0123 23.7055 13.0123 23.7022ZM12.4261 23.7189C12.4294 23.7222 12.193 24.1018 11.7801 24.7545C11.6036 25.0309 11.4071 25.3439 11.3371 25.4538C11.2705 25.5604 11.1706 25.7269 11.114 25.8202L11.0175 25.99L10.9675 25.9767C10.8476 25.9434 10.0051 25.647 9.78196 25.5571C9.50555 25.4472 9.21916 25.314 9.00601 25.2008C8.73964 25.0576 8.40665 24.8444 8.43326 24.8378C8.43991 24.8345 8.89615 24.7112 9.44559 24.5614C10.9042 24.165 11.7134 23.9353 12.243 23.7688C12.3395 23.7388 12.4228 23.7155 12.4261 23.7189ZM16.5721 24.6912H16.5754C16.5888 24.7246 16.0493 26.2231 15.8528 26.696C15.8095 26.8025 15.7929 26.8292 15.7696 26.8258C15.713 26.8226 14.9304 26.7126 14.4541 26.6427C13.625 26.5162 12.233 26.273 11.8833 26.1931L11.8034 26.1765L12.2995 26.0632C13.3652 25.8234 13.878 25.6936 14.3975 25.5337C15.0536 25.3339 15.703 25.0842 16.359 24.7778C16.4622 24.7312 16.5488 24.6946 16.5721 24.6912Z" fill="url(#paint0_linear_530_909)"/>
<path d="M14.0978 5.00017C14.0245 4.99023 12.8423 5.41649 12.0797 5.72615C11.0507 6.1458 10.2515 6.54543 9.7586 6.89169C9.57548 7.02162 9.34565 7.25137 9.30907 7.34127C9.29576 7.37458 9.28906 7.41454 9.28906 7.45449L9.73532 7.87743L10.7976 8.2171L13.3252 8.67001L16.2157 9.16621L16.2457 8.91645C16.2357 8.91645 16.2291 8.91313 16.2191 8.91313L15.8394 8.85316L15.7629 8.71665C15.3699 8.02396 14.937 7.16478 14.6839 6.58533C14.4875 6.13575 14.301 5.6163 14.1977 5.24331C14.1411 5.01686 14.1344 5.00355 14.0979 5.00023V5.00016H14.0978V5.00017ZM14.0444 5.17006H14.0479C14.0511 5.17335 14.0645 5.26665 14.0778 5.37648C14.1344 5.84277 14.2377 6.29227 14.4008 6.77848C14.524 7.14481 14.524 7.12485 14.3809 7.08153C14.0412 6.98832 12.5193 6.72523 11.417 6.57205C11.2405 6.54872 11.0907 6.52542 11.0907 6.52211C11.0774 6.50879 11.8866 6.08583 12.2429 5.91937C12.6991 5.70952 13.9512 5.18669 14.0444 5.17006ZM10.8342 6.66194L10.9641 6.70519C11.6701 6.945 13.445 7.28468 14.4241 7.3646C14.534 7.37459 14.6273 7.38461 14.6305 7.38461C14.6339 7.38792 14.5407 7.43788 14.4207 7.49447C13.9479 7.73091 13.4284 8.02064 13.0687 8.24377C12.9622 8.31034 12.8656 8.36366 12.8523 8.36366C12.839 8.36366 12.7691 8.35033 12.6958 8.34033L12.5626 8.32032L12.2296 7.99395C11.6435 7.42453 11.1839 6.98497 11.0074 6.81843L10.8342 6.66194ZM10.701 6.76516L11.1706 7.35128C11.427 7.67431 11.6867 7.99065 11.7434 8.06055C11.8 8.13053 11.8466 8.18717 11.8433 8.19049C11.83 8.20047 11.164 8.07057 10.8109 7.99068C10.448 7.9074 10.2981 7.86745 10.075 7.79754L9.89182 7.73758V7.69092C9.89514 7.46779 10.1782 7.1348 10.6578 6.79516L10.701 6.76516ZM14.6905 7.5644C14.7039 7.5644 14.7205 7.59436 14.7604 7.68427C14.8737 7.93402 15.2267 8.60674 15.3132 8.73659C15.3399 8.77993 15.3865 8.78325 14.917 8.70665C13.7881 8.52344 13.4251 8.46357 13.4251 8.45691C13.4251 8.45359 13.4584 8.43026 13.5017 8.40694C13.8514 8.21383 14.2043 7.96737 14.5174 7.70428C14.594 7.641 14.6639 7.58106 14.6772 7.57105C14.6805 7.5644 14.6872 7.56108 14.6905 7.5644Z" fill="url(#paint1_linear_530_909)"/>
<path d="M9.33262 7.29468C9.33262 7.29468 9.2594 7.41128 9.32932 7.58445C9.37266 7.69098 9.49918 7.82084 9.64235 7.95407C9.64235 7.95407 11.1243 9.39933 11.3041 9.60583C12.1233 10.5516 12.4796 11.484 12.5129 12.7695C12.5329 13.5953 12.3763 14.3213 11.9868 15.1638C11.2941 16.6757 9.83213 18.3441 7.57764 20.1957L7.90737 20.0858C8.12049 19.9259 8.41022 19.7561 9.08955 19.3831C10.658 18.5239 12.423 17.7347 14.5876 16.9221C17.7045 15.7499 22.8297 14.3779 25.7468 13.9317L26.0499 13.885L26.0033 13.8117C25.7369 13.3988 25.5537 13.1424 25.3339 12.8693C24.6945 12.0768 23.9187 11.4341 22.9695 10.9012C21.6641 10.172 19.9757 9.60252 17.8378 9.17958C17.4348 9.09962 16.549 8.94645 15.8297 8.83656C14.3045 8.60018 13.3188 8.43697 12.2332 8.25048C11.8436 8.18385 11.2608 8.08397 10.8745 8.00074C10.6747 7.9574 10.2917 7.86751 9.99202 7.76428C9.75226 7.67099 9.40589 7.57774 9.33262 7.29468ZM10.1919 8.12725C10.1951 8.12396 10.2484 8.14388 10.3184 8.1672C10.4449 8.21045 10.6081 8.26042 10.8013 8.31374C10.9474 8.35394 11.094 8.39279 11.2409 8.43028C11.4407 8.4802 11.6071 8.52684 11.6105 8.52684C11.6338 8.55016 11.9702 9.62572 12.0834 10.0387C12.1266 10.1952 12.16 10.3284 12.1567 10.3284C12.1532 10.3318 12.1167 10.2751 12.0734 10.1985C11.6837 9.51253 11.0677 8.81654 10.355 8.25705C10.2618 8.19052 10.1919 8.13056 10.1919 8.12725ZM11.8303 8.58014C11.8469 8.58014 11.9202 8.59014 12.0101 8.6101C12.5762 8.73664 13.5919 8.92979 14.2413 9.0397C14.3512 9.05633 14.4378 9.07636 14.4378 9.08297C14.4378 9.08967 14.3978 9.11293 14.3478 9.13961C14.238 9.1962 13.795 9.45925 13.6485 9.55918C13.2788 9.80561 12.9459 10.072 12.7061 10.3118C12.6095 10.4084 12.5262 10.4883 12.5262 10.4883C12.5262 10.4883 12.5063 10.4317 12.4896 10.3617C12.3698 9.89882 12.12 9.2128 11.8935 8.72996C11.8569 8.65339 11.8269 8.58344 11.8269 8.57681C11.8269 8.58346 11.8269 8.58014 11.8303 8.58014ZM14.7141 9.12961C14.7341 9.13625 14.7674 9.24948 14.834 9.49923C14.9573 9.98213 15.0139 10.5216 14.9939 11.0245C14.9872 11.1643 14.9806 11.2942 14.9739 11.3109L14.9639 11.3441L14.7907 11.2875C14.4344 11.1743 13.855 11.0044 13.3588 10.8646C13.0757 10.788 12.846 10.7181 12.846 10.7114C12.846 10.6914 13.2589 10.2785 13.4354 10.122C13.7717 9.82557 14.6842 9.1196 14.7141 9.12961ZM14.9439 9.16287C14.9539 9.15294 16.3226 9.38932 16.9454 9.50922C17.4083 9.59912 18.0809 9.739 18.1209 9.75568C18.1409 9.76232 18.0709 9.80227 17.8478 9.90217C16.9686 10.2985 16.3159 10.6548 15.6666 11.0877C15.4968 11.2009 15.3535 11.2942 15.3502 11.2942C15.3469 11.2942 15.3436 11.1976 15.3436 11.0811C15.3436 10.4484 15.217 9.80895 14.9839 9.26948C14.9606 9.21619 14.9406 9.16625 14.9439 9.16287ZM18.4838 9.86224C18.4939 9.87222 18.4505 10.142 18.4106 10.3018C18.2907 10.798 17.9677 11.534 17.5715 12.2266C17.5015 12.3499 17.4382 12.4498 17.4315 12.4531C17.4249 12.4564 17.335 12.4064 17.2317 12.3465C16.8454 12.12 16.4059 11.9069 15.9263 11.7071C15.7932 11.6505 15.6766 11.6039 15.6732 11.5972C15.6499 11.5772 16.7222 10.8679 17.2883 10.5283C17.7379 10.2552 18.4705 9.8489 18.4838 9.86224ZM18.7369 9.90218C18.7669 9.90218 19.373 10.0687 19.6893 10.162C20.4719 10.3951 21.371 10.7247 21.9571 10.9911L22.2002 11.1011L22.0304 11.141C20.5985 11.4707 19.373 11.8504 18.1908 12.3299C18.0942 12.3698 18.0076 12.4031 18.001 12.4031C17.9943 12.4031 18.0276 12.3266 18.0709 12.2333C18.4273 11.4774 18.657 10.6881 18.7136 10.0154C18.717 9.95211 18.7269 9.90218 18.7369 9.90218ZM12.7028 11.2875C12.7127 11.2775 13.1756 11.3874 13.4254 11.4573C13.805 11.5639 14.6109 11.8336 14.6109 11.8536C14.6109 11.857 14.521 11.9336 14.4145 12.0268C13.9782 12.3898 13.5586 12.7727 13.0557 13.2589C12.9059 13.4022 12.7793 13.5187 12.7727 13.5187C12.766 13.5187 12.7627 13.4987 12.766 13.4721C12.8426 12.9126 12.826 12.1933 12.7194 11.464C12.7094 11.3707 12.6994 11.2909 12.7028 11.2875ZM22.4301 11.2976C22.4367 11.3042 22.2169 11.6505 22.0771 11.847C21.8773 12.1333 21.5842 12.5131 20.9215 13.3456C20.5719 13.7851 20.1789 14.2813 20.049 14.4478C19.9158 14.6143 19.8059 14.7542 19.8025 14.7542C19.7992 14.7542 19.756 14.6943 19.7093 14.621C19.3363 14.0615 18.8901 13.572 18.3606 13.1324C18.2607 13.0491 18.1509 12.9592 18.1142 12.9326C18.0776 12.906 18.0476 12.8793 18.0476 12.876C18.0476 12.866 18.6137 12.6229 19.0433 12.4498C19.7959 12.1434 20.8215 11.7771 21.5908 11.5406C21.9938 11.4141 22.4234 11.2909 22.4301 11.2976ZM22.6865 11.3641C22.6998 11.3608 22.7797 11.4008 22.8763 11.4573C23.6855 11.9202 24.4781 12.5163 25.1042 13.1291C25.2807 13.3023 25.7169 13.7552 25.7102 13.7585C25.7102 13.7585 25.557 13.7718 25.3772 13.7851C23.9752 13.8917 22.1803 14.188 20.4553 14.6043C20.3388 14.6309 20.2355 14.6542 20.2289 14.6542C20.2223 14.6542 20.3521 14.5244 20.5153 14.3679C21.5276 13.3922 21.9905 12.7761 22.5366 11.6771C22.6132 11.514 22.6798 11.3741 22.6865 11.3641C22.6832 11.3641 22.6832 11.3641 22.6865 11.3641ZM15.2703 12.1234C15.3169 12.1334 15.7498 12.3366 16.0762 12.4997C16.3759 12.6495 16.8255 12.8893 16.8488 12.9093C16.8521 12.9126 16.6922 12.9959 16.4958 13.0925C15.8697 13.4055 15.3336 13.7018 14.7741 14.0415C14.6142 14.1381 14.481 14.2181 14.4777 14.2181C14.4644 14.2181 14.4677 14.2047 14.5576 14.0415C14.8574 13.4954 15.0971 12.8427 15.2337 12.2066C15.247 12.1567 15.2603 12.1234 15.2703 12.1234ZM14.8373 12.2033C14.8473 12.2133 14.7341 12.6229 14.6642 12.846C14.5276 13.269 14.2979 13.7984 14.0748 14.1981C14.0214 14.2913 13.9415 14.4278 13.8983 14.5044L13.815 14.6376L13.6285 14.4578C13.4121 14.248 13.2356 14.1181 13.0092 14.0015C12.9192 13.955 12.8493 13.915 12.8493 13.9083C12.8493 13.8817 13.4187 13.3655 13.855 12.9926C14.168 12.7228 14.8274 12.1933 14.8373 12.2033ZM17.4849 13.2923L17.6481 13.3988C18.0209 13.642 18.4605 13.9649 18.7969 14.248C18.9867 14.4045 19.353 14.7342 19.4263 14.8141L19.4662 14.8575L19.1965 14.934C17.6713 15.3569 16.4924 15.7332 15.1171 16.2394C14.9639 16.296 14.834 16.3427 14.824 16.3427C14.8041 16.3427 14.7874 16.3593 15.1304 16.0429C16.0096 15.2338 16.7888 14.3412 17.3683 13.4721L17.4849 13.2923ZM16.7888 13.4654C16.7955 13.4721 16.3393 14.1148 16.0662 14.4778C15.7398 14.9107 15.1604 15.6367 14.7608 16.1095C14.5943 16.306 14.4511 16.4692 14.4444 16.4725C14.4344 16.4758 14.4311 16.4259 14.4311 16.3493C14.4311 15.9463 14.3279 15.5167 14.148 15.1505C14.0714 14.9973 14.0581 14.9606 14.0748 14.944C14.1381 14.8874 15.1071 14.3346 15.7198 14.0049C16.1328 13.7851 16.7788 13.4588 16.7888 13.4654ZM12.5795 14.4978C12.5895 14.4978 12.6661 14.5377 12.7527 14.5844C12.9658 14.7009 13.1557 14.8308 13.3255 14.9707C13.3321 14.9773 13.2456 15.0473 13.1323 15.1305C12.816 15.3569 12.3364 15.7199 12.0568 15.9431C11.7636 16.1762 11.7537 16.1828 11.787 16.1329C12.0068 15.7965 12.1166 15.6067 12.2332 15.3636C12.3364 15.1472 12.4397 14.8908 12.5129 14.6676C12.5396 14.5711 12.5729 14.4978 12.5795 14.4978ZM13.7018 15.3769C13.7184 15.3736 13.7385 15.4036 13.8283 15.5368C14.0181 15.8198 14.1647 16.1995 14.2014 16.5059L14.2079 16.5725L13.7518 16.749C12.9358 17.0653 12.1833 17.3784 11.6737 17.6114C11.5306 17.6781 11.2808 17.7979 11.1176 17.8779C10.9544 17.9611 10.8212 18.0244 10.8212 18.0211C10.8212 18.0178 10.9244 17.9412 11.051 17.8479C12.0468 17.1253 12.9092 16.3327 13.5553 15.5401C13.6252 15.4568 13.6885 15.3802 13.6951 15.3769L13.7018 15.3769ZM13.1856 15.5035C13.199 15.5168 12.8194 15.9464 12.5596 16.2094C11.9169 16.8655 11.2808 17.3784 10.4915 17.8779C10.3917 17.9412 10.3018 17.9977 10.2917 18.0044C10.2684 18.0178 10.2984 17.9844 10.6447 17.6081C10.8645 17.3717 11.031 17.1719 11.2208 16.9255C11.3474 16.7623 11.3707 16.739 11.5539 16.6091C12.0434 16.2561 13.1723 15.4901 13.1856 15.5035Z" fill="url(#paint2_radial_530_909)"/>
</g>
<defs>
<filter id="filter0_b_530_909" x="-30" y="-30" width="92" height="92" filterUnits="userSpaceOnUse" color-interpolation-filters="sRGB">
<feFlood flood-opacity="0" result="BackgroundImageFix"/>
<feGaussianBlur in="BackgroundImageFix" stdDeviation="15"/>
<feComposite in2="SourceAlpha" operator="in" result="effect1_backgroundBlur_530_909"/>
<feBlend mode="normal" in="SourceGraphic" in2="effect1_backgroundBlur_530_909" result="shape"/>
</filter>
<linearGradient id="paint0_linear_530_909" x1="9.26434" y1="24.8237" x2="10.8575" y2="23.8823" gradientUnits="userSpaceOnUse">
<stop stop-color="#909CA9"/>
<stop offset="1" stop-color="#EDEDEE"/>
</linearGradient>
<linearGradient id="paint1_linear_530_909" x1="9.30075" y1="7.07668" x2="10.5826" y2="7.07668" gradientUnits="userSpaceOnUse">
<stop stop-color="#939FAB"/>
<stop offset="1" stop-color="#DCDEE1"/>
</linearGradient>
<radialGradient id="paint2_radial_530_909" cx="0" cy="0" r="1" gradientUnits="userSpaceOnUse" gradientTransform="translate(15.7694 12.9558) rotate(-171.457) scale(1.65269 3.30619)">
<stop stop-color="#EE352C"/>
<stop offset="1" stop-color="#A91D22"/>
</radialGradient>
</defs>
</svg>
