<svg width="32" height="32" viewBox="0 0 32 32" fill="none" xmlns="http://www.w3.org/2000/svg">
<g filter="url(#filter0_b_530_916)">
<rect width="32" height="32" rx="16" fill="white"/>
<rect x="0.5" y="0.5" width="31" height="31" rx="15.5" stroke="white"/>
<path d="M26.0948 14.8433C26.0948 20.6656 21.3756 25.3848 15.5533 25.3848C9.73091 25.3848 5.01172 20.6656 5.01172 14.8433C5.01172 9.02095 9.73091 4.30176 15.5533 4.30176C21.3756 4.29644 26.0948 9.02095 26.0948 14.8433Z" fill="#008DC2"/>
<path d="M9.68455 11.3855C9.68455 11.8503 9.30659 12.2283 8.84179 12.2283C8.37698 12.2283 7.99902 11.8503 7.99902 11.3855C7.99902 10.9207 8.37698 10.5427 8.84179 10.5427C8.95254 10.5424 9.06227 10.564 9.16465 10.6063C9.26704 10.6485 9.36006 10.7106 9.43838 10.7889C9.51669 10.8672 9.57876 10.9602 9.62101 11.0626C9.66325 11.165 9.68485 11.2747 9.68455 11.3855" fill="white"/>
<path d="M9.82713 13.6992C9.82713 14.164 9.44917 14.542 8.98437 14.542C8.51956 14.542 8.1416 14.164 8.1416 13.6992C8.1416 13.2344 8.51956 12.8564 8.98437 12.8564C9.09512 12.8562 9.20485 12.8777 9.30723 12.92C9.40961 12.9622 9.50264 13.0243 9.58095 13.1026C9.65927 13.1809 9.72134 13.274 9.76359 13.3763C9.80583 13.4787 9.82743 13.5885 9.82713 13.6992" fill="white"/>
<path d="M10.3432 16.1507C10.3432 16.6155 9.96528 16.9934 9.50048 16.9934C9.03568 16.9934 8.65771 16.6155 8.65771 16.1507C8.65771 15.6859 9.03568 15.3079 9.50048 15.3079C9.96542 15.3029 10.3432 15.6808 10.3432 16.1507ZM11.4976 18.3469C11.4976 18.8117 11.1196 19.1897 10.6548 19.1897C10.19 19.1897 9.81208 18.8117 9.81208 18.3469C9.81208 17.8821 10.19 17.5041 10.6548 17.5041C11.1196 17.4991 11.4976 17.877 11.4976 18.3469Z" fill="white"/>
<path d="M20.5224 21.4164C20.5224 21.8812 20.1445 22.2591 19.6797 22.2591C19.2149 22.2591 18.8369 21.8812 18.8369 21.4164C18.8369 20.9516 19.2149 20.5736 19.6797 20.5736C20.1445 20.5736 20.5224 20.9516 20.5224 21.4164Z" fill="white"/>
<path d="M22.0542 19.6031C22.0542 20.0679 21.6762 20.4459 21.2114 20.4459C20.7466 20.4459 20.3687 20.0679 20.3687 19.6031C20.3687 19.1383 20.7466 18.7604 21.2114 18.7604C21.6762 18.7604 22.0542 19.1385 22.0542 19.6031Z" fill="white"/>
<path d="M17.6113 6.7838C17.6113 7.24861 17.2333 7.62657 16.7685 7.62657C16.3037 7.62657 15.9258 7.24861 15.9258 6.7838C15.9258 6.319 16.3037 5.94104 16.7685 5.94104C17.2333 5.94104 17.6113 6.319 17.6113 6.7838Z" fill="white"/>
<path d="M15.3951 6.00609C15.3951 6.4709 15.0172 6.84886 14.5524 6.84886C14.0876 6.84886 13.7095 6.47223 13.7095 6.00609C13.7095 5.53996 14.0874 5.16333 14.5522 5.16333C15.017 5.16333 15.3951 5.54142 15.3951 6.00609Z" fill="white"/>
<path d="M21.3695 17.9484C24.4723 17.9484 26.9876 15.4331 26.9876 12.3304C26.9876 9.22758 24.4723 6.71228 21.3695 6.71228C18.2668 6.71228 15.7515 9.22758 15.7515 12.3304C15.7515 15.4331 18.2668 17.9484 21.3695 17.9484Z" fill="#68B346" stroke="white"/>
<path d="M13.6732 28.3827C16.2118 28.3827 18.2698 26.3248 18.2698 23.7861C18.2698 21.2475 16.2118 19.1896 13.6732 19.1896C11.1346 19.1896 9.07666 21.2475 9.07666 23.7861C9.07666 26.3248 11.1346 28.3827 13.6732 28.3827Z" fill="#68B346" stroke="white"/>
<path d="M9.8886 9.74607C11.581 9.74607 12.953 8.3741 12.953 6.68169C12.953 4.98928 11.581 3.61731 9.8886 3.61731C8.19619 3.61731 6.82422 4.98928 6.82422 6.68169C6.82422 8.3741 8.19619 9.74607 9.8886 9.74607Z" fill="#68B346" stroke="white"/>
</g>
<defs>
<filter id="filter0_b_530_916" x="-30" y="-30" width="92" height="92" filterUnits="userSpaceOnUse" color-interpolation-filters="sRGB">
<feFlood flood-opacity="0" result="BackgroundImageFix"/>
<feGaussianBlur in="BackgroundImageFix" stdDeviation="15"/>
<feComposite in2="SourceAlpha" operator="in" result="effect1_backgroundBlur_530_916"/>
<feBlend mode="normal" in="SourceGraphic" in2="effect1_backgroundBlur_530_916" result="shape"/>
</filter>
</defs>
</svg>
