<svg width="22" height="20" viewBox="0 0 22 20" fill="none" xmlns="http://www.w3.org/2000/svg">
<path d="M11.0001 11.88C12.0305 11.88 12.8657 11.0303 12.8657 9.98216C12.8657 8.934 12.0305 8.0843 11.0001 8.0843C9.96979 8.0843 9.13453 8.934 9.13453 9.98216C9.13453 11.0303 9.96979 11.88 11.0001 11.88Z" stroke="#00D8FF"/>
<path fill-rule="evenodd" clip-rule="evenodd" d="M11.0002 6.12342C13.505 6.12342 15.8319 6.48906 17.5864 7.1035C19.7003 7.84385 21 8.96603 21 9.98216C21 11.041 19.6226 12.2332 17.3525 12.9983C15.6363 13.5768 13.3779 13.8787 11.0002 13.8787C8.56236 13.8787 6.25389 13.5953 4.51834 12.992C2.32255 12.2285 1 11.0209 1 9.98216C1 8.97427 2.24096 7.86076 4.32515 7.12155C6.08617 6.49696 8.47054 6.12342 10.9998 6.12342H11.0002Z" stroke="#00D8FF"/>
<path fill-rule="evenodd" clip-rule="evenodd" d="M7.69811 8.06391C8.94948 5.85656 10.4232 3.98863 11.823 2.74944C13.5095 1.25641 15.1144 0.671701 15.9796 1.17928C16.8813 1.70827 17.2084 3.51775 16.7259 5.90041C16.3614 7.70184 15.49 9.84283 14.3021 11.9382C13.0842 14.0865 11.6897 15.9793 10.309 17.207C8.56191 18.7606 6.87284 19.3228 5.98833 18.8039C5.13004 18.3008 4.80182 16.6506 5.21356 14.4446C5.56145 12.5806 6.43451 10.2928 7.69771 8.06388L7.69811 8.06391Z" stroke="#00D8FF"/>
<path fill-rule="evenodd" clip-rule="evenodd" d="M7.70124 11.9438C6.44634 9.73898 5.59195 7.50678 5.23532 5.65428C4.80602 3.42226 5.10955 1.71572 5.97401 1.20667C6.87485 0.676128 8.57921 1.29156 10.3674 2.90678C11.7194 4.12796 13.1077 5.96491 14.299 8.05831C15.5204 10.2046 16.4358 12.379 16.7919 14.2089C17.2425 16.5247 16.8778 18.294 15.9941 18.8144C15.1367 19.3194 13.5676 18.7848 11.8945 17.3201C10.4809 16.0827 8.96852 14.1706 7.70124 11.9438Z" stroke="#00D8FF"/>
</svg>
