<svg width="31" height="32" viewBox="0 0 31 32" fill="none" xmlns="http://www.w3.org/2000/svg">
<g filter="url(#filter0_b_530_907)">
<rect width="31" height="32" rx="15.5" fill="white"/>
<rect x="0.5" y="0.5" width="30" height="31" rx="15" stroke="white"/>
<path d="M21.8925 9.12577C22.541 9.29454 23.1303 9.67442 23.586 10.2175C23.837 10.5114 24.055 10.8385 24.2351 11.1916C24.2435 11.2299 23.0665 12.1145 22.3526 12.608C22.3267 12.6276 22.2239 12.5023 22.1073 12.3097C21.9769 12.0589 21.7918 11.8492 21.5694 11.7002C21.3469 11.5512 21.0943 11.4677 20.8351 11.4575C20.0146 11.3944 19.4859 11.875 19.4897 12.6787C19.4827 12.8761 19.5229 13.0721 19.6063 13.2463C19.7869 13.6639 20.122 13.9144 21.1749 14.4249C23.1129 15.3581 23.9448 15.9734 24.4583 16.8478C24.7485 17.4002 24.9273 18.017 24.982 18.6549C25.0368 19.2928 24.9662 19.9363 24.7752 20.5405C24.5127 21.203 24.0965 21.7749 23.5698 22.1968C23.0431 22.6186 22.425 22.8751 21.7798 22.9395C21.0939 23.0275 20.4009 23.0195 19.7168 22.9156C18.6689 22.723 17.7036 22.1604 16.9621 21.31C16.6819 20.9571 16.4447 20.5642 16.2566 20.1416C16.3357 20.0758 16.4189 20.0166 16.5057 19.9644C16.6261 19.8877 17.0817 19.5945 17.5113 19.3158L18.2914 18.8045L18.4544 19.0704C18.729 19.5097 19.0785 19.8839 19.4829 20.1715C19.8912 20.422 20.3538 20.5408 20.819 20.5144C21.2841 20.4881 21.7336 20.3177 22.1172 20.0223C22.3151 19.8065 22.4389 19.5197 22.4667 19.2121C22.4946 18.9046 22.4248 18.5958 22.2696 18.34C22.0593 18.0034 21.6297 17.7205 20.4085 17.1282C19.4509 16.767 18.5788 16.1683 17.8572 15.3768C17.5135 14.9388 17.2598 14.4219 17.1137 13.8624C17.0056 13.2251 16.9897 12.5725 17.0664 11.9296C17.2098 11.1897 17.553 10.517 18.0496 10.0027C18.5461 9.48836 19.172 9.15723 19.8425 9.05418C20.5252 8.96292 21.2162 8.98705 21.8925 9.12577ZM15.5367 10.3896L15.5451 11.6288H12.0179V22.8338H9.53057V11.6313H6.00338V10.4143C5.994 9.99757 6.00417 9.58054 6.03385 9.16497C6.0468 9.14537 8.1913 9.13599 10.7914 9.14111L15.523 9.1556L15.5367 10.3896Z" fill="#007ACC"/>
</g>
<defs>
<filter id="filter0_b_530_907" x="-30" y="-30" width="91" height="92" filterUnits="userSpaceOnUse" color-interpolation-filters="sRGB">
<feFlood flood-opacity="0" result="BackgroundImageFix"/>
<feGaussianBlur in="BackgroundImageFix" stdDeviation="15"/>
<feComposite in2="SourceAlpha" operator="in" result="effect1_backgroundBlur_530_907"/>
<feBlend mode="normal" in="SourceGraphic" in2="effect1_backgroundBlur_530_907" result="shape"/>
</filter>
</defs>
</svg>
