<svg width="32" height="32" viewBox="0 0 32 32" fill="none" xmlns="http://www.w3.org/2000/svg">
<g filter="url(#filter0_b_530_971)">
<rect width="32" height="32" rx="16" fill="white"/>
<rect x="0.5" y="0.5" width="31" height="31" rx="15.5" stroke="white"/>
<path d="M10.8241 5.11023C10.163 5.11163 9.51585 5.48689 9.18305 6.05937L4.00694 15.0508C3.67933 15.6249 3.67933 16.3751 4.00694 16.9491L9.18305 25.9406C9.51589 26.5131 10.163 26.8885 10.8241 26.8898H21.1763C21.8374 26.8884 22.4845 26.5131 22.8173 25.9406L27.9934 16.9491C28.321 16.3751 28.321 15.6249 27.9934 15.0508L22.8173 6.05937C22.4845 5.48689 21.8374 5.11153 21.1763 5.11023H10.8241ZM10.918 10.3704C10.9323 10.369 10.9472 10.369 10.9614 10.3704H12.747C12.8261 10.372 12.9027 10.4177 12.9422 10.4863L15.9713 15.8841C15.9865 15.9108 15.9963 15.9405 16.0001 15.971C16.0038 15.9405 16.0136 15.9107 16.0289 15.8841L19.0507 10.4863C19.0914 10.4156 19.1716 10.3697 19.253 10.3704H21.0386C21.1968 10.3718 21.3152 10.5709 21.2411 10.7109L18.2844 16L21.2411 21.2819C21.3222 21.4226 21.2009 21.631 21.0386 21.6296H19.253C19.1702 21.6289 19.0895 21.5798 19.0507 21.5065L16.0289 16.1087C16.0136 16.082 16.0038 16.0522 16.0001 16.0217C15.9963 16.0523 15.9865 16.082 15.9713 16.1087L12.9422 21.5065C12.9045 21.5777 12.8275 21.6264 12.747 21.6296H10.9614C10.7992 21.631 10.6779 21.4226 10.759 21.2819L13.7157 16L10.759 10.7109C10.6882 10.5832 10.7746 10.3976 10.918 10.3704Z" fill="#3498DB"/>
</g>
<defs>
<filter id="filter0_b_530_971" x="-30" y="-30" width="92" height="92" filterUnits="userSpaceOnUse" color-interpolation-filters="sRGB">
<feFlood flood-opacity="0" result="BackgroundImageFix"/>
<feGaussianBlur in="BackgroundImageFix" stdDeviation="15"/>
<feComposite in2="SourceAlpha" operator="in" result="effect1_backgroundBlur_530_971"/>
<feBlend mode="normal" in="SourceGraphic" in2="effect1_backgroundBlur_530_971" result="shape"/>
</filter>
</defs>
</svg>
