<svg width="32" height="32" viewBox="0 0 32 32" fill="none" xmlns="http://www.w3.org/2000/svg">
<g filter="url(#filter0_b_530_948)">
<rect width="32" height="32" rx="16" fill="white"/>
<path d="M3.42822 18.5668C3.97842 18.7646 4.51007 18.9501 5.03554 19.1355C5.29518 19.2283 5.38791 19.185 5.48064 18.9254C5.64756 18.4679 5.80829 18.0104 5.98139 17.5406C6.17921 17.9424 6.43267 18.2948 6.74795 18.5977C7.56398 19.3766 8.54073 19.7476 9.66585 19.6734C10.3459 19.6301 10.9517 19.3457 11.5019 18.9563C12.0336 18.5853 12.4725 18.1279 12.8681 17.6148C12.9609 17.4911 13.0474 17.4355 13.2143 17.4602C13.6841 17.5282 14.154 17.5715 14.6238 17.6271C14.7722 17.6457 14.8525 17.7322 14.8402 17.8868C14.8031 18.2577 14.7598 18.6286 14.7227 18.9995C14.6918 19.2715 14.6547 19.5497 14.63 19.8217C14.6176 19.9454 14.5805 20.0381 14.4878 20.1308C13.7212 20.885 12.8743 21.528 11.8852 21.9731C10.9084 22.412 9.89459 22.5975 8.8251 22.4676C6.60577 22.2018 4.92427 21.1076 3.75587 19.2097C3.65077 19.0366 3.56423 18.8574 3.4715 18.6781C3.45295 18.6472 3.44677 18.6224 3.42822 18.5668Z" fill="#7FADDB"/>
<path d="M14.389 12.0015C14.0304 12.0015 13.6842 12.0015 13.3318 12.0015C13.1155 12.0015 12.8929 11.9953 12.6766 11.9891C12.4911 11.9891 12.4045 12.0695 12.3984 12.2611C12.386 12.7495 12.3798 13.2441 12.3675 13.7325C12.3675 13.7696 12.3613 13.8066 12.3613 13.8685C12.2191 13.7139 12.0955 13.5717 11.9656 13.4419C10.8096 12.3044 9.45574 11.983 7.91642 12.4713C7.29822 12.6692 6.7913 13.0524 6.38947 13.5655C6.32765 13.6459 6.25965 13.683 6.16074 13.6954C5.68472 13.751 5.21489 13.8128 4.73888 13.8746C4.5596 13.8994 4.45451 13.8252 4.42978 13.6397C4.35559 13.0524 4.28141 12.4652 4.20723 11.8779C4.20104 11.8284 4.21959 11.7666 4.25668 11.7233C4.97998 10.8331 5.88255 10.2025 6.97058 9.83163C8.20698 9.41743 9.46192 9.36798 10.7292 9.67089C12.0274 9.97999 13.1278 10.6415 14.0428 11.6059C14.1541 11.7233 14.2591 11.8346 14.3642 11.952C14.3704 11.9706 14.3766 11.983 14.389 12.0015Z" fill="#7FADDB"/>
<path d="M3.91026 12.2056C3.9659 12.6507 4.02153 13.071 4.07099 13.4852C4.09572 13.6645 4.11426 13.8438 4.13899 14.0169C4.16372 14.2147 4.26263 14.2827 4.45427 14.258C4.94883 14.1962 5.44339 14.1343 5.94413 14.0663C5.97504 14.0602 6.00595 14.0602 6.04923 14.054C5.98123 14.2209 5.90704 14.3693 5.8514 14.53C5.57321 15.3151 5.53612 16.1064 5.75249 16.9101C5.77104 16.9719 5.76486 17.0522 5.74631 17.1079C5.58558 17.5715 5.41866 18.0352 5.25175 18.4927C5.17138 18.7214 5.07247 18.7708 4.84374 18.6905C4.343 18.5112 3.83607 18.3319 3.33533 18.1526C3.27969 18.1341 3.22406 18.0785 3.20551 18.029C2.56258 16.0075 2.76659 14.0849 3.8608 12.2612C3.86698 12.2612 3.87935 12.2488 3.91026 12.2056Z" fill="#7FADDB"/>
<path d="M16.0083 18.3566C16.4039 17.8682 16.7934 17.3798 17.1891 16.8976C17.4116 16.6256 17.6342 16.3598 17.8567 16.0878C18.2771 16.5761 18.6975 17.0645 19.1055 17.5591C19.5135 18.0475 19.9277 18.5297 20.4902 18.9191C20.2615 18.9377 20.0761 18.95 19.8906 18.9624C19.4208 18.9871 18.9447 19.0119 18.4749 19.0366C18.2462 19.0489 18.172 19.1293 18.1844 19.3642C18.2091 19.8341 18.24 20.2977 18.2647 20.7984C18.2029 20.749 18.1658 20.7181 18.1287 20.6872C17.4549 20.1184 16.8861 19.4508 16.3421 18.7646C16.2309 18.6286 16.1196 18.4926 16.0083 18.3566Z" fill="#7FADDB"/>
<path d="M15.9959 13.8871C15.5693 14.394 15.1366 14.9071 14.71 15.414C14.5369 15.618 14.3576 15.822 14.1783 16.0322C13.894 15.686 13.6034 15.3398 13.3129 14.9936C13.1398 14.7835 12.9481 14.5918 12.775 14.3816C12.7318 14.3322 12.707 14.2518 12.707 14.1838C12.7132 13.6583 12.7256 13.1329 12.7379 12.6074C12.7441 12.4158 12.8307 12.3292 13.0285 12.3354C13.5601 12.3478 14.0856 12.3539 14.6173 12.3725C14.6729 12.3725 14.7409 12.4096 14.778 12.4528C15.186 12.9165 15.5878 13.4049 15.9959 13.8871Z" fill="#7FADDB"/>
<path d="M29.0649 14.7216C28.83 13.1513 28.1005 11.8407 26.858 10.8331C26.6231 10.6414 26.3696 10.4869 26.0976 10.2891C26.1099 10.3632 26.1099 10.388 26.1161 10.4127C26.215 11 26.3201 11.5873 26.419 12.1746C26.45 12.3662 26.3881 12.4528 26.1965 12.4899C26.0049 12.5269 25.807 12.5579 25.6154 12.5949C25.3248 12.6444 25.0281 12.6939 24.719 12.7495C24.7499 12.7804 24.7623 12.7866 24.7685 12.7928C25.6772 13.3801 26.1965 14.2146 26.3449 15.2717C26.555 16.7245 26.079 17.9238 24.9415 18.8635C24.8735 18.9191 24.8117 18.9995 24.787 19.0737C24.6448 19.5373 24.5212 20.0072 24.3914 20.477C24.3419 20.6624 24.4037 20.7675 24.5892 20.8232C25.1146 20.9715 25.6339 21.1137 26.1594 21.2683C26.283 21.3054 26.3696 21.293 26.4685 21.2126C28.5951 19.5621 29.4606 17.386 29.0649 14.7216ZM27.7914 17.114C27.7976 17.114 27.8038 17.1078 27.81 17.1078C27.7976 17.1078 27.7976 17.1078 27.7914 17.114C27.7914 17.114 27.7853 17.114 27.7853 17.1202C27.7853 17.114 27.7853 17.114 27.7914 17.114Z" fill="#F9AF29"/>
<path d="M19.4208 12.0633C18.8706 12.0262 18.3204 11.9953 17.7702 11.9582C17.6836 11.952 17.6342 11.9767 17.5785 12.0386C17.3374 12.3291 17.0902 12.6135 16.8491 12.8979C16.5647 13.2255 16.2803 13.5532 15.996 13.8808C15.5694 14.3877 15.1367 14.9008 14.7101 15.4077C14.537 15.6118 14.3577 15.8158 14.1785 16.0259C13.8817 16.3845 13.585 16.7431 13.2759 17.114C13.3501 17.1263 13.3995 17.1325 13.449 17.1387C13.9559 17.1943 14.4566 17.25 14.9636 17.3056C15.1552 17.3303 15.2356 17.4169 15.2108 17.6147C15.1676 18.0104 15.1243 18.406 15.081 18.8017C15.0563 19.0489 15.0254 19.2962 14.9945 19.5868C15.0501 19.525 15.081 19.494 15.1057 19.4631C15.4087 19.0922 15.7116 18.7275 16.0145 18.3566C16.4101 17.8682 16.7996 17.3798 17.1953 16.8976C17.4178 16.6256 17.6404 16.3598 17.8629 16.0878C17.8753 16.063 17.8876 16.0445 17.9062 16.0198C18.444 15.3583 18.9819 14.703 19.5135 14.0415C19.5506 13.9921 19.5877 13.9303 19.5939 13.8684C19.631 13.3615 19.6557 12.8546 19.6866 12.3477C19.6928 12.1622 19.6124 12.0757 19.4208 12.0633ZM15.5076 16.6751C15.5138 16.6689 15.5138 16.6627 15.5199 16.6627C15.5138 16.6627 15.5076 16.6689 15.5076 16.6751ZM16.9356 14.8576C16.948 14.8328 16.9542 14.8081 16.9665 14.7834C16.9603 14.8081 16.948 14.8328 16.9356 14.8576ZM17.6775 14.6165C17.6651 14.6226 17.6465 14.635 17.6342 14.6412C17.6465 14.6288 17.6651 14.6226 17.6775 14.6165Z" fill="#F9AF29"/>
<path d="M26.0107 11.8285C25.918 11.2906 25.8314 10.759 25.7325 10.2211C25.7202 10.1655 25.6769 10.0975 25.6274 10.079C25.2627 9.94295 24.9041 9.77603 24.527 9.69567C22.3262 9.19492 20.3295 9.63385 18.5676 11.0619C18.3636 11.2288 18.1781 11.4204 17.9556 11.6244C18.0545 11.6306 18.1101 11.6368 18.1658 11.643C18.7098 11.6739 19.26 11.7048 19.804 11.7419C19.9709 11.7543 20.0451 11.8408 20.0451 12.0077C20.0451 12.051 20.0389 12.0943 20.0389 12.1376C20.008 12.595 19.9833 13.0525 19.9524 13.5161C19.9709 13.5161 19.9771 13.5161 19.9833 13.51C20.0018 13.4976 20.0142 13.479 20.0327 13.4667C21.2011 12.2983 22.5673 11.983 24.1376 12.4776C24.1747 12.4899 24.2241 12.4961 24.2612 12.4899C24.7496 12.4096 25.238 12.3292 25.7263 12.2426C26.0169 12.1932 26.0602 12.119 26.0107 11.8285ZM22.0913 11.1361C22.0851 11.1361 22.0728 11.1299 22.0666 11.1237C22.0728 11.1299 22.079 11.1299 22.0913 11.1361ZM23.8656 11.2906C23.8717 11.2844 23.8779 11.2844 23.8841 11.2783C23.8779 11.2844 23.8717 11.2906 23.8656 11.2906Z" fill="#F9AF29"/>
<path d="M25.9122 21.5712C25.8751 21.5589 25.838 21.5465 25.8009 21.5342C25.263 21.3796 24.719 21.2312 24.1812 21.0767C23.9957 21.0272 23.9339 20.9221 23.9834 20.7305C24.0328 20.5512 24.0823 20.3781 24.1317 20.1988C24.2183 19.8836 24.311 19.5683 24.4038 19.2283C24.3481 19.253 24.3172 19.2654 24.2925 19.2777C23.2106 19.7847 22.135 19.8279 21.0531 19.2715C21.0098 19.2468 20.9542 19.2345 20.9047 19.2345C20.2062 19.2715 19.5138 19.3086 18.8152 19.3457C18.6112 19.3581 18.5309 19.4508 18.5432 19.6486C18.5679 20.0937 18.5927 20.5327 18.6112 20.9778C18.6174 21.0643 18.6421 21.1138 18.7163 21.1571C19.0811 21.3796 19.4272 21.6207 19.8043 21.8247C20.6327 22.2636 21.5168 22.5109 22.4626 22.5233C23.2848 22.5295 24.0761 22.3996 24.8427 22.1029C25.2136 21.9607 25.566 21.7814 25.9245 21.6145C25.9183 21.596 25.9122 21.5836 25.9122 21.5712ZM20.1691 20.3658C20.1691 20.3781 20.1691 20.3843 20.1691 20.3967C20.1691 20.3843 20.1691 20.3719 20.1691 20.3658C20.1691 20.3596 20.1691 20.3472 20.1691 20.3348C20.1629 20.3472 20.1691 20.3534 20.1691 20.3658ZM19.9774 20.5203C19.9836 20.5265 19.9898 20.5389 19.996 20.545C19.9898 20.5327 19.9836 20.5265 19.9774 20.5203C19.928 20.5636 19.8785 20.6069 19.8229 20.6439C19.8785 20.6007 19.928 20.5574 19.9774 20.5203Z" fill="#F9AF29"/>
</g>
<defs>
<filter id="filter0_b_530_948" x="-30" y="-30" width="92" height="92" filterUnits="userSpaceOnUse" color-interpolation-filters="sRGB">
<feFlood flood-opacity="0" result="BackgroundImageFix"/>
<feGaussianBlur in="BackgroundImageFix" stdDeviation="15"/>
<feComposite in2="SourceAlpha" operator="in" result="effect1_backgroundBlur_530_948"/>
<feBlend mode="normal" in="SourceGraphic" in2="effect1_backgroundBlur_530_948" result="shape"/>
</filter>
</defs>
</svg>
