<svg width="32" height="32" viewBox="0 0 32 32" fill="none" xmlns="http://www.w3.org/2000/svg">
<g filter="url(#filter0_b_530_946)">
<rect width="32" height="32" rx="16" fill="white"/>
<path d="M15.9989 5C9.64609 5 4.5 9.99801 4.5 16.168C4.5 21.4165 8.20832 25.7727 13.2104 27C13.1524 26.8602 13.1245 26.665 13.1245 26.4698V24.5704H11.6867C10.9109 24.5704 10.1909 24.2354 9.87498 23.6207C9.50103 22.9507 9.443 21.9175 8.49523 21.2746C8.20725 21.0512 8.43721 20.8279 8.75313 20.855C9.35704 21.022 9.84489 21.4144 10.3048 21.9999C10.7647 22.5864 10.9667 22.7263 11.8285 22.7263C12.2304 22.7263 12.8633 22.6991 13.4382 22.6146C13.7542 21.8319 14.3 21.1347 14.962 20.7997C11.1118 20.353 9.27214 18.511 9.27214 15.9979C9.27214 14.9083 9.76 13.8751 10.5659 12.9818C10.308 12.1156 9.96202 10.3288 10.6809 9.63169C12.4067 9.63169 13.4404 10.7213 13.6994 10.9999C14.5612 10.7202 15.5111 10.5532 16.4879 10.5532C17.4936 10.5532 18.4135 10.7202 19.2763 10.9999C19.5342 10.7202 20.5701 9.63169 22.2948 9.63169C22.9847 10.3017 22.6688 12.1166 22.3808 12.9818C23.1867 13.848 23.6466 14.9083 23.6466 15.9979C23.6466 18.511 21.8349 20.3541 18.0127 20.7444C19.0765 21.2746 19.8244 22.7826 19.8244 23.8993V26.4427C19.8244 26.5262 19.7964 26.6097 19.7964 26.6932C24.2806 25.1861 27.5 21.0544 27.5 16.168C27.4979 9.99696 22.3518 5 15.9989 5Z" fill="black"/>
</g>
<defs>
<filter id="filter0_b_530_946" x="-30" y="-30" width="92" height="92" filterUnits="userSpaceOnUse" color-interpolation-filters="sRGB">
<feFlood flood-opacity="0" result="BackgroundImageFix"/>
<feGaussianBlur in="BackgroundImageFix" stdDeviation="15"/>
<feComposite in2="SourceAlpha" operator="in" result="effect1_backgroundBlur_530_946"/>
<feBlend mode="normal" in="SourceGraphic" in2="effect1_backgroundBlur_530_946" result="shape"/>
</filter>
</defs>
</svg>
