<svg width="32" height="32" viewBox="0 0 32 32" fill="none" xmlns="http://www.w3.org/2000/svg">
<g filter="url(#filter0_b_530_959)">
<rect width="32" height="32" rx="16" fill="white"/>
<path d="M6.5249 8.76702C8.86981 8.72404 11.1049 9.21117 13.2349 10.1663C16.917 11.8187 19.6631 14.4645 21.4206 18.1037C22.4665 20.2767 23.0157 22.5738 22.9536 24.9999C22.5954 24.9999 22.2372 24.9999 21.879 24.9999C21.8981 21.3225 20.6851 18.0798 18.3163 15.286C15.938 12.4778 12.9101 10.749 9.29008 10.0756C8.37791 9.90366 7.45618 9.81292 6.52968 9.8368C6.5249 9.48339 6.5249 9.12521 6.5249 8.76702Z" fill="#479DD3"/>
<path d="M19.1567 7C19.682 7.43937 20.2742 7.77845 20.8043 8.21305C22.6716 9.73175 24.1665 11.5465 25.2553 13.6956C25.3222 13.8246 25.3986 13.9488 25.475 14.0777C25.475 14.1207 25.475 14.1637 25.475 14.2019C24.8542 14.5266 24.8542 14.5266 24.5342 13.901C23.2591 11.4224 21.4395 9.43565 19.1185 7.90262C18.6839 7.61608 18.6839 7.61608 18.9179 7.15282C18.9418 7.10507 18.9513 7.05253 18.9704 7.00478C19.0325 7 19.0946 7 19.1567 7Z" fill="#479DD3"/>
<path d="M24.4818 19.0062C24.5152 19.1638 24.477 19.2307 24.3767 19.2594C24.1952 19.3071 24.0089 19.3596 23.8227 19.3931C23.5935 19.4361 23.6078 19.2355 23.5744 19.1065C23.3117 18.1275 22.9678 17.1771 22.4998 16.2793C20.5417 12.4969 17.5378 9.90838 13.5309 8.48042C13.4736 8.46132 13.4115 8.44221 13.3494 8.41834C12.7906 8.23208 12.805 8.23686 12.9721 7.67331C13.0485 7.4202 13.1632 7.40109 13.3876 7.47273C15.04 7.98374 16.5778 8.73831 17.9867 9.73645C20.3794 11.4271 22.2371 13.5857 23.4979 16.2411C23.8943 17.0816 24.2 17.9556 24.4483 18.8486C24.4674 18.9251 24.4818 18.9967 24.4818 19.0062Z" fill="#479DD3"/>
</g>
<defs>
<filter id="filter0_b_530_959" x="-30" y="-30" width="92" height="92" filterUnits="userSpaceOnUse" color-interpolation-filters="sRGB">
<feFlood flood-opacity="0" result="BackgroundImageFix"/>
<feGaussianBlur in="BackgroundImageFix" stdDeviation="15"/>
<feComposite in2="SourceAlpha" operator="in" result="effect1_backgroundBlur_530_959"/>
<feBlend mode="normal" in="SourceGraphic" in2="effect1_backgroundBlur_530_959" result="shape"/>
</filter>
</defs>
</svg>
