<svg width="85" height="49" viewBox="0 0 85 49" fill="none" xmlns="http://www.w3.org/2000/svg">
<g clip-path="url(#clip0_367_1052)">
<g clip-path="url(#clip1_367_1052)">
<path d="M0.819824 45.1747C0.819824 42.9477 2.53799 41.3518 4.83051 41.3518C6.10686 41.3518 7.17457 41.8159 7.87166 42.6605L6.77449 43.6745C6.54888 43.4007 6.26496 43.1808 5.94349 43.0308C5.62202 42.8809 5.27111 42.8047 4.91642 42.8078C4.28952 42.8078 3.68831 43.0569 3.24503 43.5003C2.80175 43.9437 2.55271 44.5451 2.55271 45.1722C2.55271 45.7993 2.80175 46.4007 3.24503 46.8441C3.68831 47.2875 4.28952 47.5367 4.91642 47.5367C5.27224 47.5407 5.62435 47.4639 5.94621 47.3121C6.26806 47.1603 6.55127 46.9373 6.77449 46.6601L7.87166 47.6741C7.17457 48.5286 6.10931 48.9951 4.82069 48.9951C2.52817 48.9975 0.819824 47.4041 0.819824 45.1747Z" fill="white"/>
<path d="M9.45215 45.1747C9.45215 42.9797 11.1703 41.3518 13.4947 41.3518C15.8192 41.3518 17.5373 42.9674 17.5373 45.1747C17.5373 47.382 15.8192 48.9975 13.4947 48.9975C11.1703 48.9975 9.45215 47.3722 9.45215 45.1747ZM15.8044 45.1747C15.8044 43.7703 14.8226 42.8102 13.4923 42.8102C12.1619 42.8102 11.1801 43.7703 11.1801 45.1747C11.1801 46.5791 12.1619 47.5391 13.4923 47.5391C14.8226 47.5391 15.8044 46.5791 15.8044 45.1747Z" fill="white"/>
<path d="M26.6534 41.4795V48.8699H25.2494L21.5676 44.3816V48.8699H19.8789V41.4795H21.2927L24.9745 45.9677V41.4795H26.6534Z" fill="white"/>
<path d="M28.8799 48.1431L29.4591 46.8541C30.1752 47.3516 31.0247 47.6212 31.8965 47.6275C32.9102 47.6275 33.3226 47.2887 33.3226 46.8345C33.3226 45.4497 29.0272 46.3999 29.0272 43.6549C29.0272 42.4002 30.0409 41.3567 32.1419 41.3567C33.0407 41.3369 33.9278 41.5636 34.7069 42.0123L34.1792 43.3111C33.5583 42.9443 32.8531 42.7447 32.1321 42.7317C31.1184 42.7317 30.7281 43.1123 30.7281 43.5763C30.7281 44.939 35.0235 43.9986 35.0235 46.7117C35.0235 47.9393 34 49.0025 31.8891 49.0025C30.7183 48.9976 29.5352 48.6489 28.8799 48.1431Z" fill="white"/>
<path d="M37.186 45.6166V41.4795H38.9042V45.5553C38.9042 46.9597 39.5154 47.5391 40.5512 47.5391C41.587 47.5391 42.1982 46.9597 42.1982 45.5553V41.4795H43.8869V45.6166C43.8869 47.792 42.6424 48.9951 40.5414 48.9951C38.4403 48.9951 37.186 47.7945 37.186 45.6166Z" fill="white"/>
<path d="M46.6211 41.4795H48.3393V47.4753H52.0431V48.8699H46.6211V41.4795Z" fill="white"/>
<path d="M54.8954 42.8741H52.5317V41.4795H58.9699V42.8741H56.6062V48.8723H54.8881L54.8954 42.8741Z" fill="white"/>
<path d="M65.4375 47.2887H62.0011L61.3458 48.8723H59.5933L62.8872 41.4819H64.5907L67.8944 48.8723H66.1002L65.4375 47.2887ZM64.8999 45.9898L63.7291 43.1613L62.5583 45.9898H64.8999Z" fill="white"/>
<path d="M76.4879 41.4795V48.8699H75.0839L71.4021 44.3816V48.8699H69.7134V41.4795H71.1272L74.809 45.9677V41.4795H76.4879Z" fill="white"/>
<path d="M80.8246 42.8741H78.4609V41.4795H84.8991V42.8741H82.5354V48.8723H80.8173L80.8246 42.8741Z" fill="white"/>
<path d="M4.36413 0C6.7622 0 8.72827 2.01333 8.72827 4.50789C8.72827 7.00246 6.76465 9.01578 4.36413 9.01578C1.96362 9.01578 0 7.00246 0 4.50789C0 2.01333 1.96607 0 4.36413 0ZM0.773174 11.9425H7.96492V36.2497H0.773174V11.9425Z" fill="white"/>
<path d="M11.6025 11.9425H18.7943V16.8899C21.0475 13.3396 23.5413 11.9499 27.1396 11.9499C34.2848 11.9499 41.2384 16.6984 41.2384 23.2687V36.2129H34.0467V26.2838C34.0467 22.1589 30.1636 19.1365 27.1421 19.1365C22.778 19.1365 18.7967 22.7826 18.7967 27.6735V36.2105H11.605V11.9425H11.6025Z" fill="white"/>
<path d="M48.4843 0C50.8823 0 52.8484 2.01333 52.8484 4.50789C52.8484 7.00246 50.8848 9.01578 48.4843 9.01578C46.0837 9.01578 44.1201 7.00246 44.1201 4.50789C44.1201 2.01333 46.0862 0 48.4843 0ZM44.8859 11.9425H52.0728V36.2497H44.881L44.8859 11.9425Z" fill="white"/>
<path d="M73.2527 31.376V36.1736C69.08 36.1736 60.0179 36.4191 60.0179 29.9863V19.0996H55.7544V11.9425H60.0228V0H67.2145V11.9425H74.1142V19.0996H67.2096V28.2603C67.2121 30.7941 71.672 31.4177 73.2527 31.376Z" fill="white"/>
<path d="M84.9999 19.1168H77.7959V11.9425H84.9999V19.1168Z" fill="#12B2E7"/>
<path d="M77.8599 20.4966V27.1627H81.3723C81.3723 27.1627 82.1725 31.98 77.8599 31.4644L77.7617 36.1294C77.7617 36.1294 84.4356 37.0428 85.0001 29.1024V20.5728L77.8599 20.4966Z" fill="#12B2E7"/>
</g>
</g>
<defs>
<clipPath id="clip0_367_1052">
<rect width="85" height="49" fill="white"/>
</clipPath>
<clipPath id="clip1_367_1052">
<rect width="85" height="49" fill="white"/>
</clipPath>
</defs>
</svg>
