<svg id="Layer_1" data-name="Layer 1" xmlns="http://www.w3.org/2000/svg" viewBox="0 0 346.3 199.57"><defs><style>.cls-1{fill:#1e1c1c;}.cls-2{fill:#12b2e7;}</style></defs><path class="cls-1" d="M80.19,334.2c0-9.07,7-15.57,16.34-15.57,5.2,0,9.55,1.89,12.39,5.33l-4.47,4.13a9.7,9.7,0,0,0-7.57-3.53,9.63,9.63,0,0,0,0,19.26,9.58,9.58,0,0,0,7.57-3.57l4.47,4.13c-2.84,3.48-7.18,5.38-12.43,5.38C87.15,349.77,80.19,343.28,80.19,334.2Z" transform="translate(-76.85 -150.21)"/><path class="cls-1" d="M115.36,334.2c0-8.94,7-15.57,16.47-15.57s16.47,6.58,16.47,15.57-7,15.57-16.47,15.57S115.36,343.15,115.36,334.2Zm25.88,0c0-5.72-4-9.63-9.42-9.63s-9.42,3.91-9.42,9.63,4,9.63,9.42,9.63S141.24,339.92,141.24,334.2Z" transform="translate(-76.85 -150.21)"/><path class="cls-1" d="M185.44,319.15v30.1h-5.72l-15-18.28v18.28h-6.88v-30.1h5.76l15,18.28V319.15Z" transform="translate(-76.85 -150.21)"/><path class="cls-1" d="M194.51,346.29l2.36-5.25a17.63,17.63,0,0,0,9.93,3.15c4.13,0,5.81-1.38,5.81-3.23,0-5.64-17.5-1.77-17.5-12.95,0-5.11,4.13-9.36,12.69-9.36a20.06,20.06,0,0,1,10.45,2.67l-2.15,5.29a17,17,0,0,0-8.34-2.36c-4.13,0-5.72,1.55-5.72,3.44,0,5.55,17.5,1.72,17.5,12.77,0,5-4.17,9.33-12.77,9.33C202,349.77,197.18,348.35,194.51,346.29Z" transform="translate(-76.85 -150.21)"/><path class="cls-1" d="M228.35,336V319.15h7v16.6c0,5.72,2.49,8.08,6.71,8.08s6.71-2.36,6.71-8.08v-16.6h6.88V336c0,8.86-5.07,13.76-13.63,13.76S228.35,344.87,228.35,336Z" transform="translate(-76.85 -150.21)"/><path class="cls-1" d="M266.79,319.15h7v24.42h15.09v5.68H266.79Z" transform="translate(-76.85 -150.21)"/><path class="cls-1" d="M300.5,324.83h-9.63v-5.68H317.1v5.68h-9.63v24.43h-7Z" transform="translate(-76.85 -150.21)"/><path class="cls-1" d="M343.45,342.81h-14l-2.67,6.45h-7.14l13.42-30.1H340l13.46,30.1h-7.31Zm-2.19-5.29L336.49,326l-4.77,11.52Z" transform="translate(-76.85 -150.21)"/><path class="cls-1" d="M388.47,319.15v30.1h-5.72l-15-18.28v18.28h-6.88v-30.1h5.76l15,18.28V319.15Z" transform="translate(-76.85 -150.21)"/><path class="cls-1" d="M406.14,324.83h-9.63v-5.68h26.23v5.68h-9.63v24.43h-7Z" transform="translate(-76.85 -150.21)"/><path class="cls-1" d="M94.63,150.21c9.77,0,17.78,8.2,17.78,18.36s-8,18.36-17.78,18.36-17.78-8.2-17.78-18.36S84.86,150.21,94.63,150.21ZM80,198.85h29.3v99H80Z" transform="translate(-76.85 -150.21)"/><path class="cls-1" d="M124.12,198.85h29.3V219c9.18-14.46,19.34-20.12,34-20.12,29.11,0,57.44,19.34,57.44,46.1V297.7h-29.3V257.26c0-16.8-15.82-29.11-28.13-29.11-17.78,0-34,14.85-34,34.77v34.77h-29.3V198.85Z" transform="translate(-76.85 -150.21)"/><path class="cls-1" d="M274.38,150.21c9.77,0,17.78,8.2,17.78,18.36s-8,18.36-17.78,18.36-17.78-8.2-17.78-18.36S264.61,150.21,274.38,150.21Zm-14.66,48.64H289v99h-29.3Z" transform="translate(-76.85 -150.21)"/><path class="cls-1" d="M375.29,278v19.54c-17,0-53.92,1-53.92-25.2V228H304V198.85h17.39V150.21h29.3v48.64H378.8V228H350.67v37.31C350.68,275.63,368.85,278.17,375.29,278Z" transform="translate(-76.85 -150.21)"/><path class="cls-2" d="M423.15,228.07H393.8V198.85h29.35Z" transform="translate(-76.85 -150.21)"/><path class="cls-2" d="M394.06,233.69v27.15h14.31s3.26,19.62-14.31,17.52l-.4,19s27.19,3.72,29.49-28.62V234Z" transform="translate(-76.85 -150.21)"/></svg>