<svg width="32" height="32" viewBox="0 0 32 32" fill="none" xmlns="http://www.w3.org/2000/svg">
<g filter="url(#filter0_b_530_1017)">
<rect width="32" height="32" rx="16" fill="white"/>
<rect x="0.5" y="0.5" width="31" height="31" rx="15.5" stroke="white"/>
<g clip-path="url(#clip0_530_1017)">
<path d="M10.1875 7H21.8125C22.2312 6.9996 22.6459 7.08388 23.0328 7.24803C23.4197 7.41218 23.7712 7.65298 24.0673 7.95663C24.3633 8.26029 24.5981 8.62085 24.7582 9.01767C24.9182 9.4145 25.0004 9.8398 25 10.2692V21.7308C25.0004 22.1602 24.9182 22.5855 24.7582 22.9823C24.5981 23.3792 24.3633 23.7397 24.0673 24.0434C23.7712 24.347 23.4197 24.5878 23.0328 24.752C22.6459 24.9161 22.2312 25.0004 21.8125 25H10.1875C9.7688 25.0004 9.35413 24.9161 8.96723 24.752C8.58033 24.5878 8.22878 24.347 7.93272 24.0434C7.63665 23.7397 7.40188 23.3792 7.24183 22.9823C7.08178 22.5855 6.99961 22.1602 7 21.7308V10.2692C6.99961 9.8398 7.08178 9.4145 7.24183 9.01767C7.40188 8.62085 7.63665 8.26029 7.93272 7.95663C8.22878 7.65298 8.58033 7.41218 8.96723 7.24803C9.35413 7.08388 9.7688 6.9996 10.1875 7V7Z" fill="#001E36"/>
<path d="M11.0498 19.6231V11.7077C11.0498 11.6538 11.0723 11.6231 11.1248 11.6231C11.2523 11.6231 11.3723 11.6231 11.5448 11.6154C11.7173 11.6077 11.9123 11.6077 12.1148 11.6C12.3173 11.5923 12.5348 11.5923 12.7673 11.5846C12.9998 11.5769 13.2248 11.5769 13.4498 11.5769C14.0648 11.5769 14.5748 11.6538 14.9948 11.8154C15.3713 11.9465 15.7146 12.162 15.9998 12.4461C16.2415 12.6948 16.4282 12.9939 16.5473 13.3231C16.6608 13.6436 16.7192 13.982 16.7198 14.3231C16.7198 14.9846 16.5698 15.5308 16.2698 15.9615C15.9684 16.3917 15.5476 16.7187 15.0623 16.9C14.5523 17.0923 13.9898 17.1615 13.3748 17.1615C13.1948 17.1615 13.0748 17.1615 12.9998 17.1538C12.9248 17.1461 12.8198 17.1461 12.6773 17.1461V19.6154C12.679 19.628 12.6782 19.6409 12.6749 19.6532C12.6716 19.6655 12.666 19.6771 12.6583 19.6871C12.6506 19.6972 12.641 19.7055 12.6301 19.7117C12.6192 19.7179 12.6072 19.7217 12.5948 19.7231H11.1398C11.0798 19.7231 11.0498 19.6923 11.0498 19.6231ZM12.6848 13.1077V15.6923C12.7898 15.7 12.8873 15.7077 12.9773 15.7077H13.3748C13.6676 15.708 13.9586 15.6613 14.2373 15.5692C14.4764 15.4971 14.69 15.3555 14.8523 15.1615C15.0098 14.9692 15.0848 14.7077 15.0848 14.3692C15.0919 14.1288 15.032 13.8914 14.9123 13.6846C14.7873 13.4849 14.6033 13.3313 14.3873 13.2461C14.1057 13.133 13.8045 13.0807 13.5023 13.0923C13.3073 13.0923 13.1348 13.0923 12.9923 13.1C12.8898 13.0931 12.7869 13.0957 12.6848 13.1077V13.1077Z" fill="#31A8FF"/>
<path d="M21.3997 15.2231C21.1733 15.1008 20.9307 15.0127 20.6797 14.9615C20.404 14.8975 20.1224 14.864 19.8397 14.8615C19.6879 14.8562 19.5362 14.8743 19.3897 14.9154C19.2963 14.9353 19.2134 14.9902 19.1572 15.0692C19.1193 15.1316 19.0986 15.2034 19.0972 15.2769C19.1007 15.3501 19.127 15.4202 19.1722 15.4769C19.2433 15.5624 19.3299 15.633 19.4272 15.6846C19.5997 15.7769 19.7797 15.8615 19.9597 15.9385C20.3649 16.0784 20.7526 16.2669 21.1147 16.5C21.361 16.6588 21.5647 16.8783 21.7072 17.1385C21.8277 17.3839 21.887 17.6561 21.8797 17.9308C21.8858 18.2944 21.7838 18.6512 21.5872 18.9538C21.378 19.2609 21.0861 19.4988 20.7472 19.6385C20.3797 19.8 19.9297 19.8846 19.3897 19.8846C19.0473 19.886 18.7056 19.8525 18.3697 19.7846C18.1052 19.7377 17.8479 19.655 17.6047 19.5385C17.5786 19.525 17.5568 19.504 17.5422 19.478C17.5275 19.4521 17.5206 19.4223 17.5222 19.3923V18.0538C17.5216 18.0407 17.5239 18.0276 17.5292 18.0156C17.5344 18.0035 17.5423 17.9929 17.5522 17.9846C17.5628 17.9783 17.575 17.9756 17.5872 17.977C17.5994 17.9784 17.6108 17.9838 17.6197 17.9923C17.9086 18.167 18.2224 18.2942 18.5497 18.3692C18.8387 18.4464 19.1361 18.4851 19.4347 18.4846C19.7197 18.4846 19.9222 18.4462 20.0572 18.3769C20.1174 18.3484 20.1685 18.3029 20.2043 18.2456C20.2402 18.1884 20.2594 18.1219 20.2597 18.0538C20.2597 17.9462 20.1997 17.8462 20.0797 17.7462C19.9597 17.6462 19.7122 17.5308 19.3447 17.3846C18.9677 17.2484 18.6097 17.0622 18.2797 16.8308C18.0447 16.659 17.85 16.4356 17.7097 16.1769C17.59 15.934 17.5308 15.6644 17.5372 15.3923C17.5383 15.0641 17.6265 14.7423 17.7922 14.4615C17.9827 14.1527 18.2562 13.907 18.5797 13.7538C18.9322 13.5692 19.3747 13.4846 19.9072 13.4846C20.2184 13.4847 20.5292 13.5078 20.8372 13.5538C21.0586 13.5846 21.2754 13.644 21.4822 13.7308C21.5152 13.7428 21.5421 13.7677 21.5572 13.8C21.5659 13.83 21.5709 13.861 21.5722 13.8923V15.1462C21.5723 15.1611 21.569 15.1759 21.5625 15.1892C21.556 15.2026 21.5464 15.2142 21.5347 15.2231C21.4911 15.2392 21.4433 15.2392 21.3997 15.2231Z" fill="#31A8FF"/>
</g>
</g>
<defs>
<filter id="filter0_b_530_1017" x="-30" y="-30" width="92" height="92" filterUnits="userSpaceOnUse" color-interpolation-filters="sRGB">
<feFlood flood-opacity="0" result="BackgroundImageFix"/>
<feGaussianBlur in="BackgroundImageFix" stdDeviation="15"/>
<feComposite in2="SourceAlpha" operator="in" result="effect1_backgroundBlur_530_1017"/>
<feBlend mode="normal" in="SourceGraphic" in2="effect1_backgroundBlur_530_1017" result="shape"/>
</filter>
<clipPath id="clip0_530_1017">
<rect width="18" height="18" fill="white" transform="translate(7 7)"/>
</clipPath>
</defs>
</svg>
