<svg width="31" height="32" viewBox="0 0 31 32" fill="none" xmlns="http://www.w3.org/2000/svg">
<g filter="url(#filter0_b_530_1029)">
<rect width="31" height="32" rx="15.5" fill="white"/>
<rect x="0.5" y="0.5" width="30" height="31" rx="15" stroke="white"/>
<g clip-path="url(#clip0_530_1029)">
<path d="M9.6875 7H21.3125C21.7312 6.9996 22.1459 7.08388 22.5328 7.24803C22.9197 7.41218 23.2712 7.65298 23.5673 7.95663C23.8633 8.26029 24.0981 8.62085 24.2582 9.01767C24.4182 9.4145 24.5004 9.8398 24.5 10.2692V21.7308C24.5004 22.1602 24.4182 22.5855 24.2582 22.9823C24.0981 23.3792 23.8633 23.7397 23.5673 24.0434C23.2712 24.347 22.9197 24.5878 22.5328 24.752C22.1459 24.9161 21.7312 25.0004 21.3125 25H9.6875C9.2688 25.0004 8.85413 24.9161 8.46723 24.752C8.08033 24.5878 7.72878 24.347 7.43272 24.0434C7.13665 23.7397 6.90188 23.3792 6.74183 22.9823C6.58178 22.5855 6.49961 22.1602 6.5 21.7308V10.2692C6.49961 9.8398 6.58178 9.4145 6.74183 9.01767C6.90188 8.62085 7.13665 8.26029 7.43272 7.95663C7.72878 7.65298 8.08033 7.41218 8.46723 7.24803C8.85413 7.08388 9.2688 6.9996 9.6875 7V7Z" fill="#470137"/>
<path d="M15.9649 11.7308L13.7149 15.5385L16.1149 19.577C16.1307 19.6049 16.136 19.6377 16.1299 19.6693C16.1224 19.7001 16.0924 19.677 16.0474 19.6847H14.3299C14.2099 19.6847 14.1274 19.677 14.0749 19.6001C13.9174 19.277 13.7524 18.9616 13.5949 18.6385C13.4374 18.3155 13.2649 18.0001 13.0849 17.6693C12.9049 17.3385 12.7249 17.0078 12.5449 16.6693H12.5299C12.3724 17.0001 12.1999 17.3308 12.0274 17.6616C11.8549 17.9924 11.6824 18.3231 11.5174 18.6462C11.3524 18.9693 11.1724 19.3001 10.9999 19.6155C10.9699 19.6924 10.9099 19.7001 10.8274 19.7001H9.17741C9.14741 19.7001 9.12491 19.7155 9.12491 19.677C9.12156 19.6626 9.12117 19.6476 9.12375 19.6331C9.12633 19.6185 9.13184 19.6046 9.13991 19.5924L11.4724 15.6693L9.19991 11.7231C9.17741 11.6924 9.16991 11.6616 9.18491 11.6462C9.19406 11.6353 9.20566 11.6267 9.21872 11.6214C9.23178 11.616 9.24592 11.614 9.25991 11.6155H10.9624C10.9979 11.6162 11.0331 11.6214 11.0674 11.6308C11.0975 11.6474 11.1232 11.6712 11.1424 11.7001C11.2849 12.0308 11.4499 12.3616 11.6224 12.6924C11.7949 13.0231 11.9749 13.3462 12.1624 13.6693C12.3499 13.9924 12.5074 14.3155 12.6649 14.6462H12.6799C12.8374 14.3078 13.0024 13.977 13.1674 13.6539C13.3324 13.3308 13.5049 13.0078 13.6774 12.6847C13.8499 12.3616 14.0149 12.0308 14.1799 11.7155C14.1856 11.6852 14.2015 11.6579 14.2249 11.6385C14.2546 11.6217 14.2892 11.6163 14.3224 11.6231H15.9049C15.9138 11.6211 15.9229 11.6209 15.9319 11.6225C15.9408 11.6241 15.9494 11.6275 15.9571 11.6325C15.9647 11.6375 15.9714 11.644 15.9766 11.6516C15.9818 11.6593 15.9855 11.6679 15.9874 11.677C15.9949 11.6847 15.9799 11.7155 15.9649 11.7308V11.7308Z" fill="#FF61F6"/>
<path d="M19.4298 19.8462C18.8738 19.8555 18.3229 19.7373 17.8173 19.5C17.3468 19.2744 16.9526 18.9102 16.6848 18.4539C16.4073 17.9846 16.2723 17.4 16.2723 16.7C16.2647 16.1308 16.4072 15.57 16.6848 15.077C16.9694 14.5759 17.3816 14.1637 17.8773 13.8846C18.4023 13.5846 19.0323 13.4385 19.7748 13.4385C19.8274 13.4379 19.88 13.4404 19.9323 13.4462C19.9998 13.4539 20.0748 13.4539 20.1648 13.4616V11.0308C20.1648 10.977 20.1873 10.9462 20.2398 10.9462H21.7623C21.7791 10.9438 21.7961 10.9481 21.81 10.9581C21.8239 10.968 21.8336 10.983 21.8373 11V18.3385C21.8373 18.477 21.8448 18.6308 21.8523 18.8C21.8598 18.9693 21.8748 19.1154 21.8823 19.2462C21.8839 19.2722 21.8775 19.298 21.864 19.3201C21.8506 19.3421 21.8307 19.3593 21.8073 19.3693C21.4144 19.5386 21.0044 19.6624 20.5848 19.7385C20.2036 19.809 19.8171 19.845 19.4298 19.8462V19.8462ZM20.1648 18.3077V14.9231C20.098 14.9066 20.0304 14.8937 19.9623 14.8846C19.8798 14.877 19.7973 14.8693 19.7148 14.8693C19.4208 14.8659 19.1302 14.9344 18.8673 15.0693C18.611 15.2002 18.3915 15.3962 18.2298 15.6385C18.0648 15.8846 17.9823 16.2154 17.9823 16.6154C17.9757 16.8854 18.019 17.1542 18.1098 17.4077C18.1823 17.6127 18.2975 17.7991 18.4473 17.9539C18.5919 18.0954 18.7664 18.2007 18.9573 18.2616C19.1582 18.3291 19.3684 18.3628 19.5798 18.3616C19.6923 18.3616 19.7973 18.3539 19.8948 18.3462C19.9864 18.3529 20.0784 18.3398 20.1648 18.3077V18.3077Z" fill="#FF61F6"/>
</g>
</g>
<defs>
<filter id="filter0_b_530_1029" x="-30" y="-30" width="91" height="92" filterUnits="userSpaceOnUse" color-interpolation-filters="sRGB">
<feFlood flood-opacity="0" result="BackgroundImageFix"/>
<feGaussianBlur in="BackgroundImageFix" stdDeviation="15"/>
<feComposite in2="SourceAlpha" operator="in" result="effect1_backgroundBlur_530_1029"/>
<feBlend mode="normal" in="SourceGraphic" in2="effect1_backgroundBlur_530_1029" result="shape"/>
</filter>
<clipPath id="clip0_530_1029">
<rect width="18" height="18" fill="white" transform="translate(6.5 7)"/>
</clipPath>
</defs>
</svg>
