<svg width="31" height="32" viewBox="0 0 31 32" fill="none" xmlns="http://www.w3.org/2000/svg">
<g filter="url(#filter0_b_530_1027)">
<rect width="31" height="32" rx="15.5" fill="white"/>
<rect x="0.5" y="0.5" width="30" height="31" rx="15" stroke="white"/>
<g clip-path="url(#clip0_530_1027)">
<path d="M9.6875 7H21.3125C21.7312 6.9996 22.1459 7.08388 22.5328 7.24803C22.9197 7.41218 23.2712 7.65298 23.5673 7.95663C23.8633 8.26029 24.0981 8.62085 24.2582 9.01767C24.4182 9.4145 24.5004 9.8398 24.5 10.2692V21.7308C24.5004 22.1602 24.4182 22.5855 24.2582 22.9823C24.0981 23.3792 23.8633 23.7397 23.5673 24.0434C23.2712 24.347 22.9197 24.5878 22.5328 24.752C22.1459 24.9161 21.7312 25.0004 21.3125 25H9.6875C9.2688 25.0004 8.85413 24.9161 8.46723 24.752C8.08033 24.5878 7.72878 24.347 7.43272 24.0434C7.13665 23.7397 6.90188 23.3792 6.74183 22.9823C6.58178 22.5855 6.49961 22.1602 6.5 21.7308V10.2692C6.49961 9.8398 6.58178 9.4145 6.74183 9.01767C6.90188 8.62085 7.13665 8.26029 7.43272 7.95663C7.72878 7.65298 8.08033 7.41218 8.46723 7.24803C8.85413 7.08388 9.2688 6.9996 9.6875 7V7Z" fill="#49021F"/>
<path d="M13.0402 11.7078V19.6001C13.0402 19.6847 13.0027 19.7231 12.9352 19.7231H11.4652C11.3977 19.7231 11.3677 19.6847 11.3677 19.6001V11.7078C11.3677 11.6385 11.4052 11.6078 11.4727 11.6078H12.9352C12.9465 11.6059 12.9582 11.6065 12.9693 11.6094C12.9805 11.6123 12.9909 11.6175 13 11.6247C13.0092 11.6319 13.0168 11.6409 13.0224 11.6512C13.028 11.6616 13.0315 11.6729 13.0327 11.6847C13.0355 11.6877 13.0377 11.6914 13.039 11.6953C13.0402 11.6993 13.0407 11.7036 13.0402 11.7078V11.7078Z" fill="#FF3366"/>
<path d="M17.3599 19.8462C16.804 19.8555 16.2531 19.7373 15.7474 19.5C15.277 19.2744 14.8828 18.9102 14.6149 18.4539C14.3374 17.9846 14.2024 17.4 14.2024 16.7C14.1948 16.1308 14.3374 15.57 14.6149 15.077C14.8996 14.5759 15.3118 14.1637 15.8074 13.8846C16.3324 13.5846 16.9624 13.4385 17.7049 13.4385C17.7575 13.4379 17.8101 13.4404 17.8624 13.4462C17.9299 13.4539 18.0049 13.4539 18.0949 13.4616V11.0308C18.0949 10.977 18.1174 10.9462 18.1699 10.9462H19.6924C19.7092 10.9438 19.7263 10.9481 19.7402 10.9581C19.7541 10.968 19.7638 10.983 19.7674 11V18.3385C19.7674 18.477 19.7749 18.6308 19.7824 18.8C19.7899 18.9693 19.8049 19.1154 19.8124 19.2462C19.814 19.2722 19.8077 19.298 19.7942 19.3201C19.7808 19.3421 19.7609 19.3593 19.7374 19.3693C19.3446 19.5386 18.9346 19.6624 18.5149 19.7385C18.1338 19.8093 17.7473 19.8454 17.3599 19.8462ZM18.0949 18.3077V14.9231C18.0282 14.9066 17.9606 14.8937 17.8924 14.8846C17.8099 14.877 17.7274 14.8693 17.6449 14.8693C17.351 14.8659 17.0604 14.9344 16.7974 15.0693C16.5411 15.2002 16.3217 15.3962 16.1599 15.6385C15.9949 15.8846 15.9124 16.2154 15.9124 16.6154C15.9059 16.8854 15.9492 17.1542 16.0399 17.4077C16.1125 17.6127 16.2276 17.7991 16.3774 17.9539C16.522 18.0954 16.6966 18.2007 16.8874 18.2616C17.0883 18.3291 17.2985 18.3628 17.5099 18.3616C17.6224 18.3616 17.7274 18.3539 17.8249 18.3462C17.9166 18.3534 18.0087 18.3403 18.0949 18.3077V18.3077Z" fill="#FF3366"/>
</g>
</g>
<defs>
<filter id="filter0_b_530_1027" x="-30" y="-30" width="91" height="92" filterUnits="userSpaceOnUse" color-interpolation-filters="sRGB">
<feFlood flood-opacity="0" result="BackgroundImageFix"/>
<feGaussianBlur in="BackgroundImageFix" stdDeviation="15"/>
<feComposite in2="SourceAlpha" operator="in" result="effect1_backgroundBlur_530_1027"/>
<feBlend mode="normal" in="SourceGraphic" in2="effect1_backgroundBlur_530_1027" result="shape"/>
</filter>
<clipPath id="clip0_530_1027">
<rect width="18" height="18" fill="white" transform="translate(6.5 7)"/>
</clipPath>
</defs>
</svg>
