<svg width="31" height="32" viewBox="0 0 31 32" fill="none" xmlns="http://www.w3.org/2000/svg">
<g filter="url(#filter0_b_530_1031)">
<rect width="31" height="32" rx="15.5" fill="white"/>
<rect x="0.5" y="0.5" width="30" height="31" rx="15" stroke="white"/>
<g clip-path="url(#clip0_530_1031)">
<path d="M9.6875 7H21.3125C21.7312 6.9996 22.1459 7.08388 22.5328 7.24803C22.9197 7.41218 23.2712 7.65298 23.5673 7.95663C23.8633 8.26029 24.0981 8.62085 24.2582 9.01767C24.4182 9.4145 24.5004 9.8398 24.5 10.2692V21.7308C24.5004 22.1602 24.4182 22.5855 24.2582 22.9823C24.0981 23.3792 23.8633 23.7397 23.5673 24.0434C23.2712 24.347 22.9197 24.5878 22.5328 24.752C22.1459 24.9161 21.7312 25.0004 21.3125 25H9.6875C9.2688 25.0004 8.85413 24.9161 8.46723 24.752C8.08033 24.5878 7.72878 24.347 7.43272 24.0434C7.13665 23.7397 6.90188 23.3792 6.74183 22.9823C6.58178 22.5855 6.49961 22.1602 6.5 21.7308V10.2692C6.49961 9.8398 6.58178 9.4145 6.74183 9.01767C6.90188 8.62085 7.13665 8.26029 7.43272 7.95663C7.72878 7.65298 8.08033 7.41218 8.46723 7.24803C8.85413 7.08388 9.2688 6.9996 9.6875 7V7Z" fill="#00005B"/>
<path d="M10.7749 19.6231V11.7077C10.7749 11.6538 10.7974 11.6231 10.8499 11.6231C10.9774 11.6231 11.0974 11.6231 11.2699 11.6154C11.4424 11.6077 11.6374 11.6077 11.8399 11.6C12.0424 11.5923 12.2599 11.5923 12.4924 11.5846C12.7249 11.5769 12.9499 11.5769 13.1749 11.5769C13.7899 11.5769 14.2999 11.6538 14.7199 11.8154C15.0964 11.9465 15.4397 12.162 15.7249 12.4461C15.9666 12.6948 16.1533 12.9939 16.2724 13.3231C16.3859 13.6436 16.4443 13.982 16.4449 14.3231C16.4449 14.9846 16.2949 15.5308 15.9949 15.9615C15.6935 16.3917 15.2727 16.7187 14.7874 16.9C14.2774 17.0923 13.7149 17.1615 13.0999 17.1615C12.9199 17.1615 12.7999 17.1615 12.7249 17.1538C12.6499 17.1461 12.5449 17.1461 12.4024 17.1461V19.6154C12.4041 19.628 12.4033 19.6409 12.4 19.6532C12.3967 19.6655 12.3911 19.6771 12.3834 19.6871C12.3757 19.6972 12.3661 19.7055 12.3552 19.7117C12.3443 19.7179 12.3323 19.7217 12.3199 19.7231H10.8649C10.8049 19.7231 10.7749 19.6923 10.7749 19.6231ZM12.4099 13.1077V15.6923C12.5149 15.7 12.6124 15.7077 12.7024 15.7077H13.0999C13.3927 15.708 13.6837 15.6613 13.9624 15.5692C14.2015 15.4971 14.4151 15.3555 14.5774 15.1615C14.7349 14.9692 14.8099 14.7077 14.8099 14.3692C14.817 14.1288 14.7571 13.8914 14.6374 13.6846C14.5123 13.4849 14.3284 13.3313 14.1124 13.2461C13.8308 13.133 13.5296 13.0807 13.2274 13.0923C13.0324 13.0923 12.8599 13.0923 12.7174 13.1C12.6149 13.0931 12.512 13.0957 12.4099 13.1077V13.1077Z" fill="#9999FF"/>
<path d="M17.4951 13.5539H18.8076C18.8432 13.5548 18.8775 13.5671 18.9058 13.5892C18.9341 13.6113 18.9549 13.642 18.9651 13.677C18.988 13.7388 19.0031 13.8035 19.0101 13.8693C19.0251 13.9462 19.0401 14.0308 19.0476 14.1077C19.0551 14.1846 19.0626 14.2846 19.0626 14.3846C19.2878 14.115 19.56 13.8907 19.8651 13.7231C20.2138 13.5245 20.6063 13.4212 21.0051 13.4231C21.0175 13.4214 21.03 13.4222 21.042 13.4256C21.0541 13.4289 21.0653 13.4347 21.0751 13.4426C21.0849 13.4505 21.093 13.4603 21.0991 13.4715C21.1051 13.4827 21.1088 13.495 21.1101 13.5077V15.0385C21.1101 15.1 21.0726 15.1231 20.9901 15.1231C20.7181 15.114 20.4459 15.1398 20.1801 15.2C19.9635 15.2459 19.7523 15.3155 19.5501 15.4077C19.405 15.4748 19.2749 15.5717 19.1676 15.6923V19.6154C19.1676 19.6923 19.1376 19.7231 19.0701 19.7231H17.5926C17.5788 19.7255 17.5646 19.725 17.551 19.7216C17.5374 19.7182 17.5246 19.712 17.5133 19.7034C17.5021 19.6947 17.4927 19.6838 17.4857 19.6714C17.4787 19.6589 17.4743 19.6451 17.4726 19.6308V15.3385C17.4726 15.1539 17.4726 14.9616 17.4651 14.7616C17.4576 14.5616 17.4576 14.3616 17.4501 14.1616C17.4501 13.9846 17.4351 13.8154 17.4201 13.6385C17.4181 13.6294 17.4179 13.62 17.4195 13.6108C17.4211 13.6016 17.4244 13.5929 17.4292 13.585C17.4341 13.5771 17.4405 13.5703 17.4479 13.565C17.4554 13.5597 17.4638 13.5559 17.4726 13.5539C17.4726 13.5462 17.4876 13.5462 17.4951 13.5539V13.5539Z" fill="#9999FF"/>
</g>
</g>
<defs>
<filter id="filter0_b_530_1031" x="-30" y="-30" width="91" height="92" filterUnits="userSpaceOnUse" color-interpolation-filters="sRGB">
<feFlood flood-opacity="0" result="BackgroundImageFix"/>
<feGaussianBlur in="BackgroundImageFix" stdDeviation="15"/>
<feComposite in2="SourceAlpha" operator="in" result="effect1_backgroundBlur_530_1031"/>
<feBlend mode="normal" in="SourceGraphic" in2="effect1_backgroundBlur_530_1031" result="shape"/>
</filter>
<clipPath id="clip0_530_1031">
<rect width="18" height="18" fill="white" transform="translate(6.5 7)"/>
</clipPath>
</defs>
</svg>
