<svg width="31" height="32" viewBox="0 0 31 32" fill="none" xmlns="http://www.w3.org/2000/svg">
<g filter="url(#filter0_b_530_1025)">
<rect width="31" height="32" rx="15.5" fill="white"/>
<rect x="0.5" y="0.5" width="30" height="31" rx="15" stroke="white"/>
<g clip-path="url(#clip0_530_1025)">
<path d="M21.3133 7H9.68675C7.92676 7 6.5 8.47959 6.5 10.3048V21.6952C6.5 23.5204 7.92676 25 9.68675 25H21.3133C23.0732 25 24.5 23.5204 24.5 21.6952V10.3048C24.5 8.47959 23.0732 7 21.3133 7Z" fill="#00005B"/>
<path d="M21.1041 16.9937H18.7611C18.7953 17.2436 18.8777 17.4837 19.0033 17.6999C19.1362 17.9056 19.3241 18.0664 19.5441 18.1627C19.8474 18.3037 20.1762 18.3761 20.5086 18.375C20.7313 18.3805 20.954 18.3623 21.1731 18.3206C21.4122 18.2764 21.6457 18.2041 21.8691 18.1051C21.9086 18.0724 21.9283 18.0929 21.9283 18.1666V19.3379C21.9302 19.3698 21.924 19.4018 21.9103 19.4304C21.8968 19.4528 21.8786 19.4716 21.8571 19.4857C21.6107 19.6065 21.3511 19.6956 21.0838 19.7509C20.7649 19.7975 20.4423 19.8105 20.1208 19.7898C19.636 19.8065 19.1535 19.7153 18.7056 19.5222C18.3459 19.3578 18.0282 19.1085 17.7778 18.7942C17.544 18.4982 17.3701 18.1565 17.2663 17.7893C17.1637 17.4269 17.1117 17.051 17.1118 16.6732C17.1117 16.2594 17.1752 15.8483 17.3001 15.4552C17.4185 15.0726 17.6061 14.7168 17.8528 14.4068C18.096 14.1003 18.4002 13.852 18.7446 13.6788C19.1318 13.4935 19.5549 13.4028 19.9813 13.4136C20.3965 13.4077 20.8084 13.4919 21.1903 13.6609C21.4958 13.8043 21.7632 14.0224 21.9696 14.2964C22.1636 14.5575 22.3116 14.8521 22.4068 15.1667C22.5004 15.4697 22.5485 15.7858 22.5493 16.1039C22.5493 16.2849 22.5433 16.4492 22.5313 16.597C22.5213 16.685 22.5061 16.7723 22.4856 16.8583C22.4824 16.8856 22.4698 16.9107 22.45 16.9289C22.4303 16.9471 22.4048 16.9571 22.3783 16.9571C22.3311 16.9571 22.2493 16.9633 22.1346 16.9758C22.0198 16.9882 21.8151 16.9836 21.6448 16.9875C21.4746 16.9913 21.2946 16.9937 21.1041 16.9937ZM18.7543 16.0137H20.3121C20.5026 16.0137 20.6433 16.0116 20.7343 16.0075C20.7923 16.0074 20.8501 16.0012 20.9068 15.9888V15.911C20.9137 15.7635 20.9054 15.6157 20.8821 15.47C20.8169 15.2605 20.6876 15.0788 20.5138 14.9525C20.34 14.8262 20.1312 14.7621 19.9191 14.77C19.719 14.7575 19.5197 14.8057 19.3455 14.9086C19.1714 15.0114 19.0298 15.1646 18.9381 15.3495C18.8485 15.5614 18.7867 15.7848 18.7543 16.0137V16.0137Z" fill="#9999FF"/>
<path d="M9.16851 11.7655C9.16907 11.7543 9.17179 11.7435 9.17651 11.7335C9.18124 11.7235 9.18786 11.7146 9.19599 11.7073C9.20412 11.7 9.21359 11.6946 9.22381 11.6912C9.23404 11.6878 9.24482 11.6866 9.25551 11.6877H11.3383C11.3656 11.6839 11.3933 11.6906 11.4162 11.7065C11.4392 11.7224 11.4557 11.7464 11.4628 11.774C11.5153 11.9879 11.5798 12.1427 11.6548 12.4421C11.7298 12.7416 11.8108 13.0776 11.9 13.4392L12.1625 14.5491C12.253 14.9271 12.3415 15.295 12.428 15.6528C12.5145 16.0105 12.5885 16.3395 12.65 16.6398C12.71 16.94 12.76 17.1886 12.8 17.3856H12.8113C12.8413 17.213 12.894 16.9828 12.9695 16.695C13.045 16.4072 13.1318 16.0844 13.2298 15.7267C13.3298 15.3689 13.4298 15.001 13.5298 14.623C13.6298 14.245 13.7298 13.8709 13.8298 13.5007C13.9298 13.1305 14.022 12.7872 14.1065 12.4709C14.1935 12.1543 14.2625 11.9918 14.3158 11.7779C14.3196 11.7531 14.3321 11.7305 14.3509 11.7146C14.3697 11.6987 14.3935 11.6905 14.4178 11.6916H16.4428C16.4661 11.6882 16.4898 11.6945 16.5087 11.709C16.5276 11.7236 16.5403 11.7452 16.544 11.7694C16.544 11.7694 16.544 11.774 16.544 11.7764L16.8155 19.502C16.8193 19.5153 16.8198 19.5295 16.8169 19.5431C16.814 19.5567 16.8079 19.5693 16.799 19.5797C16.7894 19.5902 16.7777 19.5984 16.7648 19.6037C16.7518 19.6091 16.7379 19.6115 16.724 19.6109H15.2473C15.227 19.6115 15.2071 19.6049 15.191 19.5922C15.1826 19.5834 15.1762 19.5727 15.1723 19.561C15.1684 19.5493 15.1671 19.5368 15.1685 19.5245C15.1685 19.1053 15.1685 18.7188 15.1625 18.2583C15.1565 17.7979 15.1528 17.3351 15.1453 16.8708C15.1378 16.4064 15.1378 15.96 15.1453 15.533C15.1528 15.106 15.1565 14.7109 15.1565 14.3492C15.1565 13.9876 15.1565 13.6733 15.1625 13.4058C15.1685 13.1382 15.1678 12.9391 15.1685 12.8077H15.1573C15.1118 13.0151 15.0515 13.2845 14.9765 13.6158C14.9015 13.9471 14.813 14.3212 14.711 14.7381C14.611 15.1529 14.5018 15.5825 14.3833 16.0269C14.2648 16.4712 14.1518 16.912 14.0443 17.3491C13.9348 17.7852 13.8293 18.1922 13.7278 18.5702C13.6258 18.9482 13.5418 19.2282 13.4735 19.516C13.4668 19.5447 13.4508 19.5702 13.4281 19.5882C13.4055 19.6062 13.3775 19.6156 13.349 19.6147H12.074C12.0435 19.6192 12.0126 19.6114 11.9874 19.5931C11.9622 19.5748 11.9446 19.5472 11.9383 19.516C11.8708 19.2282 11.7928 18.9482 11.7065 18.5702C11.6203 18.1922 11.5318 17.7971 11.441 17.3864C11.3503 16.9758 11.2543 16.5542 11.153 16.1225C11.0518 15.6909 10.955 15.2732 10.865 14.8703C10.775 14.4674 10.6933 14.0926 10.622 13.7356C10.5508 13.3786 10.4833 13.0667 10.4233 12.7976H10.4V13.7721C10.4 14.1506 10.3943 14.568 10.3828 15.0243C10.3713 15.4806 10.36 15.9574 10.349 16.4547C10.338 16.9524 10.3248 17.4663 10.3093 17.9962C10.2943 18.5266 10.2755 18.9972 10.253 19.5152C10.253 19.5813 10.223 19.614 10.163 19.614H8.85276C8.82654 19.6154 8.80049 19.6089 8.77776 19.5953C8.75876 19.5829 8.75301 19.552 8.76051 19.5027L9.16851 11.7655Z" fill="#9999FF"/>
</g>
</g>
<defs>
<filter id="filter0_b_530_1025" x="-30" y="-30" width="91" height="92" filterUnits="userSpaceOnUse" color-interpolation-filters="sRGB">
<feFlood flood-opacity="0" result="BackgroundImageFix"/>
<feGaussianBlur in="BackgroundImageFix" stdDeviation="15"/>
<feComposite in2="SourceAlpha" operator="in" result="effect1_backgroundBlur_530_1025"/>
<feBlend mode="normal" in="SourceGraphic" in2="effect1_backgroundBlur_530_1025" result="shape"/>
</filter>
<clipPath id="clip0_530_1025">
<rect width="18" height="18" fill="white" transform="translate(6.5 7)"/>
</clipPath>
</defs>
</svg>
