<svg width="32" height="32" viewBox="0 0 32 32" fill="none" xmlns="http://www.w3.org/2000/svg">
<g filter="url(#filter0_b_530_1023)">
<rect width="32" height="32" rx="16" fill="white"/>
<rect x="0.5" y="0.5" width="31" height="31" rx="15.5" stroke="white"/>
<g clip-path="url(#clip0_530_1023)">
<path d="M10.1875 7H21.8125C22.2312 6.9996 22.6459 7.08388 23.0328 7.24803C23.4197 7.41218 23.7712 7.65298 24.0673 7.95663C24.3633 8.26029 24.5981 8.62085 24.7582 9.01767C24.9182 9.4145 25.0004 9.8398 25 10.2692V21.7308C25.0004 22.1602 24.9182 22.5855 24.7582 22.9823C24.5981 23.3792 24.3633 23.7397 24.0673 24.0434C23.7712 24.347 23.4197 24.5878 23.0328 24.752C22.6459 24.9161 22.2312 25.0004 21.8125 25H10.1875C9.7688 25.0004 9.35413 24.9161 8.96723 24.752C8.58033 24.5878 8.22878 24.347 7.93272 24.0434C7.63665 23.7397 7.40188 23.3792 7.24183 22.9823C7.08178 22.5855 6.99961 22.1602 7 21.7308V10.2692C6.99961 9.8398 7.08178 9.4145 7.24183 9.01767C7.40188 8.62085 7.63665 8.26029 7.93272 7.95663C8.22878 7.65298 8.58033 7.41218 8.96723 7.24803C9.35413 7.08388 9.7688 6.9996 10.1875 7V7Z" fill="#330000"/>
<path d="M15.7225 17.8H12.9325L12.3625 19.6077C12.3561 19.6406 12.3379 19.6699 12.3116 19.6899C12.2852 19.7098 12.2525 19.7189 12.22 19.7154H10.81C10.7275 19.7154 10.705 19.6692 10.7275 19.5769L13.1425 12.4461C13.165 12.3692 13.1875 12.2846 13.2175 12.1923C13.2476 12.0274 13.2627 11.86 13.2625 11.6923C13.2602 11.673 13.2651 11.6536 13.2763 11.6379C13.2874 11.6222 13.3039 11.6114 13.3225 11.6077H15.265C15.325 11.6077 15.355 11.6307 15.3625 11.6692L18.1 19.5923C18.1225 19.6769 18.1 19.7154 18.025 19.7154H16.4575C16.4309 19.718 16.4044 19.7109 16.3824 19.6955C16.3605 19.68 16.3446 19.6571 16.3375 19.6307L15.7225 17.8ZM13.3675 16.2384H15.2725C15.2275 16.0769 15.1675 15.8846 15.1 15.6846C15.0325 15.4846 14.965 15.2538 14.8975 15.0231C14.83 14.7923 14.755 14.5538 14.68 14.3154C14.605 14.0769 14.5375 13.8538 14.4775 13.6307C14.4175 13.4077 14.365 13.2154 14.3125 13.0307H14.2975C14.2301 13.366 14.1449 13.6973 14.0425 14.0231C13.93 14.3923 13.8175 14.7769 13.6975 15.1615C13.5925 15.5538 13.48 15.9154 13.3675 16.2384V16.2384Z" fill="#FF9A00"/>
<path d="M19.7351 12.9231C19.612 12.9259 19.4896 12.9035 19.375 12.8573C19.2604 12.811 19.1559 12.7419 19.0676 12.6539C18.8957 12.4612 18.8042 12.2072 18.8126 11.9462C18.8081 11.819 18.8299 11.6923 18.8764 11.5744C18.9229 11.4564 18.9932 11.3498 19.0826 11.2616C19.2628 11.0868 19.502 10.9903 19.7501 10.9923C20.0426 10.9923 20.2676 11.0846 20.4326 11.2616C20.5987 11.4481 20.6875 11.6937 20.6801 11.9462C20.6846 12.0762 20.6638 12.2057 20.6187 12.3273C20.5736 12.4488 20.5052 12.5599 20.4176 12.6539C20.3292 12.7462 20.2225 12.818 20.1048 12.8645C19.9871 12.9109 19.861 12.9309 19.7351 12.9231V12.9231ZM18.8951 19.6V13.677C18.8951 13.6 18.9251 13.5693 18.9926 13.5693H20.4776C20.5451 13.5693 20.5751 13.6077 20.5751 13.677V19.6C20.5751 19.6846 20.5451 19.7231 20.4776 19.7231H19.0076C18.9918 19.7244 18.976 19.7221 18.9612 19.7163C18.9464 19.7104 18.9332 19.7013 18.9223 19.6894C18.9115 19.6776 18.9035 19.6634 18.8987 19.6479C18.894 19.6325 18.8928 19.6161 18.8951 19.6V19.6Z" fill="#FF9A00"/>
</g>
</g>
<defs>
<filter id="filter0_b_530_1023" x="-30" y="-30" width="92" height="92" filterUnits="userSpaceOnUse" color-interpolation-filters="sRGB">
<feFlood flood-opacity="0" result="BackgroundImageFix"/>
<feGaussianBlur in="BackgroundImageFix" stdDeviation="15"/>
<feComposite in2="SourceAlpha" operator="in" result="effect1_backgroundBlur_530_1023"/>
<feBlend mode="normal" in="SourceGraphic" in2="effect1_backgroundBlur_530_1023" result="shape"/>
</filter>
<clipPath id="clip0_530_1023">
<rect width="18" height="18" fill="white" transform="translate(7 7)"/>
</clipPath>
</defs>
</svg>
