<svg width="32" height="32" viewBox="0 0 32 32" fill="none" xmlns="http://www.w3.org/2000/svg">
<g filter="url(#filter0_b_530_1019)">
<rect width="32" height="32" rx="16" fill="white"/>
<rect x="0.5" y="0.5" width="31" height="31" rx="15.5" stroke="white"/>
<g clip-path="url(#clip0_530_1019)">
<path d="M10.1875 7H21.8125C22.2312 6.9996 22.6459 7.08388 23.0328 7.24803C23.4197 7.41218 23.7712 7.65298 24.0673 7.95663C24.3633 8.26029 24.5981 8.62085 24.7582 9.01767C24.9182 9.4145 25.0004 9.8398 25 10.2692V21.7308C25.0004 22.1602 24.9182 22.5855 24.7582 22.9823C24.5981 23.3792 24.3633 23.7397 24.0673 24.0434C23.7712 24.347 23.4197 24.5878 23.0328 24.752C22.6459 24.9161 22.2312 25.0004 21.8125 25H10.1875C9.7688 25.0004 9.35413 24.9161 8.96723 24.752C8.58033 24.5878 8.22878 24.347 7.93272 24.0434C7.63665 23.7397 7.40188 23.3792 7.24183 22.9823C7.08178 22.5855 6.99961 22.1602 7 21.7308V10.2692C6.99961 9.8398 7.08178 9.4145 7.24183 9.01767C7.40188 8.62085 7.63665 8.26029 7.93272 7.95663C8.22878 7.65298 8.58033 7.41218 8.96723 7.24803C9.35413 7.08388 9.7688 6.9996 10.1875 7V7Z" fill="#00005B"/>
<path d="M14.2298 17.7692H11.4398L10.8698 19.5846C10.8634 19.6175 10.8453 19.6468 10.8189 19.6668C10.7925 19.6867 10.7598 19.6958 10.7273 19.6923H9.31728C9.23478 19.6923 9.21228 19.6461 9.23478 19.5538L11.6498 12.4538C11.6723 12.3769 11.6948 12.3077 11.7248 12.2154C11.755 12.0505 11.77 11.8831 11.7698 11.7154C11.7675 11.6961 11.7725 11.6767 11.7836 11.661C11.7947 11.6453 11.8112 11.6345 11.8298 11.6307H13.7723C13.8248 11.6307 13.8623 11.6538 13.8698 11.6923L16.6073 19.5769C16.6298 19.6615 16.6073 19.7 16.5323 19.7H14.9648C14.9383 19.7026 14.9117 19.6955 14.8898 19.6801C14.8678 19.6646 14.8519 19.6417 14.8448 19.6154L14.2298 17.7692ZM11.8748 16.2384H13.7798C13.7348 16.0769 13.6748 15.8846 13.6073 15.6846C13.5398 15.4846 13.4723 15.2538 13.4048 15.023C13.3373 14.7923 13.2623 14.5538 13.1873 14.3154C13.1123 14.0769 13.0448 13.8538 12.9848 13.6307C12.9248 13.4077 12.8723 13.2154 12.8198 13.0307H12.8048C12.7374 13.366 12.6522 13.6973 12.5498 14.023C12.4373 14.3923 12.3248 14.7769 12.2048 15.1615C12.1073 15.5538 11.9873 15.9154 11.8748 16.2384Z" fill="#9999FF"/>
<path d="M21.0549 17.0616H18.6774C18.7058 17.3043 18.7851 17.5379 18.9099 17.7462C19.0425 17.9535 19.2334 18.1145 19.4574 18.2077C19.7606 18.3407 20.0878 18.4062 20.4174 18.4C20.6793 18.3951 20.9403 18.3668 21.1974 18.3154C21.4261 18.2847 21.6503 18.2253 21.8649 18.1385C21.9024 18.1077 21.9249 18.1231 21.9249 18.2V19.3769C21.9236 19.4082 21.9186 19.4392 21.9099 19.4693C21.8964 19.4908 21.8785 19.5092 21.8574 19.5231C21.6175 19.6311 21.3657 19.7086 21.1074 19.7539C20.7566 19.8231 20.3996 19.854 20.0424 19.8462C19.4724 19.8462 18.9924 19.7539 18.6024 19.5769C18.2354 19.4136 17.9115 19.1631 17.6574 18.8462C17.42 18.5498 17.2439 18.207 17.1399 17.8385C16.9201 17.0711 16.9306 16.2536 17.1699 15.4923C17.2895 15.1072 17.4805 14.7493 17.7324 14.4385C17.9804 14.1311 18.2899 13.8819 18.6399 13.7077C18.9924 13.5308 19.4124 13.4693 19.8924 13.4693C20.2923 13.4597 20.6893 13.5412 21.0549 13.7077C21.3622 13.8443 21.6324 14.0555 21.8424 14.3231C22.0418 14.5858 22.1941 14.8827 22.2924 15.2C22.3878 15.5032 22.4359 15.8199 22.4349 16.1385C22.4349 16.3231 22.4274 16.4846 22.4199 16.6308C22.4124 16.7769 22.3974 16.8846 22.3899 16.9539C22.3866 16.9805 22.3743 17.0051 22.3551 17.0234C22.3359 17.0417 22.3111 17.0525 22.2849 17.0539C22.2399 17.0539 22.1574 17.0616 22.0374 17.0693C21.893 17.0861 21.7477 17.0938 21.6024 17.0923C21.4299 17.0923 21.2499 17.0616 21.0549 17.0616ZM18.6774 15.9385H20.2599C20.4549 15.9385 20.5974 15.9385 20.6874 15.9308C20.7491 15.9255 20.8084 15.9044 20.8599 15.8693V15.7923C20.8602 15.6956 20.845 15.5994 20.8149 15.5077C20.7493 15.2972 20.6186 15.1144 20.4428 14.9867C20.2669 14.859 20.0553 14.7935 19.8399 14.8C19.6364 14.7883 19.4339 14.8373 19.2569 14.941C19.0799 15.0448 18.9359 15.1988 18.8424 15.3846C18.7549 15.5574 18.699 15.7451 18.6774 15.9385V15.9385Z" fill="#9999FF"/>
</g>
</g>
<defs>
<filter id="filter0_b_530_1019" x="-30" y="-30" width="92" height="92" filterUnits="userSpaceOnUse" color-interpolation-filters="sRGB">
<feFlood flood-opacity="0" result="BackgroundImageFix"/>
<feGaussianBlur in="BackgroundImageFix" stdDeviation="15"/>
<feComposite in2="SourceAlpha" operator="in" result="effect1_backgroundBlur_530_1019"/>
<feBlend mode="normal" in="SourceGraphic" in2="effect1_backgroundBlur_530_1019" result="shape"/>
</filter>
<clipPath id="clip0_530_1019">
<rect width="18" height="18" fill="white" transform="translate(7 7)"/>
</clipPath>
</defs>
</svg>
