<svg width="32" height="32" viewBox="0 0 32 32" fill="none" xmlns="http://www.w3.org/2000/svg">
<g filter="url(#filter0_b_530_1021)">
<rect width="32" height="32" rx="16" fill="white"/>
<rect x="0.5" y="0.5" width="31" height="31" rx="15.5" stroke="white"/>
<g clip-path="url(#clip0_530_1021)">
<path d="M10.1875 7H21.8125C22.2312 6.9996 22.6459 7.08388 23.0328 7.24803C23.4197 7.41218 23.7712 7.65298 24.0673 7.95663C24.3633 8.26029 24.5981 8.62085 24.7582 9.01767C24.9182 9.4145 25.0004 9.8398 25 10.2692V21.7308C25.0004 22.1602 24.9182 22.5855 24.7582 22.9823C24.5981 23.3792 24.3633 23.7397 24.0673 24.0434C23.7712 24.347 23.4197 24.5878 23.0328 24.752C22.6459 24.9161 22.2312 25.0004 21.8125 25H10.1875C9.7688 25.0004 9.35413 24.9161 8.96723 24.752C8.58033 24.5878 8.22878 24.347 7.93272 24.0434C7.63665 23.7397 7.40188 23.3792 7.24183 22.9823C7.08178 22.5855 6.99961 22.1602 7 21.7308V10.2692C6.99961 9.8398 7.08178 9.4145 7.24183 9.01767C7.40188 8.62085 7.63665 8.26029 7.93272 7.95663C8.22878 7.65298 8.58033 7.41218 8.96723 7.24803C9.35413 7.08388 9.7688 6.9996 10.1875 7V7Z" fill="#000B1D"/>
<path d="M14.125 21.7692C15.1605 21.7692 16 20.9083 16 19.8462V17.9231H14.125C13.0895 17.9231 12.25 18.7841 12.25 19.8462C12.25 20.9083 13.0895 21.7692 14.125 21.7692Z" fill="#0ACF83"/>
<path d="M12.25 16C12.25 14.9379 13.0895 14.0769 14.125 14.0769H16V17.9231H14.125C13.0895 17.9231 12.25 17.0621 12.25 16Z" fill="#A259FF"/>
<path d="M12.25 12.1538C12.25 11.0917 13.0895 10.2307 14.125 10.2307H16V14.0769H14.125C13.0895 14.0769 12.25 13.2159 12.25 12.1538Z" fill="#F24E1E"/>
<path d="M16 10.2307H17.875C18.9105 10.2307 19.75 11.0917 19.75 12.1538C19.75 13.2159 18.9105 14.0769 17.875 14.0769H16V10.2307Z" fill="#FF7262"/>
<path d="M19.75 16C19.75 17.0621 18.9105 17.9231 17.875 17.9231C16.8395 17.9231 16 17.0621 16 16C16 14.9379 16.8395 14.0769 17.875 14.0769C18.9105 14.0769 19.75 14.9379 19.75 16Z" fill="#1ABCFE"/>
</g>
</g>
<defs>
<filter id="filter0_b_530_1021" x="-30" y="-30" width="92" height="92" filterUnits="userSpaceOnUse" color-interpolation-filters="sRGB">
<feFlood flood-opacity="0" result="BackgroundImageFix"/>
<feGaussianBlur in="BackgroundImageFix" stdDeviation="15"/>
<feComposite in2="SourceAlpha" operator="in" result="effect1_backgroundBlur_530_1021"/>
<feBlend mode="normal" in="SourceGraphic" in2="effect1_backgroundBlur_530_1021" result="shape"/>
</filter>
<clipPath id="clip0_530_1021">
<rect width="18" height="18" fill="white" transform="translate(7 7)"/>
</clipPath>
</defs>
</svg>
