<svg width="32" height="32" viewBox="0 0 32 32" fill="none" xmlns="http://www.w3.org/2000/svg">
<g filter="url(#filter0_b_530_854)">
<rect width="32" height="32" rx="16" fill="white"/>
<path d="M16.0197 23.8949C14.0073 23.8949 11.9949 23.8954 9.98201 23.8945C9.26927 23.894 8.6326 23.7213 8.23462 23.022C7.92895 22.4848 7.87586 21.9155 8.1576 21.3698C8.73114 20.2595 9.33768 19.1675 9.938 18.0725C11.3687 15.4622 12.8038 12.8538 14.2378 10.2454C14.3402 10.0593 14.4387 9.86941 14.555 9.6929C15.3428 8.49657 16.7754 8.51331 17.5064 9.74935C18.0464 10.663 18.5386 11.6077 19.0509 12.539C20.5568 15.2752 22.0678 18.0075 23.5598 20.7517C23.765 21.1291 23.953 21.5525 24.0094 21.9749C24.1352 22.9158 23.4947 23.7218 22.5911 23.8399C22.2367 23.8863 21.876 23.8916 21.5177 23.8925C19.6862 23.8978 17.8527 23.8954 16.0197 23.8949Z" fill="#9780E4"/>
<path d="M23.8258 20.7519C22.2592 18.0076 20.6726 15.2748 19.0916 12.5392C18.5535 11.6078 18.0369 10.6631 17.4701 9.74947C16.7028 8.51343 15.1989 8.49669 14.3713 9.69302C14.2494 9.86953 14.146 10.0594 14.0384 10.2455C13.5032 11.173 12.9679 12.1001 12.4326 13.0276C13.0392 12.5234 13.8748 12.6506 14.3374 13.4184C14.7435 14.0924 15.1137 14.7893 15.4993 15.4762C16.6315 17.4943 17.7685 19.5101 18.8907 21.5339C19.0448 21.8123 19.1868 22.1247 19.2289 22.4361C19.3236 23.1302 18.8415 23.7243 18.1622 23.8118C17.8958 23.8463 17.6241 23.8501 17.3548 23.8506C16.4875 23.853 15.6203 23.853 14.7531 23.8525C14.7468 23.8668 14.7401 23.8812 14.733 23.8951C15.1247 23.8951 15.5165 23.8951 15.9083 23.8951C17.8326 23.8951 19.7575 23.8979 21.6819 23.8931C22.0579 23.8922 22.4367 23.8869 22.8089 23.8405C23.7574 23.7224 24.43 22.9164 24.2979 21.9755C24.2391 21.5526 24.0411 21.1293 23.8258 20.7519Z" fill="#9780E4"/>
<path d="M26.0257 22.7082C25.9549 22.204 25.7195 21.6989 25.4627 21.2488C23.5952 17.975 21.7038 14.7146 19.8192 11.4504C19.1777 10.3392 18.5621 9.21175 17.8862 8.12208C16.9716 6.64735 15.1788 6.62773 14.1924 8.05463C14.047 8.26511 13.9236 8.49184 13.7954 8.71379C12.0006 11.8259 10.2045 14.9375 8.41401 18.052C7.66254 19.3584 6.9034 20.6609 6.18589 21.9859C5.83335 22.6369 5.89984 23.3162 6.28204 23.9572C6.77999 24.7914 7.57643 24.9976 8.46854 24.998C10.987 24.9995 13.506 24.9985 16.0245 24.999C18.3186 24.999 20.6127 25.0024 22.9069 24.9966C23.3551 24.9957 23.8066 24.989 24.2501 24.9335C25.3813 24.7919 26.183 23.8309 26.0257 22.7082ZM22.8098 23.8405C22.4376 23.8869 22.0588 23.8921 21.6828 23.8931C19.7584 23.8979 17.8336 23.8955 15.9092 23.895C15.5174 23.895 15.1257 23.895 14.7339 23.895C13.0128 23.895 11.2917 23.8955 9.57065 23.8945C9.37405 23.8945 9.18319 23.8821 9.00094 23.8515C8.48864 23.7663 8.04425 23.5377 7.7362 23.022C7.53099 22.6786 7.43484 22.3222 7.46928 21.9673C7.48842 21.7668 7.54869 21.5669 7.65584 21.3698C8.06004 20.6241 8.4805 19.8869 8.90384 19.1517C9.11096 18.792 9.31808 18.4323 9.52521 18.0726C9.84665 17.5139 10.1691 16.9557 10.491 16.3969C11.1382 15.2738 11.7859 14.1502 12.434 13.0275C12.9693 12.1 13.5045 11.173 14.0398 10.2454C14.1474 10.0594 14.2508 9.86947 14.3727 9.69296C15.1998 8.49662 16.7042 8.51337 17.4715 9.74941C18.0383 10.663 18.5549 11.6078 19.093 12.5391C20.674 15.2752 22.2606 18.0075 23.8272 20.7518C24.0425 21.1292 24.2405 21.5525 24.2993 21.9749C24.4309 22.9158 23.7583 23.7218 22.8098 23.8405Z" fill="#4F29D2"/>
<path d="M8.90281 19.1519C8.47948 19.8875 8.05949 20.6242 7.65482 21.3699C7.54815 21.567 7.48787 21.767 7.46826 21.9674C7.58833 21.7306 7.70887 21.4943 7.82941 21.2575C8.18721 20.5553 8.54501 19.8536 8.90281 19.1519Z" fill="#B9A9EE"/>
<path d="M11.5919 16.7978C11.8602 17.2872 12.1046 17.7938 12.3596 18.2927C13.1077 19.7588 13.8592 21.223 14.6006 22.693C14.7025 22.8953 14.7963 23.122 14.824 23.3483C14.8465 23.5305 14.8188 23.7032 14.7537 23.8525C15.6209 23.8529 16.4882 23.8529 17.3554 23.8505C17.6247 23.8501 17.896 23.8458 18.1629 23.8118C18.8421 23.7243 19.3243 23.1302 19.2296 22.4361C19.187 22.1242 19.0454 21.8118 18.8914 21.5339C17.7692 19.5101 16.6326 17.4943 15.4999 15.4762C15.1144 14.7893 14.7446 14.0923 14.338 13.4183C13.8755 12.6511 13.0398 12.5234 12.4333 13.0275C11.7851 14.1507 11.1374 15.2738 10.4902 16.397C10.8691 16.1784 11.3245 16.3104 11.5919 16.7978Z" fill="#B9A9EE"/>
<path d="M13.22 23.8519C11.8136 23.8519 10.4073 23.8524 9.00098 23.8514C9.18323 23.8816 9.37408 23.8945 9.57068 23.8945C11.2918 23.8954 13.0128 23.895 14.7339 23.895C14.7411 23.8811 14.7478 23.8667 14.754 23.8524C14.2427 23.8524 13.7313 23.8519 13.22 23.8519Z" fill="#DCD5F6"/>
<path d="M14.7543 23.8524C14.8193 23.7032 14.8471 23.5305 14.8246 23.3482C14.7964 23.122 14.7031 22.8948 14.6012 22.6929C13.8598 21.2225 13.1083 19.7583 12.3602 18.2926C12.1052 17.7937 11.8608 17.2871 11.5924 16.7978C11.325 16.3104 10.8692 16.1783 10.4908 16.3969C10.1689 16.9556 9.84648 17.5139 9.52503 18.0726C9.31791 18.4323 9.11079 18.792 8.90366 19.1517C8.54586 19.8534 8.18758 20.5552 7.83074 21.2574C7.71019 21.4942 7.58965 21.7305 7.46959 21.9672C7.43563 22.3222 7.53177 22.6785 7.7365 23.022C8.04456 23.5377 8.48894 23.7663 9.00124 23.8514C10.4076 23.8519 11.8139 23.8519 13.2202 23.8519C13.7316 23.8519 14.2429 23.8524 14.7543 23.8524Z" fill="#DCD5F6"/>
</g>
<defs>
<filter id="filter0_b_530_854" x="-30" y="-30" width="92" height="92" filterUnits="userSpaceOnUse" color-interpolation-filters="sRGB">
<feFlood flood-opacity="0" result="BackgroundImageFix"/>
<feGaussianBlur in="BackgroundImageFix" stdDeviation="15"/>
<feComposite in2="SourceAlpha" operator="in" result="effect1_backgroundBlur_530_854"/>
<feBlend mode="normal" in="SourceGraphic" in2="effect1_backgroundBlur_530_854" result="shape"/>
</filter>
</defs>
</svg>
