<svg width="32" height="32" viewBox="0 0 32 32" fill="none" xmlns="http://www.w3.org/2000/svg">
<g filter="url(#filter0_b_530_848)">
<rect width="32" height="32" rx="16" fill="white"/>
<path fill-rule="evenodd" clip-rule="evenodd" d="M14.5227 8.20192V9.40385H15.8569H17.191V8.20192V7H15.8569H14.5227V8.20192ZM8.2112 11.1428V12.3703H9.51969H10.8282V11.1428V9.91531H9.51969H8.2112V11.1428ZM11.3647 9.97954C11.3507 10.0158 11.3455 10.5628 11.3531 11.1951L11.367 12.3447H12.7011H14.0353V11.1428V9.94088L12.7127 9.92722C11.6703 9.91648 11.3847 9.92753 11.3647 9.97954ZM14.5227 11.1428V12.3703H15.8569H17.191V11.1428V9.91531H15.8569H14.5227V11.1428ZM22.9674 10.9554C22.6989 11.3848 22.5268 11.7835 22.363 12.3556C22.2723 12.6727 22.2492 12.8843 22.25 13.3932C22.251 14.0838 22.3241 14.4545 22.566 14.9958C22.7175 15.3347 22.7241 15.3228 22.292 15.4862C21.5788 15.7558 21.9654 15.7459 12.169 15.7459H3.08891L3.06033 15.9377C2.89433 17.0517 3.07808 18.626 3.52307 19.9027C3.89961 20.9831 4.59629 22.1109 5.32058 22.8128C6.3314 23.7922 7.76694 24.5042 9.3168 24.7947C10.4182 25.0011 11.5018 25.0485 12.9189 24.952C18.2792 24.5872 22.3097 22.0339 24.51 17.6092L24.9457 16.733L25.5198 16.701C26.227 16.6616 26.6327 16.5637 27.1971 16.2965C27.5541 16.1275 27.7133 16.01 28.0743 15.6495C28.4361 15.288 28.5588 15.1218 28.7576 14.7237L29 14.2386L28.8811 14.141C28.6674 13.9657 27.9495 13.6528 27.5563 13.5634C27.2746 13.4994 26.941 13.4762 26.3119 13.4768L25.4524 13.4777L25.4014 13.2948C25.3733 13.1942 25.3503 13.0855 25.3501 13.0532C25.3494 12.9063 24.8652 12.0554 24.6058 11.7452C24.3316 11.4175 23.6865 10.8616 23.3569 10.6691L23.2026 10.5791L22.9674 10.9554ZM5.02978 14.0837V15.2856H6.36393H7.69807V14.0837V12.8818H6.36393H5.02978V14.0837ZM8.2112 14.0837V15.2856H9.51969H10.8282V14.0837V12.8818H9.51969H8.2112V14.0837ZM11.3413 14.0837V15.2856H12.7011H14.0609V14.0837V12.8818H12.7011H11.3413V14.0837ZM14.5227 14.0837V15.2856H15.8569H17.191V14.0837V12.8818H15.8569H14.5227V14.0837ZM17.7042 14.0837V15.2856H19.0383H20.3724V14.0837V12.8818H19.0383H17.7042V14.0837Z" fill="#066DA5"/>
</g>
<defs>
<filter id="filter0_b_530_848" x="-30" y="-30" width="92" height="92" filterUnits="userSpaceOnUse" color-interpolation-filters="sRGB">
<feFlood flood-opacity="0" result="BackgroundImageFix"/>
<feGaussianBlur in="BackgroundImageFix" stdDeviation="15"/>
<feComposite in2="SourceAlpha" operator="in" result="effect1_backgroundBlur_530_848"/>
<feBlend mode="normal" in="SourceGraphic" in2="effect1_backgroundBlur_530_848" result="shape"/>
</filter>
</defs>
</svg>
