<svg width="22" height="18" viewBox="0 0 22 18" fill="none" xmlns="http://www.w3.org/2000/svg">
<path d="M18.8257 13.7519C17.2592 11.0077 15.6725 8.27488 14.0916 5.53923C13.5534 4.6079 13.0368 3.66317 12.47 2.74953C11.7027 1.51349 10.1988 1.49675 9.37128 2.69309C9.24931 2.86959 9.14598 3.0595 9.03836 3.24557C8.50309 4.17308 7.96782 5.10011 7.43256 6.02762C8.0391 5.52345 8.87476 5.65069 9.33732 6.41843C9.74344 7.09241 10.1137 7.78936 10.4992 8.47626C11.6315 10.4944 12.7685 12.5101 13.8907 14.534C14.0447 14.8124 14.1868 15.1248 14.2289 15.4362C14.3236 16.1302 13.8414 16.7243 13.1622 16.8119C12.8957 16.8463 12.624 16.8501 12.3547 16.8506C11.4875 16.853 10.6202 16.853 9.753 16.8525C9.74678 16.8669 9.74009 16.8812 9.73291 16.8951C10.1247 16.8951 10.5164 16.8951 10.9082 16.8951C12.8326 16.8951 14.7574 16.898 16.6818 16.8932C17.0578 16.8922 17.4366 16.887 17.8088 16.8406C18.7573 16.7224 19.4299 15.9164 19.2979 14.9755C19.239 14.5527 19.041 14.1293 18.8257 13.7519Z" fill="#9780E4"/>
<path d="M21.0257 15.7082C20.9549 15.204 20.7195 14.6989 20.4627 14.2488C18.5952 10.975 16.7038 7.71461 14.8192 4.4504C14.1777 3.3392 13.5621 2.21175 12.8862 1.12208C11.9716 -0.352653 10.1788 -0.372265 9.19241 1.05463C9.04699 1.26511 8.92358 1.49184 8.79538 1.71379C7.00063 4.8259 5.20445 7.93752 3.41401 11.052C2.66254 12.3584 1.9034 13.6609 1.18589 14.9859C0.833349 15.6369 0.899839 16.3162 1.28204 16.9572C1.77999 17.7914 2.57643 17.9976 3.46854 17.998C5.98702 17.9995 8.50598 17.9985 11.0245 17.999C13.3186 17.999 15.6127 18.0024 17.9069 17.9966C18.3551 17.9957 18.8066 17.989 19.2501 17.9335C20.3813 17.7919 21.183 16.8309 21.0257 15.7082ZM17.8098 16.8405C17.4376 16.8869 17.0588 16.8921 16.6828 16.8931C14.7584 16.8979 12.8336 16.8955 10.9092 16.895C10.5174 16.895 10.1257 16.895 9.73389 16.895C8.01281 16.895 6.29173 16.8955 4.57065 16.8945C4.37405 16.8945 4.18319 16.8821 4.00094 16.8515C3.48864 16.7663 3.04425 16.5377 2.7362 16.022C2.53099 15.6786 2.43484 15.3222 2.46928 14.9673C2.48842 14.7668 2.54869 14.5669 2.65584 14.3698C3.06004 13.6241 3.4805 12.8869 3.90384 12.1517C4.11096 11.792 4.31808 11.4323 4.52521 11.0726C4.84665 10.5139 5.16906 9.95565 5.49098 9.39695C6.13818 8.2738 6.78586 7.15017 7.43401 6.0275C7.96928 5.09999 8.50455 4.17296 9.03981 3.24545C9.14744 3.05937 9.25076 2.86947 9.37274 2.69296C10.1998 1.49662 11.7042 1.51337 12.4715 2.74941C13.0383 3.66304 13.5549 4.60777 14.093 5.53911C15.674 8.27523 17.2606 11.0075 18.8272 13.7518C19.0425 14.1292 19.2405 14.5525 19.2993 14.9749C19.4309 15.9158 18.7583 16.7218 17.8098 16.8405Z" fill="#4F29D2"/>
<path d="M3.90294 12.1519C3.4796 12.8875 3.05962 13.6242 2.65494 14.3699C2.54827 14.567 2.488 14.767 2.46838 14.9674C2.58845 14.7306 2.70899 14.4943 2.82953 14.2575C3.18733 13.5553 3.54514 12.8536 3.90294 12.1519Z" fill="#B9A9EE"/>
<path d="M6.59192 9.79784C6.86027 10.2872 7.10471 10.7938 7.35966 11.2927C8.10779 12.7588 8.85927 14.223 9.6007 15.693C9.70259 15.8953 9.79635 16.122 9.82409 16.3483C9.84657 16.5305 9.81883 16.7032 9.75377 16.8525C10.621 16.8529 11.4882 16.8529 12.3555 16.8505C12.6248 16.8501 12.896 16.8458 13.1629 16.8118C13.8422 16.7243 14.3243 16.1302 14.2296 15.4361C14.1871 15.1242 14.0455 14.8118 13.8914 14.5339C12.7693 12.5101 11.6327 10.4943 10.5 8.47618C10.1144 7.78928 9.74469 7.09233 9.33809 6.41834C8.87553 5.65108 8.03987 5.52336 7.43333 6.02754C6.78517 7.15069 6.13749 8.27384 5.4903 9.39699C5.86914 9.17839 6.32453 9.31041 6.59192 9.79784Z" fill="#B9A9EE"/>
<path d="M8.21985 16.8519C6.81352 16.8519 5.40719 16.8524 4.00085 16.8514C4.1831 16.8816 4.37396 16.8945 4.57056 16.8945C6.29164 16.8954 8.01272 16.895 9.7338 16.895C9.74098 16.8811 9.74768 16.8667 9.75389 16.8524C9.24255 16.8524 8.7312 16.8519 8.21985 16.8519Z" fill="#DCD5F6"/>
<path d="M9.75435 16.8523C9.8194 16.7031 9.84715 16.5304 9.82466 16.3482C9.79644 16.1219 9.70316 15.8947 9.60128 15.6928C8.85984 14.2224 8.10837 12.7582 7.36024 11.2926C7.10528 10.7936 6.86085 10.2871 6.59249 9.79773C6.3251 9.31029 5.86924 9.17827 5.49087 9.39687C5.16894 9.95558 4.84654 10.5138 4.52509 11.0725C4.31797 11.4322 4.11085 11.7919 3.90372 12.1517C3.54592 12.8534 3.18764 13.5551 2.8308 14.2573C2.71026 14.4941 2.58971 14.7304 2.46965 14.9672C2.43569 15.3221 2.53183 15.6785 2.73656 16.0219C3.04462 16.5376 3.489 16.7662 4.00131 16.8514C5.40764 16.8519 6.81397 16.8519 8.2203 16.8519C8.73165 16.8519 9.243 16.8523 9.75435 16.8523Z" fill="#DCD5F6"/>
</svg>
