<svg width="31" height="32" viewBox="0 0 31 32" fill="none" xmlns="http://www.w3.org/2000/svg">
<g filter="url(#filter0_b_530_852)">
<rect width="31" height="32" rx="15.5" fill="white"/>
<path fill-rule="evenodd" clip-rule="evenodd" d="M15.2524 26.9783C15.0319 26.9366 14.979 26.9158 14.5434 26.6995C14.1843 26.5212 14.0832 26.4714 12.8048 25.8429C12.2014 25.5462 11.5937 25.2471 11.4544 25.1781C11.3152 25.1092 10.7949 24.8531 10.2982 24.609C9.80148 24.3649 9.29255 24.1146 9.16722 24.0527C8.6798 23.8119 8.14139 23.5472 7.64804 23.306C7.36488 23.1675 7.08323 23.02 7.02212 22.9782C6.82659 22.8443 6.64284 22.6356 6.54438 22.4355C6.44274 22.2289 6.46673 22.3262 5.99232 20.1976C5.93692 19.9489 5.8694 19.6478 5.8423 19.5282C5.81519 19.4087 5.74269 19.084 5.6812 18.8068C5.6197 18.5295 5.47938 17.8997 5.36934 17.4073C5.25932 16.9148 5.11893 16.2851 5.05737 16.0078C4.99581 15.7305 4.91968 15.3902 4.8882 15.2515C4.85672 15.1129 4.78069 14.7726 4.71925 14.4953C4.65783 14.218 4.58337 13.8894 4.5538 13.7651C4.50513 13.5605 4.50003 13.5136 4.5 13.2696C4.49997 13.0356 4.50517 12.983 4.53953 12.8698C4.62044 12.6032 4.70026 12.479 5.20973 11.8267C5.47486 11.4872 5.86875 10.9826 6.08504 10.7054C6.30134 10.4281 6.63725 9.99779 6.83152 9.74918C7.0258 9.50058 7.85371 8.44053 8.67129 7.39352C9.4889 6.34651 10.2052 5.4447 10.2632 5.38948C10.4381 5.22276 10.6655 5.09973 10.9215 5.03332C11.0231 5.00696 11.401 5.00423 15.4212 5.00069C18.3568 4.99812 19.8518 5.00276 19.9365 5.01474C20.2495 5.05896 20.5432 5.2062 20.7629 5.42902C20.8336 5.50073 21.211 5.97013 21.6016 6.47212C21.9921 6.97411 22.5988 7.75252 22.9496 8.20192C23.3005 8.65132 23.8101 9.30456 24.0821 9.65357C24.7571 10.5197 25.8979 11.9804 26.1528 12.3048C26.4017 12.6215 26.5154 12.9622 26.4983 13.3392C26.4909 13.5022 26.3973 13.9757 26.2663 14.5127C26.257 14.5509 26.124 15.1455 25.9707 15.8339C25.8174 16.5224 25.6617 17.2186 25.6248 17.3812C25.5879 17.5437 25.4437 18.1892 25.3044 18.8154C25.1651 19.4417 25.032 20.0363 25.0088 20.1367C24.9856 20.2371 24.8719 20.7442 24.7562 21.2635C24.5662 22.1161 24.5385 22.2237 24.4705 22.3715C24.3492 22.6352 24.1764 22.8389 23.9433 22.9929C23.8795 23.0351 23.364 23.2969 22.7976 23.5747C22.2313 23.8525 21.654 24.1363 21.5148 24.2052C21.3755 24.2742 20.6957 24.6083 20.004 24.9477C19.3124 25.2872 18.5917 25.6422 18.4024 25.7367C18.2132 25.8312 18.0562 25.9085 18.0535 25.9085C18.0509 25.9085 17.9361 25.9643 17.7984 26.0325C16.7444 26.5546 16.0182 26.9041 15.9283 26.9327C15.7098 27.0023 15.4661 27.0187 15.2524 26.9783ZM15.7037 24.0705C15.9105 23.9546 15.9994 23.7032 15.9546 23.3616C15.9446 23.2851 15.921 23.1052 15.9022 22.9618C15.8435 22.514 15.8306 22.2747 15.8573 22.1336C15.8642 22.0974 15.898 22.0368 15.9364 21.9919C15.9957 21.9225 16.0035 21.9031 16.0035 21.8258C16.0035 21.7776 16.0092 21.7346 16.0162 21.7303C16.0231 21.726 16.0668 21.7173 16.1132 21.7111C16.5569 21.651 16.8011 21.601 17.1313 21.5024C18.0615 21.2246 18.9312 20.7059 19.6173 20.0199C19.7156 19.9216 19.8018 19.8412 19.809 19.8412C19.8161 19.8412 19.8531 19.8666 19.8912 19.8977C19.953 19.9481 19.9752 19.9552 20.0987 19.9638C20.2296 19.9729 20.2423 19.9775 20.3357 20.0496C20.39 20.0915 20.6206 20.3185 20.848 20.554C21.211 20.9297 21.2759 20.9894 21.3784 21.0414C21.4782 21.0919 21.5127 21.1006 21.6147 21.1004C21.7148 21.1003 21.7489 21.092 21.8246 21.0493C21.9364 20.9864 22.0061 20.9018 22.0385 20.7898C22.0717 20.6753 22.0699 20.6141 22.0291 20.4782C21.9745 20.296 21.8636 20.1918 21.4895 19.9709C21.1933 19.7961 20.9114 19.6046 20.7753 19.4857C20.6629 19.3875 20.6117 19.2977 20.6117 19.199C20.6117 19.1609 20.5925 19.1313 20.5324 19.0768L20.453 19.0049L20.4822 18.958C20.9729 18.1689 21.288 17.3021 21.3967 16.4424C21.4112 16.3277 21.4274 16.2103 21.4326 16.1816C21.4546 16.06 21.4526 15.2049 21.4298 15.0168C21.3973 14.7477 21.392 14.7696 21.4961 14.7385C21.5688 14.7167 21.5964 14.6974 21.6334 14.6423C21.689 14.5598 21.753 14.517 21.8777 14.479C21.9986 14.4423 22.429 14.3852 22.7386 14.3649C23.0052 14.3474 23.0045 14.3475 23.1521 14.3036C23.2917 14.2622 23.3612 14.2227 23.4322 14.1447C23.5431 14.0229 23.5728 13.9542 23.5732 13.818C23.5736 13.6738 23.5402 13.5903 23.4437 13.4939C23.3102 13.3604 23.1369 13.3165 22.9327 13.3643C22.7687 13.4027 22.7912 13.3949 22.5073 13.5109C22.3033 13.5943 22.0342 13.6906 21.8861 13.7332C21.6292 13.8072 21.5398 13.8087 21.436 13.7409C21.3675 13.6962 21.351 13.6923 21.285 13.7054C21.1856 13.7252 21.1687 13.7249 21.1687 13.7034C21.1687 13.6796 21.0847 13.4538 20.9781 13.1914C20.6837 12.4665 20.2041 11.7457 19.6477 11.1921C19.3377 10.8837 18.9966 10.6066 18.6645 10.3934L18.5382 10.3123L18.5791 10.2169C18.6171 10.1285 18.6182 10.1179 18.5947 10.071C18.5807 10.0431 18.5693 9.98565 18.5693 9.9432C18.5693 9.81099 18.7871 9.40414 19.1431 8.87124C19.2806 8.66553 19.3365 8.51702 19.3357 8.36C19.334 8.05959 19.1373 7.86217 18.8609 7.88362C18.7369 7.89325 18.6484 7.93694 18.5513 8.0365C18.453 8.13739 18.4053 8.24072 18.2984 8.58439C18.1776 8.97263 18.0541 9.31058 17.9812 9.45199C17.9351 9.54154 17.9003 9.58458 17.8443 9.62149C17.8031 9.6487 17.7556 9.67095 17.739 9.67095C17.7199 9.67095 17.6896 9.70576 17.6573 9.76479L17.6058 9.85864L17.4809 9.80909C17.4122 9.78183 17.2814 9.73896 17.1903 9.71382C17.0993 9.68868 16.9779 9.65355 16.9205 9.63575C16.8002 9.59835 16.3869 9.52671 16.1048 9.49434C15.8929 9.47003 15.193 9.46463 14.9907 9.48573C14.807 9.50491 14.4259 9.56264 14.2987 9.59058C14.1026 9.63363 13.6688 9.7608 13.5429 9.81212C13.4753 9.83966 13.4134 9.86219 13.4052 9.86219C13.3971 9.86219 13.3676 9.82062 13.3398 9.76982C13.2979 9.69347 13.2773 9.67382 13.2209 9.6564C13.0491 9.60341 12.9511 9.3959 12.669 8.48877C12.5427 8.08268 12.3999 7.9153 12.1429 7.87204C12.05 7.85641 11.8978 7.90161 11.8145 7.96957C11.6812 8.07828 11.6198 8.30833 11.6733 8.49802C11.714 8.64228 11.7616 8.73249 11.9451 9.01295C12.1433 9.31595 12.2985 9.58646 12.3718 9.75631C12.4301 9.89174 12.4368 10.0005 12.392 10.0868C12.3759 10.1177 12.3802 10.1416 12.4167 10.2236C12.459 10.3184 12.4596 10.3239 12.4303 10.3454C12.4135 10.3578 12.3275 10.4166 12.2393 10.476C11.8695 10.7253 11.6074 10.9454 11.2848 11.278C10.7191 11.8611 10.3493 12.4237 9.99869 13.2349C9.9801 13.2779 9.93301 13.4036 9.89403 13.5142L9.82319 13.7153L9.72525 13.699C9.63364 13.6839 9.622 13.686 9.54533 13.7323C9.4794 13.7721 9.4451 13.7812 9.37015 13.7791C9.25164 13.7756 8.83028 13.6427 8.45523 13.4905C8.13298 13.3597 8.01575 13.331 7.8516 13.3431C7.72225 13.3527 7.62716 13.3989 7.53149 13.4989C7.43961 13.5949 7.42066 13.6462 7.4204 13.7999C7.4202 13.9201 7.42638 13.9498 7.46594 14.0192C7.51819 14.1107 7.60356 14.1934 7.69494 14.2409C7.7926 14.2917 8.04301 14.3436 8.24727 14.3553C8.48898 14.3692 8.85549 14.4121 9.0153 14.4452C9.19036 14.4815 9.27228 14.526 9.34513 14.6243C9.39834 14.6962 9.41993 14.7111 9.49942 14.7307L9.59183 14.7536L9.58012 14.8591C9.57367 14.9172 9.56545 14.9803 9.56184 14.9994C9.53415 15.1458 9.52376 15.7358 9.54374 16.0252C9.567 16.3618 9.65592 16.9367 9.71315 17.1204C9.71613 17.13 9.72777 17.173 9.73901 17.216C9.88708 17.7826 10.1324 18.3612 10.4413 18.8723L10.5229 19.0074L10.4557 19.0666C10.4018 19.1141 10.3844 19.1448 10.3677 19.2217C10.3562 19.2743 10.33 19.3432 10.3094 19.3748C10.2392 19.482 9.85924 19.753 9.42886 20.0028C9.07045 20.2109 8.92716 20.3904 8.92716 20.6315C8.92716 20.9971 9.27598 21.2002 9.61454 21.0316C9.69848 20.9899 9.77795 20.916 10.0787 20.6003C10.4475 20.2132 10.6665 20.0124 10.768 19.9682C10.7994 19.9546 10.8678 19.9454 10.9225 19.9474C11.0107 19.9507 11.0279 19.9452 11.0905 19.8941L11.1603 19.8372L11.3243 20C11.7013 20.3744 11.9945 20.6073 12.4328 20.8806C13.1432 21.3234 14.0749 21.6415 14.8726 21.7134C14.9236 21.718 14.9692 21.7256 14.9739 21.7304C14.9785 21.7351 14.9829 21.7767 14.9836 21.8227C14.9846 21.8873 14.9954 21.9193 15.0308 21.9627C15.1348 22.09 15.1439 22.1288 15.1356 22.4097C15.1315 22.5508 15.1244 22.6858 15.1199 22.7097C15.1155 22.7336 15.1071 22.8001 15.1012 22.8575C15.0954 22.9148 15.0749 23.0662 15.0556 23.194C15.0089 23.5041 15.0163 23.7083 15.0792 23.8407C15.2043 24.104 15.4697 24.2016 15.7037 24.0705ZM14.7966 20.4284C13.8822 20.296 12.9305 19.8331 12.2991 19.2134L12.1816 19.0981L12.3244 18.9923C12.4628 18.8898 12.7954 18.647 13.5306 18.1117C13.7256 17.9698 13.9345 17.8167 13.9948 17.7716C14.1729 17.6385 14.2695 17.5955 14.3806 17.6C14.5744 17.6079 14.7187 17.7325 14.7526 17.9211C14.7695 18.0151 14.7946 18.3503 14.813 18.7285C14.8208 18.8885 14.8374 19.1693 14.8468 19.3022C14.8512 19.3644 14.8589 19.4974 14.8639 19.5978C14.8688 19.6982 14.8806 19.9281 14.89 20.1088C14.8994 20.2895 14.905 20.4386 14.9025 20.4402C14.9 20.4418 14.8523 20.4364 14.7966 20.4284ZM16.0881 20.3728C16.0882 20.3338 16.0952 20.1767 16.1038 20.0237C16.1124 19.8707 16.1239 19.6478 16.1296 19.5282C16.1352 19.4087 16.143 19.2679 16.147 19.2153C16.1509 19.1627 16.1594 19.0219 16.1657 18.9024C16.1721 18.7828 16.1792 18.6577 16.1815 18.6242C16.1838 18.5907 16.1946 18.4186 16.2055 18.2417C16.2222 17.9712 16.2315 17.906 16.2643 17.8313C16.3506 17.6347 16.5788 17.5534 16.7829 17.6463C16.8235 17.6648 16.9629 17.7578 17.0926 17.8529C17.2224 17.948 17.4615 18.1227 17.624 18.2411C17.7865 18.3595 18.0219 18.5317 18.1473 18.6238C18.2726 18.7159 18.4642 18.8559 18.5732 18.9349C18.6821 19.0139 18.7752 19.0852 18.7802 19.0935C18.7916 19.1125 18.5288 19.3558 18.3466 19.4949C18.1333 19.6577 17.9021 19.809 17.7253 19.9013C17.6371 19.9473 17.5573 19.991 17.548 19.9983C17.5103 20.0279 17.0985 20.1972 16.9488 20.2447C16.6432 20.3415 16.5142 20.374 16.2857 20.4114L16.0879 20.4438L16.0881 20.3728ZM11.4069 18.0871C11.2821 17.8928 11.0403 17.3246 10.971 17.0626C10.9516 16.9892 10.9292 16.9165 10.9213 16.9009C10.8963 16.8519 10.8242 16.4523 10.7947 16.199C10.7615 15.9155 10.7517 15.4387 10.775 15.2515C10.7839 15.1798 10.7927 15.1195 10.7945 15.1174C10.7962 15.1154 10.8353 15.1258 10.8813 15.1406C10.9676 15.1683 11.245 15.2503 11.657 15.3699C11.787 15.4076 11.9579 15.4587 12.0368 15.4835C12.1964 15.5336 12.4856 15.6196 12.8308 15.7198C13.1897 15.824 13.2818 15.8848 13.3374 16.0539C13.3882 16.2083 13.3561 16.3638 13.2483 16.4859C13.2272 16.5099 12.9517 16.7678 12.636 17.059C12.3204 17.3502 11.9243 17.7156 11.7559 17.871L11.4496 18.1535L11.4069 18.0871ZM19.3533 17.9932C19.26 17.9052 18.903 17.575 18.56 17.2595C17.7071 16.475 17.6794 16.4469 17.6419 16.3294C17.6251 16.2768 17.6144 16.207 17.6182 16.1742C17.6264 16.103 17.6814 15.9698 17.7217 15.9239C17.7753 15.8628 17.9415 15.7913 18.2096 15.7141C18.3564 15.6718 18.6245 15.5928 18.8056 15.5386C19.1476 15.4361 19.3103 15.3881 19.8352 15.2347C20.007 15.1845 20.1608 15.1361 20.177 15.1273C20.1979 15.1159 20.2068 15.1178 20.2072 15.1336C20.2075 15.1459 20.2128 15.2028 20.2189 15.2602C20.2338 15.3998 20.2332 15.7451 20.2178 15.9382C20.2013 16.146 20.1451 16.5383 20.1133 16.6684C20.0992 16.7258 20.0839 16.7904 20.0793 16.8121C20.0313 17.035 19.8563 17.5209 19.7304 17.7809C19.686 17.8726 19.5296 18.1562 19.5248 18.154C19.5238 18.1535 19.4466 18.0811 19.3533 17.9932ZM14.907 16.0897C14.786 15.9337 14.6869 15.7925 14.6869 15.776C14.6869 15.7594 14.7129 15.6366 14.7446 15.503C14.7763 15.3695 14.8108 15.2172 14.8212 15.1646L14.8402 15.069L15.1691 14.909L15.4981 14.7489L15.8232 14.9103L16.1484 15.0718L16.1868 15.2529C16.208 15.3526 16.2286 15.4478 16.2326 15.4645C16.2366 15.4812 16.2436 15.5106 16.2483 15.5297C16.2529 15.5488 16.2598 15.5782 16.2636 15.5949C16.2674 15.6116 16.2795 15.6617 16.2905 15.7062L16.3106 15.7871L16.0959 16.0672C15.9778 16.2213 15.8726 16.353 15.8622 16.3598C15.8517 16.3666 15.6821 16.3725 15.4851 16.3727L15.1271 16.3733L14.907 16.0897ZM13.0993 14.2911C12.9373 14.2638 12.7896 14.2382 12.7711 14.2342C12.7525 14.2302 12.555 14.1957 12.3322 14.1575C12.1094 14.1194 11.9081 14.0843 11.8849 14.0795C11.8617 14.0748 11.8199 14.0664 11.792 14.0608C11.7642 14.0552 11.5933 14.0265 11.4122 13.997C11.2312 13.9676 11.0765 13.9373 11.0685 13.9297C11.0605 13.9222 11.0862 13.8351 11.1255 13.7362C11.4623 12.8888 12.0315 12.1609 12.7941 11.6021C12.8626 11.5519 12.9246 11.5174 12.9319 11.5254C12.9393 11.5333 12.9734 11.6102 13.0077 11.6963C13.0419 11.7824 13.1077 11.9466 13.154 12.0614C13.2002 12.1761 13.26 12.3268 13.2869 12.3962C13.3138 12.4656 13.3504 12.5555 13.3683 12.5961C13.3985 12.6646 13.4452 12.781 13.6318 13.2523C13.6716 13.3527 13.7248 13.4856 13.7501 13.5478C13.7754 13.61 13.8041 13.6804 13.8138 13.7043C13.8235 13.7282 13.8306 13.7524 13.8296 13.7581C13.8286 13.7638 13.8383 13.8046 13.8512 13.8487C13.9237 14.0967 13.704 14.3652 13.4453 14.3447C13.417 14.3425 13.2613 14.3183 13.0993 14.2911ZM17.3242 14.3029C17.1614 14.2193 17.0794 14.0071 17.1395 13.8251C17.1688 13.7365 17.266 13.4867 17.3795 13.2088C17.4536 13.0272 17.5111 12.8841 17.6817 12.4569C17.7228 12.3541 17.799 12.1644 17.8511 12.0353C17.9032 11.9062 17.9729 11.7322 18.0061 11.6486C18.0454 11.5493 18.0731 11.5007 18.0857 11.5086C18.0963 11.5153 18.1696 11.5678 18.2485 11.6254C18.8655 12.0756 19.3927 12.7072 19.7297 13.4C19.8029 13.5505 19.9578 13.9315 19.9494 13.9402C19.9465 13.9432 19.796 13.9696 19.615 13.999C19.434 14.0284 19.267 14.0571 19.244 14.0628C19.221 14.0685 19.0275 14.1029 18.814 14.1392C18.3711 14.2146 18.3089 14.2256 18.2591 14.2366C18.0962 14.2729 17.5952 14.3474 17.5134 14.3474C17.4374 14.3475 17.3889 14.3361 17.3242 14.3029ZM15.3349 13.3143C15.2162 13.2611 15.1735 13.1927 14.6727 12.2526C14.5493 12.0211 14.438 11.8134 14.3463 11.6441C14.1 11.1893 13.9945 10.9868 14.0004 10.9806C14.0042 10.9768 14.1118 10.9429 14.2396 10.9053C14.4782 10.835 14.7841 10.7758 15.0076 10.7566C15.0773 10.7506 15.1532 10.7425 15.1764 10.7385C15.241 10.7276 15.7288 10.7293 15.8432 10.7408C16.1783 10.7745 16.4675 10.8225 16.6787 10.8793C16.8558 10.9271 16.9769 10.9648 16.9891 10.9761C16.9976 10.984 16.9613 11.0687 16.9064 11.1694C16.8526 11.268 16.7766 11.4073 16.7374 11.479C16.6982 11.5507 16.6241 11.6876 16.5728 11.7832C16.229 12.4236 16.0471 12.7638 15.9601 12.9287C15.7914 13.2484 15.6874 13.3387 15.4887 13.3381C15.433 13.3379 15.3638 13.3272 15.3349 13.3143Z" fill="#326DE6"/>
</g>
<defs>
<filter id="filter0_b_530_852" x="-30" y="-30" width="91" height="92" filterUnits="userSpaceOnUse" color-interpolation-filters="sRGB">
<feFlood flood-opacity="0" result="BackgroundImageFix"/>
<feGaussianBlur in="BackgroundImageFix" stdDeviation="15"/>
<feComposite in2="SourceAlpha" operator="in" result="effect1_backgroundBlur_530_852"/>
<feBlend mode="normal" in="SourceGraphic" in2="effect1_backgroundBlur_530_852" result="shape"/>
</filter>
</defs>
</svg>
