<svg width="32" height="32" viewBox="0 0 32 32" fill="none" xmlns="http://www.w3.org/2000/svg">
<g filter="url(#filter0_b_530_846)">
<rect width="32" height="32" rx="16" fill="white"/>
<path fill-rule="evenodd" clip-rule="evenodd" d="M15.6323 3.11209C15.0609 3.42316 13.8957 4.1438 13.778 4.25892C13.7035 4.33173 13.6208 4.47259 13.5941 4.57192C13.5302 4.80981 13.5314 6.78169 13.5956 7.02071C13.6632 7.27242 13.8481 7.42775 14.6132 7.87556L15.2636 8.25625L15.2638 8.65181C15.2639 8.94775 15.2889 9.0978 15.3628 9.24775C15.474 9.47306 15.757 9.65266 16.0007 9.65266C16.2444 9.65266 16.5273 9.47306 16.6385 9.24775C16.7121 9.09851 16.7377 8.94638 16.7385 8.65181L16.7396 8.25625L17.3888 7.87541C18.1543 7.42638 18.3384 7.27166 18.4058 7.02071C18.47 6.78169 18.4712 4.80981 18.4073 4.57192C18.338 4.31406 18.1815 4.18265 17.3513 3.68543C16.0872 2.92827 16.0145 2.90405 15.6323 3.11209ZM7.1111 8.19674C7.04357 8.2335 6.66785 8.45398 6.27617 8.68675C4.90732 9.50022 5.00137 9.33722 5.00137 10.8967C5.00137 11.8687 5.01296 12.0403 5.09071 12.217C5.13987 12.3287 5.21124 12.4459 5.2493 12.4775C5.28731 12.509 5.72732 12.7809 6.22706 13.0815C7.46605 13.8268 7.42111 13.8237 8.41262 13.2326L9.14932 12.7934L9.29666 12.8799C9.93229 13.2531 10.1225 13.2898 10.4022 13.0929C10.6664 12.9069 10.7644 12.7319 10.7644 12.4455C10.7644 12.1206 10.6659 11.9786 10.2395 11.6887L9.91058 11.4651L9.91029 10.6732C9.91 9.8218 9.86918 9.57065 9.69954 9.37678C9.64007 9.30879 9.16268 9.00026 8.63874 8.69122C7.80459 8.19918 7.65798 8.12935 7.46001 8.12961C7.33565 8.12981 7.17863 8.15997 7.1111 8.19674ZM23.3677 8.68772C22.841 8.99934 22.3613 9.3097 22.3018 9.37739C22.1319 9.57065 22.0914 9.8219 22.0911 10.6833L22.0908 11.4854L21.9385 11.5719C21.4138 11.8701 21.2399 12.0861 21.2348 12.4466C21.2309 12.7238 21.3336 12.906 21.5992 13.0929C21.8771 13.2885 22.1158 13.2411 22.7293 12.8688C22.8467 12.7975 22.8843 12.8134 23.5888 13.2332C24.5804 13.824 24.5356 13.8271 25.7743 13.0829C26.2741 12.7827 26.7141 12.5107 26.7521 12.4786C26.7901 12.4464 26.8615 12.3287 26.9107 12.217C26.9884 12.0403 27 11.8687 27 10.8967C27 9.92478 26.9884 9.7532 26.9107 9.57649C26.8615 9.46478 26.7901 9.34697 26.7521 9.31473C26.7141 9.28248 26.2741 9.01031 25.7743 8.70991C24.5071 7.94823 24.616 7.94924 23.3677 8.68772ZM15.5785 11.318C14.8514 11.7167 12.6204 13.0836 12.6505 13.1119C12.8017 13.2546 15.9783 15.0906 16.0435 15.073C16.1246 15.051 19.2808 13.1797 19.352 13.1113C19.3839 13.0806 17.9311 12.1879 16.6392 11.4445C16.0972 11.1326 15.9489 11.1149 15.5785 11.318ZM11.8751 16.345C11.8751 18.2575 11.8759 18.2711 11.9856 18.4386C12.0687 18.5653 12.4803 18.8378 13.6432 19.536C14.4941 20.0468 15.2069 20.4656 15.2271 20.4666C15.2474 20.4676 15.2637 19.5602 15.2634 18.45L15.2629 16.4316L13.8559 15.5937C13.0821 15.1329 12.3199 14.6803 12.1621 14.5879L11.8751 14.4199V16.345ZM18.4206 15.4302L16.7396 16.4316L16.7385 18.45C16.7379 19.5602 16.7539 20.4677 16.7742 20.4667C16.7945 20.4658 17.5065 20.0488 18.3564 19.54C19.5431 18.8298 19.9278 18.575 20.014 18.4425C20.126 18.2704 20.1262 18.2659 20.1262 16.3479C20.1262 15.2907 20.1207 14.4265 20.114 14.4273C20.1072 14.4281 19.3452 14.8794 18.4206 15.4302ZM7.1111 18.4032C7.04357 18.44 6.66785 18.6605 6.27617 18.8932C4.90732 19.7067 5.00137 19.5437 5.00137 21.1032C5.00137 22.0752 5.01296 22.2467 5.09071 22.4234C5.13987 22.5352 5.21124 22.6524 5.2493 22.6839C5.28731 22.7155 5.72732 22.9873 6.22706 23.2879C7.4994 24.0533 7.38324 24.053 8.65818 23.2954C9.19844 22.9743 9.68058 22.6565 9.72965 22.589C9.87026 22.3957 9.90818 22.1243 9.90941 21.3014L9.91058 20.5348L10.2395 20.3112C10.6659 20.0214 10.7644 19.8793 10.7644 19.5545C10.7644 19.2681 10.6664 19.093 10.4022 18.907C10.1241 18.7113 9.89688 18.7562 9.27211 19.1302C9.15512 19.2002 9.11475 19.1832 8.4161 18.7697C7.78853 18.3983 7.65047 18.3358 7.45839 18.3361C7.33491 18.3363 7.17863 18.3664 7.1111 18.4032ZM23.5888 18.7667C22.8843 19.1865 22.8467 19.2025 22.7293 19.1312C22.1158 18.7588 21.8771 18.7114 21.5992 18.907C21.3336 19.0939 21.2309 19.2761 21.2348 19.5533C21.2399 19.9138 21.4138 20.1299 21.9385 20.428L22.0908 20.5145L22.0911 21.3166C22.0914 22.178 22.1319 22.4293 22.3018 22.6225C22.3613 22.6902 22.841 23.0006 23.3677 23.3122C24.616 24.0507 24.5071 24.0517 25.7743 23.29C26.2741 22.9896 26.7141 22.7175 26.7521 22.6852C26.7901 22.653 26.8615 22.5352 26.9107 22.4234C26.9884 22.2467 27 22.0752 27 21.1032C27 20.1313 26.9884 19.9597 26.9107 19.783C26.8615 19.6713 26.7901 19.5535 26.7521 19.5214C26.7141 19.4892 26.2741 19.2172 25.7743 18.917C24.5356 18.1728 24.5804 18.1759 23.5888 18.7667ZM15.6452 22.452C15.3746 22.5996 15.264 22.8596 15.2638 23.3481L15.2636 23.7437L14.6132 24.1244C13.8481 24.5722 13.6632 24.7275 13.5956 24.9792C13.5314 25.2182 13.5302 27.1901 13.5941 27.428C13.6208 27.5273 13.7035 27.6682 13.778 27.741C13.9011 27.8614 15.1416 28.6259 15.643 28.8904C16.0272 29.093 16.0829 29.0743 17.3513 28.3145C18.1815 27.8173 18.338 27.6859 18.4073 27.428C18.4712 27.1901 18.47 25.2182 18.4058 24.9792C18.3384 24.7283 18.1543 24.5736 17.3888 24.1245L16.7396 23.7437L16.7385 23.3481C16.7371 22.8507 16.6265 22.5976 16.3458 22.4495C16.1038 22.3219 15.8821 22.3226 15.6452 22.452Z" fill="#12B2E7"/>
</g>
<defs>
<filter id="filter0_b_530_846" x="-30" y="-30" width="92" height="92" filterUnits="userSpaceOnUse" color-interpolation-filters="sRGB">
<feFlood flood-opacity="0" result="BackgroundImageFix"/>
<feGaussianBlur in="BackgroundImageFix" stdDeviation="15"/>
<feComposite in2="SourceAlpha" operator="in" result="effect1_backgroundBlur_530_846"/>
<feBlend mode="normal" in="SourceGraphic" in2="effect1_backgroundBlur_530_846" result="shape"/>
</filter>
</defs>
</svg>
