<svg width="32" height="32" viewBox="0 0 32 32" fill="none" xmlns="http://www.w3.org/2000/svg">
<g filter="url(#filter0_b_530_850)">
<rect width="32" height="32" rx="16" fill="white"/>
<path fill-rule="evenodd" clip-rule="evenodd" d="M17.5465 6.17529C17.4464 6.27165 17.3281 6.50988 17.2836 6.70471C17.2052 7.04788 17.1813 7.05882 16.5065 7.05882H15.8101L14.9831 7.86106L14.156 8.66329L14.192 9.65494L14.2278 10.6467L14.9567 10.734C16.8911 10.9658 18.3308 11.8022 19.3598 13.2922C19.818 13.9555 20.0012 14.1188 20.4891 14.2981C20.8094 14.4159 21.3466 14.7605 21.683 15.0638C22.1059 15.4453 22.4432 15.6414 22.7766 15.6996C23.3029 15.7916 24.1789 16.2052 24.7087 16.6118C24.9742 16.8155 25.0767 16.8395 25.1948 16.7259C25.3034 16.6213 25.3088 16.5261 25.2147 16.3791C25.0246 16.0824 23.8549 15.4301 23.15 15.2278C22.8075 15.1295 22.3375 14.8721 22.0806 14.6422C21.6531 14.2598 21.6222 14.1864 21.6222 13.5535C21.6222 12.8832 21.6307 12.8669 22.3285 12.2022C22.9874 11.5746 23.0736 11.5294 23.6119 11.5294C24.1684 11.5294 24.1889 11.5416 24.1889 11.8738C24.1889 12.4215 24.6693 12.7059 25.5944 12.7059C26.1798 12.7059 26.4304 12.6494 26.6779 12.462C26.977 12.2356 27 12.1524 27 11.294C27 10.0091 26.746 9.80365 25.2827 9.90553C24.4557 9.96318 24.3191 10.0518 24.2018 10.6067C24.12 10.9945 24.1085 11.0005 23.3899 11.0348C22.6711 11.0693 22.6497 11.0806 21.8361 11.8553C21.0287 12.624 21.0111 12.6538 21.0111 13.2506V13.8604L20.5905 13.7361C20.2975 13.6495 20.1226 13.5015 20.0133 13.2474C19.927 13.0469 19.47 12.5073 18.9976 12.0482C18.028 11.1058 16.9928 10.5488 15.8167 10.3368C15.4133 10.2641 15.0146 10.1867 14.9306 10.1648C14.8327 10.1393 14.7778 9.90035 14.7778 9.49965C14.7778 8.90071 14.805 8.84847 15.4232 8.26071C16.0188 7.69447 16.1137 7.64706 16.6485 7.64706C17.1966 7.64706 17.2324 7.66671 17.3025 8.00424C17.4139 8.54024 17.7569 8.70588 18.7559 8.70588C19.9411 8.70588 20.1556 8.49694 20.1556 7.34212C20.1556 6.12024 20.0298 6 18.7518 6C18.0084 6 17.6788 6.04788 17.5465 6.17529ZM19.5196 7.32906L19.5559 8.12871L18.7252 8.09376L17.8944 8.05882L17.8569 7.42576C17.8013 6.48565 17.8308 6.45376 18.7179 6.49435L19.4833 6.52941L19.5196 7.32906ZM5.24444 9.05882C5.04156 9.25412 5 9.45094 5 10.2171C5 11.4346 5.10316 11.5294 6.42682 11.5294C7.51631 11.5294 7.81111 11.3708 7.81111 10.7848C7.81111 10.488 7.84362 10.4706 8.39631 10.4706C8.93556 10.4706 9.02796 10.516 9.57466 11.0502L10.1678 11.63L9.59543 12.2561C8.86173 13.0591 8.3473 14.0664 8.11019 15.1652C7.95069 15.9041 7.84057 16.1235 7.38333 16.6131C7.08694 16.9305 6.70793 17.4678 6.5411 17.8073C6.16869 18.5649 5.89112 19.9636 6.07751 20.1431C6.34114 20.3968 6.55222 20.1405 6.62299 19.4807C6.71796 18.5946 7.18203 17.6636 7.89361 16.9314C8.41819 16.3915 8.49739 16.238 8.62377 15.5162C8.82996 14.3381 9.38399 13.2947 10.2804 12.3962L11.0441 11.6305L10.1152 10.7565L9.18636 9.88235H8.49873C7.8468 9.88235 7.81111 9.86706 7.81111 9.58824C7.81111 9.03235 7.42721 8.82353 6.40556 8.82353C5.65181 8.82353 5.44538 8.86541 5.24444 9.05882ZM7.2 10.2353V11.0588H6.41863C5.81889 11.0588 5.62003 11.0155 5.56308 10.8727C5.4631 10.6218 5.46848 9.58824 5.57041 9.49024C5.61514 9.44706 6.00014 9.41176 6.42597 9.41176H7.2V10.2353ZM26.4886 11.0494C26.5618 12.0358 26.493 12.1176 25.5921 12.1176H24.8V11.2887V10.4599L25.625 10.4946L26.45 10.5294L26.4886 11.0494ZM13.4023 11.8925C12.7086 12.0499 11.7608 12.5492 11.1832 13.0616C10.3162 13.8309 9.6563 15.2645 9.64114 16.4118C9.63564 16.8284 9.57368 16.9256 9.1019 17.2595C8.34131 17.7979 7.81111 18.8501 7.81111 19.8214C7.81111 20.8794 8.10897 21.5962 8.84206 22.3018C9.88999 23.3106 9.76373 23.2942 16.5412 23.2929L22.4167 23.2918L23.0278 23.0129C25.7049 21.7911 25.7982 18.1453 23.1845 16.8916C22.8397 16.7262 22.2921 16.5571 21.9677 16.5156C21.6432 16.4741 21.3778 16.3982 21.3778 16.3468C21.3778 16.2954 21.2333 16.0881 21.0568 15.8862C20.6809 15.4561 19.9286 15.0588 19.4903 15.0588C19.2457 15.0588 19.1202 14.9432 18.884 14.5C18.4407 13.6686 18.0372 13.196 17.34 12.6919C16.2704 11.9182 14.6969 11.5987 13.4023 11.8925ZM15.0618 15.1471C15.1199 15.4146 15.2618 15.5181 15.8812 15.7452C16.5993 16.0085 16.6402 16.0112 16.869 15.8119C17.0908 15.6186 17.1218 15.6176 17.3095 15.7984C17.4972 15.9791 17.4962 16.0088 17.2954 16.2224C17.0884 16.4427 17.0912 16.4816 17.3647 17.1655C17.6175 17.7976 17.6883 17.8791 17.9861 17.8806C18.2579 17.882 18.3222 17.9358 18.3222 18.1618C18.3222 18.3718 18.2387 18.458 17.9861 18.5087C17.7082 18.5646 17.6006 18.7012 17.3647 19.2974C17.0912 19.9886 17.0884 20.028 17.2954 20.2482C17.4962 20.4618 17.4972 20.4915 17.3095 20.6722C17.1218 20.8529 17.0908 20.852 16.869 20.6587C16.6402 20.4594 16.5993 20.4621 15.8812 20.7254C15.2618 20.9525 15.1199 21.056 15.0618 21.3235C15.0176 21.5275 14.9126 21.6471 14.7778 21.6471C14.643 21.6471 14.538 21.5275 14.4937 21.3235C14.4357 21.056 14.2938 20.9525 13.6744 20.7254C12.992 20.4753 12.9064 20.4672 12.7141 20.6348C12.5223 20.8019 12.4842 20.8007 12.2984 20.6219C12.1119 20.4424 12.1109 20.4069 12.2866 20.2199C12.4631 20.0322 12.4532 19.952 12.1703 19.2721C11.915 18.6586 11.8066 18.5229 11.5472 18.4922C11.3068 18.4636 11.2333 18.388 11.2333 18.1687C11.2333 17.9352 11.2953 17.882 11.5694 17.8806C11.8673 17.8791 11.9381 17.7976 12.1908 17.1655C12.4644 16.4816 12.4672 16.4427 12.2601 16.2224C12.0593 16.0088 12.0583 15.9791 12.2461 15.7984C12.4338 15.6176 12.4647 15.6186 12.6866 15.8119C12.9154 16.0112 12.9563 16.0085 13.6744 15.7452C14.2938 15.5181 14.4357 15.4146 14.4937 15.1471C14.538 14.9431 14.643 14.8235 14.7778 14.8235C14.9126 14.8235 15.0176 14.9431 15.0618 15.1471ZM13.9772 16.5185C12.7907 17.016 12.4619 18.5496 13.3481 19.4541C14.1419 20.2642 15.29 20.3049 16.112 19.5522C17.6749 18.1212 15.9617 15.6865 13.9772 16.5185ZM26.4147 19.8011C26.3517 19.8781 26.2673 20.2232 26.2269 20.5679C26.0633 21.9685 25.0947 23.2592 23.7177 23.9118L22.9111 24.2941L15.6696 24.3262L8.42833 24.3584L8.34779 24.0321C8.19257 23.4036 7.98381 23.2941 6.94138 23.2941C5.66733 23.2941 5.48889 23.4598 5.48889 24.6431C5.48889 25.8794 5.6127 26 6.88247 26C8.00569 26 8.3 25.8464 8.3 25.2598V24.9499L15.6028 24.9161L22.9056 24.8824L23.5778 24.6086C25.396 23.8679 26.638 22.2934 26.835 20.4795C26.8946 19.9302 26.8725 19.788 26.7188 19.7312C26.6144 19.6926 26.4775 19.7241 26.4147 19.8011ZM7.75 24.7059V25.4706H6.95556H6.16111L6.12481 24.6709L6.08851 23.8713L6.91926 23.9062L7.75 23.9412V24.7059Z" fill="#21357E"/>
</g>
<defs>
<filter id="filter0_b_530_850" x="-30" y="-30" width="92" height="92" filterUnits="userSpaceOnUse" color-interpolation-filters="sRGB">
<feFlood flood-opacity="0" result="BackgroundImageFix"/>
<feGaussianBlur in="BackgroundImageFix" stdDeviation="15"/>
<feComposite in2="SourceAlpha" operator="in" result="effect1_backgroundBlur_530_850"/>
<feBlend mode="normal" in="SourceGraphic" in2="effect1_backgroundBlur_530_850" result="shape"/>
</filter>
</defs>
</svg>
