<svg width="32" height="32" viewBox="0 0 32 32" fill="none" xmlns="http://www.w3.org/2000/svg">
<g filter="url(#filter0_b_530_1064)">
<rect width="32" height="32" rx="16" fill="white"/>
<rect x="0.5" y="0.5" width="31" height="31" rx="15.5" stroke="white"/>
<g clip-path="url(#clip0_530_1064)">
<path d="M5.86889 17.6285C6.03384 17.724 6.179 17.8086 6.32251 17.8925C7.68147 18.6717 9.03946 19.4524 10.3965 20.2348C10.4979 20.2931 10.5685 20.2899 10.6691 20.2348C12.1603 19.4072 13.6531 18.5817 15.1476 17.7583L15.3818 17.6277C15.2354 17.5438 15.1092 17.4703 14.9818 17.3992C13.5682 16.6107 12.155 15.8217 10.7425 15.0322C10.6518 14.9815 10.5858 14.9775 10.493 15.0298C8.99602 15.8731 7.49672 16.7138 5.99508 17.5518C5.96126 17.571 5.92868 17.5921 5.86889 17.6285Z" fill="#3498DB"/>
<path d="M26.2188 17.6233C26.0183 17.5106 25.8377 17.4088 25.6567 17.3077C24.2969 16.5485 22.9372 15.7889 21.5777 15.029C21.4953 14.9822 21.4301 14.9718 21.3394 15.023C19.835 15.8698 18.3291 16.7143 16.8217 17.5566C16.7887 17.5749 16.7578 17.5965 16.7087 17.6285C16.9656 17.7775 17.2077 17.9185 17.451 18.0583C18.7214 18.7879 19.992 19.5176 21.2627 20.2475C21.3336 20.2875 21.3864 20.2979 21.4652 20.2551C23.0177 19.3948 24.571 18.5362 26.1251 17.6796C26.1486 17.6688 26.1701 17.6544 26.2188 17.6233Z" fill="#3498DB"/>
<path d="M20.9961 9.63108C20.6291 9.42617 20.2732 9.22646 19.9165 9.02754C18.728 8.36395 17.5395 7.7001 16.351 7.03597C16.318 7.013 16.2785 7.00044 16.2379 7.00001C16.1974 6.99958 16.1576 7.0113 16.1241 7.03358C14.6121 7.8841 13.0983 8.73276 11.5829 9.57956C11.557 9.59433 11.5322 9.61151 11.4897 9.63827C11.5504 9.67422 11.6003 9.70498 11.6514 9.73454C13.114 10.5747 14.5766 11.4152 16.0392 12.2561C16.1155 12.3001 16.1724 12.3089 16.2532 12.2637C17.8055 11.4036 19.3588 10.5452 20.9132 9.6886C20.9384 9.67462 20.961 9.65545 20.9961 9.63108Z" fill="#3498DB"/>
<path d="M15.6507 18.2795C15.4412 18.3962 15.252 18.5004 15.0635 18.6063C13.7059 19.3687 12.3482 20.131 10.9903 20.8934C10.9244 20.9302 10.8868 20.9689 10.8868 21.0508C10.889 22.3378 10.889 23.6247 10.8868 24.9117C10.8868 24.9325 10.8901 24.9517 10.8934 24.9916C10.9314 24.9756 10.9623 24.966 10.9899 24.9517C12.5166 24.0995 14.0432 23.2474 15.5699 22.3953C15.5994 22.3826 15.6241 22.3614 15.6407 22.3346C15.6573 22.3078 15.665 22.2767 15.6627 22.2455C15.6608 20.9585 15.6601 19.6716 15.6606 18.3846C15.6606 18.357 15.6561 18.3319 15.6507 18.2795Z" fill="#3498DB"/>
<path d="M16.3059 18.2755C16.3059 18.6114 16.3059 18.9146 16.3059 19.221C16.3022 20.2152 16.2998 21.2089 16.2919 22.2031C16.2874 22.2463 16.2969 22.2897 16.3191 22.3273C16.3413 22.365 16.375 22.395 16.4156 22.4132C17.892 23.2488 19.3671 24.0867 20.841 24.9269C20.8777 24.948 20.9156 24.9668 20.9721 24.998C20.9762 24.9428 20.982 24.9037 20.982 24.8641C20.982 23.6025 20.9828 22.3407 20.9845 21.0787C20.9883 21.0395 20.9796 21.0002 20.9598 20.9658C20.9399 20.9315 20.9096 20.9039 20.8731 20.8866C19.3968 20.0422 17.9217 19.1959 16.4478 18.3478C16.4128 18.3286 16.3794 18.3131 16.3059 18.2755Z" fill="#3498DB"/>
<path d="M16.5134 17.0138L17.5856 16.3931C18.726 15.7316 19.8669 15.0709 21.0084 14.4111C21.0411 14.3958 21.0686 14.3717 21.0874 14.3417C21.1062 14.3116 21.1156 14.2769 21.1144 14.2417C21.154 13.2442 21.1962 12.2468 21.241 11.2496C21.2534 10.9652 21.2678 10.6812 21.2822 10.3968C21.2822 10.3688 21.2793 10.3405 21.2769 10.2977C21.2307 10.3193 21.1944 10.3333 21.163 10.3513C19.6529 11.1988 18.1423 12.0462 16.6313 12.8932C16.5909 12.9115 16.5574 12.9414 16.5352 12.9789C16.5131 13.0164 16.5034 13.0596 16.5076 13.1025C16.5109 14.3604 16.5076 15.619 16.5076 16.876C16.5055 16.9151 16.5101 16.9539 16.5134 17.0138Z" fill="#3498DB"/>
<path d="M26.5 18.2732C26.2856 18.393 26.0926 18.4989 25.9 18.6067C24.5608 19.359 23.2215 20.1106 21.8821 20.8615C21.7703 20.9238 21.7237 20.9881 21.7241 21.1183C21.7299 22.3466 21.727 23.5745 21.7241 24.8023V24.9992C21.7844 24.9685 21.8223 24.9509 21.8582 24.9297C23.3032 24.0923 24.7483 23.2552 26.1936 22.4185C26.2357 22.3984 26.2708 22.3668 26.2947 22.3276C26.3186 22.2885 26.3302 22.2434 26.328 22.198C26.3664 21.1994 26.4105 20.2036 26.4518 19.2063C26.4691 18.9051 26.4843 18.6043 26.5 18.2732Z" fill="#3498DB"/>
<path d="M10.1365 24.9996C10.1402 24.9369 10.1443 24.8998 10.1443 24.8626C10.1443 23.6004 10.1452 22.3385 10.1468 21.0768C10.1501 21.0376 10.1409 20.9983 10.1206 20.9642C10.1003 20.9301 10.0697 20.9028 10.033 20.8859C8.55665 20.0423 7.08168 19.196 5.60808 18.3471C5.57138 18.3259 5.53303 18.3072 5.50334 18.2936C5.50334 18.55 5.49674 18.8025 5.50334 19.0545C5.52437 19.7124 5.55117 20.3702 5.57674 21.0281C5.59241 21.4399 5.60643 21.8517 5.63076 22.2631C5.63365 22.3119 5.6885 22.373 5.73633 22.4017C6.66805 22.9553 7.60019 23.5062 8.53273 24.0542C9.01962 24.3415 9.50624 24.6291 9.99258 24.917C10.0334 24.9425 10.0751 24.9649 10.1365 24.9996Z" fill="#3498DB"/>
<path d="M11.0988 10.2921C11.1132 10.7231 11.126 11.1257 11.14 11.5284C11.1634 12.1776 11.1874 12.8268 11.2122 13.476C11.2217 13.7348 11.2241 13.9952 11.2435 14.2521C11.2492 14.2832 11.2614 14.3129 11.2794 14.3393C11.2974 14.3657 11.3209 14.3882 11.3483 14.4055C12.7306 15.227 14.1146 16.0458 15.5002 16.862L15.7567 17.0122C15.7604 16.9467 15.7649 16.9031 15.7649 16.86C15.7649 15.607 15.7649 14.3539 15.7678 13.1009C15.7715 13.0576 15.7614 13.0141 15.7389 12.9765C15.7164 12.9388 15.6827 12.9086 15.642 12.89C14.1745 12.0512 12.7076 11.2096 11.2415 10.3652C11.2052 10.3444 11.1664 10.3265 11.0988 10.2921Z" fill="#3498DB"/>
</g>
</g>
<defs>
<filter id="filter0_b_530_1064" x="-30" y="-30" width="92" height="92" filterUnits="userSpaceOnUse" color-interpolation-filters="sRGB">
<feFlood flood-opacity="0" result="BackgroundImageFix"/>
<feGaussianBlur in="BackgroundImageFix" stdDeviation="15"/>
<feComposite in2="SourceAlpha" operator="in" result="effect1_backgroundBlur_530_1064"/>
<feBlend mode="normal" in="SourceGraphic" in2="effect1_backgroundBlur_530_1064" result="shape"/>
</filter>
<clipPath id="clip0_530_1064">
<rect width="21" height="18" fill="white" transform="matrix(-1 0 0 1 26.5 7)"/>
</clipPath>
</defs>
</svg>
