<svg width="32" height="32" viewBox="0 0 32 32" fill="none" xmlns="http://www.w3.org/2000/svg">
<g filter="url(#filter0_b_530_1059)">
<rect width="32" height="32" rx="16" fill="white"/>
<rect x="0.5" y="0.5" width="31" height="31" rx="15.5" stroke="white"/>
<g clip-path="url(#clip0_530_1059)">
<path d="M23.0829 18.2876C23.5607 18.2159 24.0181 18.1822 24.4522 18.0774C26.7164 17.5293 28.1998 15.4958 27.9779 13.3981C27.7786 11.503 26.2591 9.84164 24.3041 9.47646C24.074 9.43328 23.971 9.3558 23.9225 9.13479C23.3846 6.68526 20.9436 4.71078 17.7995 5.03404C16.1462 5.20424 14.8362 5.96063 13.8642 7.21619C13.7727 7.33495 13.6983 7.37242 13.5372 7.33495C12.9568 7.20313 12.3528 7.18862 11.7658 7.2924C10.8761 7.43235 10.0529 7.81997 9.40485 8.4041C8.75677 8.98824 8.31426 9.74145 8.1357 10.5644C8.09816 10.7289 8.04355 10.7892 7.85105 10.7981C7.21325 10.8226 6.59026 10.9845 6.03121 11.2712C3.42226 12.6049 3.30075 16.141 5.81277 17.6341C6.63191 18.1212 7.53023 18.2578 8.47496 18.2406C9.04426 18.2311 9.61356 18.2406 10.2081 18.2406C10.2156 18.3111 10.2231 18.3486 10.2231 18.3861C10.2231 20.0011 10.2231 21.6155 10.219 23.2299C10.2106 23.3274 10.1665 23.4193 10.0941 23.4903C9.85452 23.7297 9.62039 23.9812 9.34325 24.1825C8.95074 24.4708 8.78555 24.8176 8.86542 25.2748C8.8975 25.452 8.8463 25.567 8.64288 25.6559C8.32683 25.7899 8.1828 26.1462 8.26881 26.4491C8.31723 26.6038 8.41712 26.7403 8.55411 26.8389C8.69111 26.9375 8.85817 26.9931 9.03129 26.9978C9.19936 26.9903 9.36103 26.9356 9.49506 26.8409C9.62908 26.7463 9.72917 26.6161 9.78217 26.4675C9.87841 26.1544 9.73711 25.7867 9.41629 25.6495C9.2156 25.5638 9.16645 25.4539 9.18897 25.2736C9.20058 25.1805 9.20058 25.0866 9.18897 24.9935C9.16645 24.815 9.23744 24.688 9.37806 24.5655C9.72551 24.2606 10.0661 23.9482 10.3924 23.623C10.4828 23.5287 10.536 23.4087 10.5433 23.2826C10.5528 21.6993 10.5494 20.1154 10.5494 18.5321V18.2546H11.5938C11.6703 18.6992 11.658 18.7322 11.3242 18.9532C10.8593 19.2574 10.9057 19.9528 11.4061 20.184C11.4985 20.2304 11.6 20.259 11.7045 20.2681C11.809 20.2771 11.9144 20.2666 12.0144 20.2369C12.1144 20.2073 12.207 20.1592 12.2866 20.0956C12.3662 20.0319 12.4313 19.954 12.4778 19.8665C12.6703 19.5121 12.5119 19.0885 12.1208 18.8884C12.0525 18.8522 11.9549 18.7894 11.9447 18.7278C11.929 18.5658 11.9263 18.403 11.9365 18.2406C12.2423 18.2406 12.5181 18.2489 12.7925 18.2406C12.972 18.233 13.0232 18.2972 13.0212 18.4566C13.0143 19.0491 13.0253 19.6423 13.0123 20.2348C13.0027 20.3471 12.9524 20.453 12.8696 20.5352C12.5481 20.8527 12.2177 21.1639 11.8764 21.4637C11.8082 21.5184 11.7542 21.5869 11.7188 21.6639C11.6833 21.741 11.6672 21.8245 11.6716 21.9083C11.6839 22.6646 11.6716 23.421 11.6798 24.1781C11.6798 24.3279 11.6437 24.4092 11.4832 24.4772C11.146 24.6194 10.9924 24.9662 11.0798 25.3028C11.1249 25.4582 11.2237 25.5956 11.361 25.6936C11.4983 25.7916 11.6665 25.8449 11.8396 25.8452C12.0125 25.843 12.1801 25.7885 12.3169 25.69C12.4537 25.5915 12.5523 25.4542 12.5979 25.299C12.6417 25.1385 12.6249 24.969 12.5504 24.8187C12.4758 24.6684 12.348 24.5465 12.1884 24.4734C12.1265 24.4546 12.0735 24.4164 12.0387 24.3653C12.0038 24.3142 11.9891 24.2534 11.9972 24.1933C12.0048 23.4445 11.9972 22.6958 12.0075 21.947C12.0161 21.8277 12.0678 21.7147 12.1542 21.6263C12.4805 21.3018 12.8198 20.9912 13.1652 20.6813C13.22 20.635 13.2628 20.5777 13.2904 20.5138C13.3179 20.4499 13.3295 20.381 13.3242 20.3123C13.3167 19.7121 13.3208 19.1113 13.3242 18.5106C13.3242 18.428 13.3318 18.3448 13.3358 18.2603H14.3878C14.3919 18.3321 14.398 18.3873 14.398 18.4388C14.398 20.748 14.3996 23.0567 14.4028 25.365C14.4028 25.5194 14.3345 25.574 14.198 25.6349C14.0432 25.708 13.9196 25.8277 13.8474 25.9746C13.7751 26.1214 13.7584 26.2866 13.8 26.4434C13.848 26.598 13.947 26.7347 14.0829 26.8341C14.2189 26.9336 14.3849 26.9909 14.5577 26.9978C14.7301 26.9909 14.8959 26.9345 15.0324 26.8364C15.169 26.7382 15.2695 26.6032 15.3202 26.4498C15.4062 26.1398 15.2519 25.7778 14.9284 25.6381C14.7639 25.5664 14.7202 25.4825 14.7236 25.3206C14.7291 23.0432 14.7304 20.7655 14.7277 18.4877C14.7277 18.4121 14.7352 18.3365 14.7414 18.2337H15.7851C15.7926 18.3111 15.7967 18.3562 15.8014 18.4013C15.8288 18.6427 15.8055 18.8249 15.5093 18.9557C15.1625 19.1094 15.0731 19.561 15.2567 19.8779C15.3333 20.0136 15.454 20.1233 15.6016 20.1912C15.7493 20.2592 15.9162 20.2819 16.0786 20.2562C16.241 20.2305 16.3905 20.1576 16.5056 20.048C16.6207 19.9384 16.6956 19.7977 16.7196 19.6461C16.741 19.4987 16.7147 19.3486 16.6439 19.2152C16.5731 19.0818 16.4611 18.9711 16.3223 18.8973C16.2438 18.8541 16.1359 18.7925 16.1223 18.7252C16.0922 18.5766 16.1127 18.4185 16.1127 18.2495H17.1633C17.1769 18.2818 17.1863 18.3155 17.1913 18.3499C17.1913 19.1533 17.1981 19.9566 17.1913 20.7594C17.1777 20.8496 17.1317 20.9328 17.0609 20.9956C16.8089 21.2569 16.5411 21.5045 16.2588 21.7374C15.9175 22.0061 15.7127 22.309 15.798 22.7396C15.8233 22.8666 15.7632 22.9301 15.6363 22.9879C15.2588 23.1543 15.1025 23.4731 15.198 23.8345C15.2419 23.9902 15.3403 24.1278 15.4778 24.2256C15.6153 24.3233 15.7839 24.3756 15.9569 24.374C16.1299 24.3725 16.2974 24.3173 16.4328 24.2171C16.5683 24.117 16.6639 23.9776 16.7045 23.8211C16.7947 23.4814 16.6274 23.1587 16.2752 22.986C16.2141 22.9654 16.1598 22.9303 16.1175 22.8844C16.0267 22.732 16.1271 22.2779 16.2677 22.1464C16.609 21.8289 16.9503 21.5018 17.3032 21.1906C17.3714 21.1359 17.4254 21.0674 17.4609 20.9904C17.4964 20.9133 17.5125 20.8298 17.508 20.7461C17.4957 19.9973 17.5025 19.2485 17.5032 18.4998C17.5032 18.4172 17.5114 18.3353 17.5155 18.2559H18.5551C18.5638 18.2764 18.5702 18.2977 18.5742 18.3194C18.5742 19.6455 18.5797 20.9715 18.5742 22.2976C18.5631 22.3875 18.5187 22.471 18.4486 22.5338C18.0916 22.8742 17.7332 23.214 17.3564 23.5366C17.2849 23.5944 17.229 23.6671 17.1935 23.7487C17.1579 23.8304 17.1435 23.9188 17.1517 24.0066C17.1646 24.4276 17.1517 24.8493 17.1592 25.2698C17.1646 25.4514 17.1223 25.5587 16.9243 25.6457C16.5667 25.802 16.4322 26.2173 16.5885 26.5469C16.6633 26.7095 16.7999 26.8408 16.9722 26.9156C17.1444 26.9905 17.3403 27.0037 17.5223 26.9527C17.8431 26.8626 18.078 26.6123 18.0862 26.3081C18.0943 26.0039 17.9496 25.7435 17.6315 25.6153C17.4889 25.5575 17.4541 25.4806 17.4561 25.3492C17.4622 24.9281 17.4459 24.5064 17.4657 24.086C17.4761 23.9518 17.5337 23.8246 17.6295 23.724C17.9776 23.3759 18.3401 23.0393 18.7121 22.7129C18.7792 22.6567 18.8317 22.587 18.8655 22.5091C18.8993 22.4311 18.9136 22.3471 18.9073 22.2633C18.8991 21.0153 18.9032 19.7668 18.9032 18.5163V18.2552H19.962C19.9688 18.308 19.9763 18.3384 19.9763 18.3683C19.9763 20.17 19.9763 21.9724 19.9831 23.7741C19.9831 23.9291 19.891 23.9647 19.7784 24.0193C19.6158 24.0957 19.4872 24.2229 19.4151 24.3785C19.343 24.5342 19.3319 24.7085 19.3838 24.8709C19.465 25.1586 19.8098 25.4019 20.1347 25.4006C20.3078 25.3962 20.4746 25.3396 20.6101 25.2392C20.7455 25.1389 20.8422 25.0002 20.8856 24.8443C20.9757 24.5312 20.8282 24.1723 20.5053 24.0333C20.3169 23.952 20.2808 23.8472 20.2814 23.6757C20.2869 21.961 20.2849 20.2462 20.2855 18.5277C20.2855 18.4369 20.2937 18.3461 20.2999 18.233C20.6016 18.233 20.8774 18.24 21.1525 18.233C21.3156 18.2273 21.3757 18.2794 21.3729 18.4324C21.3654 18.7989 21.3647 19.166 21.3729 19.5324C21.377 19.674 21.3354 19.7521 21.1866 19.8163C21.0284 19.8824 20.8992 19.9967 20.8204 20.1403C20.7416 20.284 20.7179 20.4484 20.7531 20.6063C20.7866 20.7669 20.8771 20.9123 21.0102 21.0191C21.1432 21.126 21.3111 21.1881 21.4867 21.1954C21.6623 21.2028 21.8354 21.1549 21.9782 21.0596C22.121 20.9642 22.2252 20.827 22.274 20.6698C22.321 20.5061 22.307 20.3324 22.234 20.1771C22.1611 20.0218 22.0337 19.8941 21.8726 19.815C21.8003 19.7775 21.689 19.7159 21.6876 19.6632C21.6733 19.1984 21.6794 18.7322 21.6794 18.2527H22.7525V18.5163C22.7525 19.1247 22.7464 19.7337 22.7586 20.3415C22.7657 20.4535 22.8139 20.5598 22.8952 20.6425C23.3484 21.0801 23.8167 21.5056 24.2775 21.9375C24.5717 22.2137 24.9771 22.4519 25.1219 22.7859C25.2693 23.1295 25.1601 23.569 25.1635 23.9666C25.1628 23.9744 25.1628 23.9823 25.1635 23.9901C25.1847 24.1171 25.1239 24.1806 24.9956 24.2333C24.6283 24.3914 24.47 24.7236 24.5642 25.0869C24.61 25.2427 24.7105 25.3799 24.8496 25.4766C24.9887 25.5734 25.1585 25.6242 25.3322 25.621C25.5058 25.6178 25.6734 25.5607 25.8083 25.4589C25.9431 25.3571 26.0377 25.2164 26.0768 25.0589C26.12 24.8948 26.0991 24.7217 26.018 24.5706C25.9369 24.4194 25.8007 24.2999 25.6338 24.2333C25.5793 24.2163 25.5329 24.1822 25.5026 24.1367C25.4723 24.0912 25.46 24.0373 25.4679 23.9844C25.4727 23.6033 25.4816 23.2223 25.4625 22.838C25.4536 22.7112 25.3996 22.5908 25.3089 22.4957C24.6263 21.8422 23.9232 21.2033 23.2385 20.5498C23.1466 20.4558 23.0926 20.3351 23.0856 20.2081C23.0699 19.6315 23.0781 19.0542 23.0795 18.4769C23.074 18.402 23.0808 18.327 23.0829 18.2876ZM9.50366 26.2713C9.49609 26.3842 9.44356 26.4904 9.35635 26.5692C9.26913 26.648 9.15348 26.6937 9.03197 26.6974C8.90887 26.6985 8.79033 26.6541 8.70245 26.5739C8.61457 26.4937 8.56454 26.3842 8.56336 26.2697C8.56218 26.1552 8.60996 26.0449 8.69618 25.9631C8.78239 25.8814 8.89999 25.8348 9.0231 25.8337C9.14901 25.833 9.27012 25.8786 9.36011 25.9606C9.4501 26.0425 9.50168 26.1542 9.50366 26.2713ZM12.3024 25.1682C12.2723 25.3885 12.0443 25.5714 11.8184 25.5562C11.6929 25.5449 11.5768 25.4893 11.494 25.4008C11.4112 25.3124 11.368 25.1977 11.3733 25.0805C11.3883 24.9681 11.4484 24.865 11.5416 24.792C11.6347 24.719 11.7541 24.6814 11.8757 24.6868C11.938 24.6916 11.9986 24.708 12.0539 24.7349C12.1093 24.7619 12.1582 24.7989 12.1979 24.8438C12.2376 24.8887 12.2673 24.9405 12.2851 24.9962C12.3029 25.0519 12.3086 25.1104 12.3017 25.1682H12.3024ZM12.2423 19.5388C12.2443 19.595 12.2343 19.6511 12.2129 19.7038C12.1914 19.7565 12.159 19.8046 12.1174 19.8456C12.0758 19.8865 12.0259 19.9193 11.9706 19.9422C11.9153 19.9651 11.8557 19.9776 11.7952 19.9789C11.7327 19.9801 11.6706 19.9697 11.6124 19.9484C11.5542 19.9272 11.5011 19.8954 11.4562 19.855C11.4113 19.8145 11.3754 19.7662 11.3506 19.7128C11.3259 19.6594 11.3127 19.602 11.3119 19.5438C11.3119 19.4259 11.3622 19.3129 11.4519 19.2295C11.5415 19.1461 11.663 19.0993 11.7897 19.0993C11.9113 19.1045 12.0261 19.1531 12.1102 19.2349C12.1943 19.3167 12.2414 19.4255 12.2416 19.5388H12.2423ZM14.2867 15.5479C14.0028 15.5542 13.7174 15.5479 13.4328 15.5479C13.2184 15.5479 13.1311 15.4171 13.0614 15.2551C12.901 14.8829 12.899 14.8836 12.4607 14.8836H12.0089C11.7911 14.8836 11.5727 14.8925 11.3556 14.8836C11.1822 14.8747 11.0675 14.9147 11.0252 15.0874C11.0113 15.1798 10.9721 15.2673 10.9112 15.3415C10.8204 15.4278 10.6982 15.5263 10.5788 15.539C10.312 15.5592 10.0439 15.562 9.7767 15.5472C9.59308 15.5434 9.51049 15.4679 9.59513 15.2932C10.1207 14.192 10.6402 13.0876 11.1808 11.9908C11.2293 11.8923 11.4047 11.8002 11.529 11.7907C11.8703 11.7628 12.215 11.7844 12.5577 11.7793C12.6331 11.7738 12.7084 11.7917 12.7716 11.8304C12.8349 11.869 12.8826 11.9261 12.9072 11.9927C13.428 13.0876 13.9536 14.1812 14.4724 15.2767C14.5591 15.4596 14.5011 15.5428 14.286 15.5479H14.2867ZM15.0328 26.2681C15.0334 26.3267 15.0214 26.3849 14.9973 26.4391C14.9733 26.4932 14.9379 26.5424 14.893 26.5836C14.8482 26.6248 14.795 26.6572 14.7364 26.6788C14.6779 26.7005 14.6153 26.711 14.5523 26.7097C14.4893 26.7085 14.4272 26.6954 14.3698 26.6714C14.3123 26.6474 14.2606 26.6129 14.2178 26.5699C14.1749 26.5269 14.1418 26.4764 14.1203 26.4213C14.0989 26.3662 14.0895 26.3076 14.0929 26.2491C14.0993 26.1355 14.1531 26.0288 14.2426 25.9515C14.3322 25.8742 14.4506 25.8323 14.5728 25.8348C14.6949 25.8373 14.8113 25.8839 14.8971 25.9648C14.983 26.0456 15.0317 26.1544 15.0328 26.2681ZM16.4103 23.6643C16.4038 23.7764 16.3505 23.8817 16.2618 23.9579C16.173 24.034 16.0559 24.0749 15.9352 24.072C15.8146 24.069 15.6999 24.0223 15.6157 23.9419C15.5314 23.8615 15.4842 23.7537 15.484 23.6414C15.484 23.5838 15.4963 23.5267 15.5203 23.4736C15.5444 23.4205 15.5796 23.3724 15.624 23.3321C15.6683 23.2919 15.7209 23.2603 15.7786 23.2393C15.8363 23.2183 15.8979 23.2083 15.9598 23.2098C16.0217 23.2113 16.0827 23.2244 16.1391 23.2482C16.1955 23.2721 16.2462 23.3062 16.2882 23.3485C16.3302 23.3909 16.3627 23.4407 16.3837 23.4949C16.4046 23.5491 16.4137 23.6067 16.4103 23.6643ZM17.7667 26.2637C17.7665 26.348 17.7396 26.4305 17.6895 26.5008C17.6394 26.5711 17.5681 26.6261 17.4847 26.6591C17.4012 26.692 17.3091 26.7014 17.22 26.6861C17.1308 26.6708 17.0484 26.6315 16.9831 26.573C16.9177 26.5145 16.8723 26.4395 16.8524 26.3572C16.8325 26.2749 16.839 26.189 16.8711 26.1101C16.9033 26.0312 16.9596 25.9628 17.0331 25.9135C17.1067 25.8641 17.1942 25.8359 17.2848 25.8325C17.3473 25.83 17.4097 25.8395 17.4681 25.8602C17.5266 25.8808 17.58 25.9124 17.625 25.9528C17.67 25.9932 17.7057 26.0418 17.7299 26.0954C17.7541 26.1491 17.7664 26.2067 17.766 26.2649L17.7667 26.2637ZM16.4124 19.5426C16.4148 19.6005 16.4046 19.6584 16.3824 19.7126C16.3602 19.7668 16.3264 19.8163 16.2832 19.8581C16.24 19.8999 16.1881 19.9332 16.1307 19.9559C16.0733 19.9786 16.0116 19.9903 15.9492 19.9903C15.8869 19.9903 15.8251 19.9786 15.7678 19.9559C15.7104 19.9332 15.6585 19.8999 15.6153 19.8581C15.572 19.8163 15.5383 19.7668 15.5161 19.7126C15.4939 19.6584 15.4837 19.6005 15.4861 19.5426C15.4837 19.4846 15.4939 19.4268 15.5161 19.3725C15.5383 19.3183 15.572 19.2688 15.6153 19.227C15.6585 19.1852 15.7104 19.1519 15.7678 19.1292C15.8251 19.1065 15.8869 19.0948 15.9492 19.0948C16.0116 19.0948 16.0733 19.1065 16.1307 19.1292C16.1881 19.1519 16.24 19.1852 16.2832 19.227C16.3264 19.2688 16.3602 19.3183 16.3824 19.3725C16.4046 19.4268 16.4148 19.4846 16.4124 19.5426ZM18.179 14.3749C17.8745 14.4564 17.5609 14.5048 17.2445 14.519C16.9134 14.5432 16.5783 14.5248 16.2144 14.5248C16.2144 14.7959 16.2103 15.029 16.2144 15.2621C16.2192 15.4564 16.1291 15.553 15.9161 15.5498C15.6902 15.5466 15.4642 15.546 15.2383 15.5498C15.0335 15.5536 14.9284 15.4729 14.9291 15.2723C14.9318 14.1968 14.9318 13.1216 14.9291 12.0467C14.9291 11.8561 15.0199 11.7774 15.2185 11.7793C15.9974 11.7856 16.7769 11.7659 17.5544 11.8015C18.093 11.8256 18.5947 11.9965 18.9196 12.4398C19.0396 12.6057 19.116 12.7955 19.1427 12.9939C19.1694 13.1923 19.1456 13.3937 19.0733 13.582C19.001 13.7703 18.8821 13.9401 18.7263 14.0779C18.5705 14.2156 18.3821 14.3173 18.1763 14.3749H18.179ZM20.5886 24.6925C20.5868 24.7491 20.5728 24.8049 20.5473 24.8563C20.5218 24.9078 20.4854 24.954 20.4402 24.992C20.3951 25.0301 20.3422 25.0593 20.2846 25.0779C20.2271 25.0965 20.1661 25.1041 20.1053 25.1002C20.0447 25.0984 19.985 25.0854 19.9298 25.0621C19.8746 25.0387 19.8249 25.0054 19.7836 24.9641C19.7422 24.9227 19.7101 24.8742 19.6891 24.8213C19.668 24.7683 19.6585 24.712 19.6609 24.6556C19.668 24.5416 19.7229 24.4348 19.8138 24.358C19.9047 24.2813 20.0243 24.2409 20.147 24.2454C20.2075 24.2477 20.267 24.2612 20.322 24.2849C20.3769 24.3087 20.4263 24.3423 20.4673 24.3838C20.5084 24.4253 20.5402 24.474 20.561 24.5269C20.5818 24.5799 20.5912 24.6361 20.5886 24.6925ZM21.988 20.4565C21.99 20.5151 21.979 20.5735 21.9556 20.628C21.9323 20.6826 21.8971 20.732 21.8522 20.7733C21.8073 20.8145 21.7538 20.8467 21.6949 20.8678C21.6361 20.8889 21.5732 20.8985 21.5101 20.8959C21.4492 20.8973 21.3886 20.887 21.3322 20.8655C21.2757 20.844 21.2247 20.8119 21.1823 20.7711C21.1399 20.7303 21.107 20.6818 21.0858 20.6287C21.0646 20.5755 21.0554 20.5188 21.0589 20.4622C21.0578 20.4057 21.0689 20.3495 21.0914 20.297C21.1139 20.2445 21.1474 20.1967 21.19 20.1564C21.2325 20.116 21.2833 20.084 21.3394 20.0621C21.3954 20.0403 21.4555 20.029 21.5163 20.029C21.6388 20.0304 21.7561 20.0756 21.8439 20.1551C21.9317 20.2346 21.9833 20.3425 21.988 20.4565ZM21.4938 13.1981C21.4938 13.6422 21.4956 14.0868 21.4992 14.5317C21.506 14.5571 21.516 14.5817 21.5293 14.6048H21.8337C21.8922 14.6003 21.951 14.6016 22.0091 14.6086C22.3962 14.6905 22.205 14.982 22.2392 15.1865C22.2665 15.3516 22.2562 15.5428 22.0044 15.546C21.2337 15.5542 20.463 15.546 19.6923 15.546C19.6756 15.5473 19.6588 15.5449 19.6432 15.539C19.3019 15.3732 19.5067 15.0805 19.4664 14.8467C19.4405 14.6905 19.5565 14.6054 19.7285 14.6035C19.878 14.6035 20.0282 14.6035 20.1941 14.6035V12.7275C20.1258 12.7217 20.0575 12.7129 19.9831 12.7103C19.8917 12.7071 19.7988 12.7103 19.7067 12.7103C19.4507 12.6995 19.4336 12.5236 19.4644 12.3578C19.4998 12.1559 19.2992 11.8136 19.6978 11.7952C20.4664 11.7596 21.2385 11.7831 22.0091 11.7863C22.1934 11.7863 22.2699 11.9063 22.2385 12.0536C22.1921 12.2746 22.4105 12.5674 22.046 12.7059C22.0214 12.7111 21.9961 12.713 21.9709 12.7116C21.4938 12.7389 21.4931 12.7389 21.4938 13.1987V13.1981ZM25.313 24.4683C25.3741 24.4674 25.4348 24.4781 25.4913 24.4996C25.5479 24.5212 25.5991 24.5533 25.6419 24.5938C25.6848 24.6344 25.7183 24.6826 25.7405 24.7356C25.7627 24.7886 25.7731 24.8452 25.771 24.9021C25.7711 24.9587 25.7591 25.0147 25.7358 25.067C25.7125 25.1193 25.6783 25.1668 25.6351 25.2067C25.5919 25.2466 25.5407 25.2782 25.4844 25.2996C25.428 25.321 25.3677 25.3318 25.3068 25.3314C25.184 25.3287 25.0671 25.2818 24.9808 25.2006C24.8944 25.1193 24.8454 25.01 24.844 24.8957C24.8444 24.8389 24.8568 24.7828 24.8806 24.7306C24.9045 24.6783 24.9392 24.631 24.9828 24.5913C25.0264 24.5516 25.078 24.5203 25.1347 24.4993C25.1914 24.4783 25.252 24.468 25.313 24.4689V24.4683Z" fill="#3498DB"/>
<path d="M11.5396 13.9414H12.4781L12.0235 12.8865C11.8474 13.2694 11.7027 13.5927 11.5396 13.9414Z" fill="#3498DB"/>
<path d="M17.3146 12.6839C16.9671 12.6541 16.6149 12.6769 16.2224 12.6769C16.2224 12.9589 16.2156 13.2384 16.2292 13.5165C16.2407 13.5478 16.2604 13.5759 16.2867 13.5981C16.313 13.6203 16.3449 13.6359 16.3794 13.6435C16.6884 13.6529 16.9976 13.6457 17.3057 13.622C17.6252 13.5927 17.7951 13.4143 17.7986 13.1571C17.802 12.8999 17.6313 12.7087 17.3146 12.6839Z" fill="#3498DB"/>
</g>
</g>
<defs>
<filter id="filter0_b_530_1059" x="-30" y="-30" width="92" height="92" filterUnits="userSpaceOnUse" color-interpolation-filters="sRGB">
<feFlood flood-opacity="0" result="BackgroundImageFix"/>
<feGaussianBlur in="BackgroundImageFix" stdDeviation="15"/>
<feComposite in2="SourceAlpha" operator="in" result="effect1_backgroundBlur_530_1059"/>
<feBlend mode="normal" in="SourceGraphic" in2="effect1_backgroundBlur_530_1059" result="shape"/>
</filter>
<clipPath id="clip0_530_1059">
<rect width="24" height="22" fill="white" transform="translate(4 5)"/>
</clipPath>
</defs>
</svg>
