<svg width="32" height="32" viewBox="0 0 32 32" fill="none" xmlns="http://www.w3.org/2000/svg">
<g filter="url(#filter0_b_530_1075)">
<rect width="32" height="32" rx="16" fill="white"/>
<rect x="0.5" y="0.5" width="31" height="31" rx="15.5" stroke="white"/>
<g clip-path="url(#clip0_530_1075)">
<path d="M6.54669 16.9385C6.76991 16.5953 7.02089 16.2721 7.33082 15.9906C7.53115 15.8087 7.75752 15.6578 7.97845 15.5002C8.07146 15.4545 8.16819 15.4136 8.24574 15.3447L8.41316 15.2694L8.83527 15.0966C9.11453 15.003 9.40172 14.9315 9.69381 14.8829L10.1242 14.8378L10.5495 14.8364L11.036 14.8802L11.4095 14.9422L11.4172 14.9451L11.4238 14.9403C11.54 15.0036 11.6742 15.0148 11.799 15.053L12.2666 15.2304C12.5682 15.369 12.8467 15.5432 13.1205 15.7237L13.1394 15.7408L13.5292 16.083C13.5473 16.1166 13.5765 16.144 13.6125 16.161C13.8381 16.4019 14.0387 16.6624 14.2115 16.9388L14.4041 17.2967L14.4269 17.3456L14.5763 17.7409C14.6086 17.8655 14.6408 17.9896 14.6731 18.1132L14.7469 18.5406C14.7505 18.673 14.7544 18.8055 14.7586 18.938C14.7491 19.0895 14.7396 19.2409 14.73 19.3921C14.7109 19.5075 14.6919 19.6232 14.6728 19.7393C14.6361 19.8734 14.5994 20.0075 14.5626 20.1415L14.4083 20.5398L14.3869 20.5694L14.2083 20.9116C14.0103 21.2022 13.8022 21.4856 13.5501 21.7396C13.2925 21.9909 12.9923 22.1937 12.6916 22.3969L12.424 22.5404C12.3642 22.5491 12.3083 22.5734 12.2626 22.6103L11.8353 22.7784C11.5543 22.8585 11.2658 22.9119 10.979 22.9707L10.5784 23.0006H10.1205L9.66691 22.9554L8.84271 22.75H8.84042L8.80608 22.7292L8.40543 22.5689C8.39723 22.5584 8.3862 22.55 8.37344 22.5447C8.36069 22.5393 8.34665 22.5372 8.33274 22.5385L8.00821 22.3515C7.84022 22.2305 7.6708 22.1111 7.50482 21.9877C7.25241 21.8008 7.05924 21.5604 6.8466 21.3371L6.71811 21.1536L6.55585 20.9038C6.41656 20.6583 6.29866 20.4026 6.20327 20.1394C6.16511 20.0059 6.12696 19.8723 6.0888 19.7388C6.06858 19.6056 6.04835 19.472 6.02813 19.3381C6.03148 19.2213 6.02189 19.1045 5.99951 18.9895L6.02012 18.5646L6.08537 18.1372C6.12009 18.0044 6.15481 17.8718 6.18953 17.7395C6.28884 17.466 6.41762 17.2021 6.54669 16.9385ZM7.31336 19.3453H7.3148L7.5466 19.5561C7.59564 19.6325 7.66391 19.6967 7.7455 19.743L7.97444 19.9567C8.02357 20.0331 8.09181 20.0973 8.17334 20.1437L8.40228 20.3574C8.45175 20.434 8.52052 20.4982 8.60261 20.5443L8.83155 20.758C8.88084 20.8343 8.94905 20.8984 9.03045 20.945L9.25939 21.1587C9.45972 21.4185 9.47717 21.4199 9.69696 21.1937C9.79674 21.1242 9.88523 21.0416 9.95967 20.9485L10.1259 20.7933C10.2257 20.7239 10.3142 20.6414 10.3887 20.5483L10.5549 20.3932C10.6547 20.3237 10.7431 20.2411 10.8174 20.148C10.8729 20.0965 10.9283 20.0448 10.9836 19.9928C11.0835 19.9235 11.172 19.841 11.2463 19.7478L11.4126 19.5927C11.5125 19.5232 11.601 19.4406 11.6753 19.3475L11.8416 19.1925C11.9413 19.123 12.0298 19.0404 12.1043 18.9473L12.2703 18.7922C12.3702 18.7229 12.4587 18.6404 12.533 18.5472L12.6993 18.392C12.7991 18.3226 12.8876 18.24 12.962 18.1469L13.1283 17.9917C13.2281 17.9224 13.3166 17.8398 13.391 17.7467C13.4482 17.7182 13.4897 17.6912 13.4196 17.6319C13.3277 17.5555 13.2419 17.4716 13.1537 17.3915C13.1339 17.3577 13.1041 17.3299 13.0679 17.3114L12.7259 16.9924C12.7079 16.9721 12.689 16.9524 12.6718 16.9313C12.6117 16.8581 12.5696 16.853 12.5035 16.9382C12.4326 17.0298 12.3318 17.1022 12.246 17.1829L12.0929 17.3394C11.9988 17.4103 11.9131 17.4902 11.837 17.5779C11.7646 17.618 11.7168 17.6813 11.6639 17.7395C11.5698 17.8104 11.4842 17.8905 11.4083 17.9783L11.2409 18.1212L10.9793 18.3784C10.9135 18.4237 10.8556 18.4782 10.8076 18.54C10.7134 18.6108 10.6277 18.6909 10.5518 18.7788C10.4862 18.8238 10.4283 18.8778 10.3801 18.9391C10.2862 19.0102 10.2004 19.0902 10.1242 19.1779C10.058 19.2226 9.99963 19.2767 9.95109 19.3381C9.85713 19.409 9.77146 19.4889 9.69553 19.5766C9.6294 19.6215 9.57101 19.6755 9.52239 19.7369L9.48061 19.7353L9.26998 19.5387C9.20576 19.4529 9.12687 19.3776 9.03646 19.3157L8.86189 19.153C8.79547 19.0685 8.71465 18.9948 8.62264 18.9348L8.4123 18.7385C8.21197 18.4839 8.21197 18.4839 7.97559 18.6928C7.96623 18.7023 7.95762 18.7124 7.94983 18.723C7.88382 18.785 7.81752 18.8473 7.75093 18.91L7.52199 19.1236L7.32166 19.3106C7.29705 19.3197 7.28618 19.3296 7.31336 19.3453Z" fill="#4298E5"/>
<path d="M25.5563 9.26576L25.637 9.34135C25.9083 9.61806 26.0028 9.94286 25.9976 10.3168C25.9853 11.2263 25.9976 12.1363 25.9976 13.046C25.9976 13.9736 25.9919 14.9013 25.9919 15.8289C25.9919 16.7608 25.9962 17.6927 25.9979 18.6249C25.9979 18.9222 26.0002 19.2197 25.9979 19.517C25.9955 19.7352 25.9299 19.9486 25.8082 20.1348C25.6459 20.3612 25.4091 20.5322 25.1336 20.622L24.7044 20.6786C24.5624 20.6626 24.419 20.6616 24.2768 20.6757H23.8475C23.7047 20.6636 23.5611 20.6636 23.4183 20.6757L22.989 20.6789C22.8473 20.6628 22.704 20.6617 22.562 20.6757H22.1327C21.9899 20.6636 21.8463 20.6636 21.7035 20.6757L21.2742 20.6789C21.1317 20.6626 20.9877 20.6616 20.8449 20.6757H20.4157C20.2729 20.6636 20.1292 20.6636 19.9864 20.6757L19.5571 20.6789C19.4152 20.6628 19.2717 20.6619 19.1296 20.676H18.7003C18.5575 20.6639 18.4138 20.6639 18.271 20.676L17.8418 20.6792C17.6998 20.6631 17.5564 20.6621 17.4142 20.6762H16.9849C16.8421 20.6642 16.6985 20.6642 16.5557 20.6762L16.1264 20.6794L16.0168 20.6736C16.0148 20.3146 16.0168 19.9556 16.0079 19.5969C16.0056 19.5026 16.0566 19.4967 16.1284 19.4967H24.7064C24.7977 19.4908 24.7553 19.4251 24.7564 19.3867C24.7584 19.3122 24.7378 19.2366 24.7433 19.1623C24.775 18.7248 24.7556 18.2862 24.7504 17.849C24.7459 17.447 24.7536 17.0442 24.7504 16.6422C24.7484 16.2451 24.7504 15.8463 24.7504 15.4488C24.7504 15.0647 24.779 14.6799 24.745 14.2952C24.7304 14.1286 24.7542 13.9592 24.7587 13.791C24.761 13.713 24.7301 13.6643 24.6342 13.6684C24.516 13.6737 24.3973 13.675 24.2788 13.678C24.2144 13.6542 24.1469 13.6651 24.0808 13.6651C18.9677 13.6651 13.8546 13.6651 8.7415 13.6651C8.69857 13.6651 8.65565 13.6625 8.61301 13.6651C8.54032 13.6702 8.51056 13.6443 8.51141 13.5738C8.51141 13.4937 8.52658 13.4135 8.49854 13.3355C8.51513 13.204 8.51513 13.071 8.49854 12.9394C8.52171 12.8055 8.52171 12.669 8.49854 12.5351C8.51513 12.4035 8.51513 12.2705 8.49854 12.1389C8.52171 12.005 8.52171 11.8685 8.49854 11.7346C8.51513 11.603 8.51513 11.47 8.49854 11.3384C8.52143 11.2041 8.52143 11.0671 8.49854 10.9327C8.51499 10.8016 8.51499 10.6691 8.49854 10.538C8.52143 10.4036 8.52143 10.2666 8.49854 10.1322L8.50826 10.0817C8.51055 10.0641 8.51284 10.0465 8.51542 10.0283L8.59068 9.73719C8.72928 9.45686 8.96678 9.22943 9.26349 9.09295C9.47684 9.03268 9.69882 9.00323 9.92171 9.00561C10.8715 9.01095 11.8214 9.00988 12.7715 9.00961C14.3461 9.00961 15.9207 9.00837 17.4955 9.00587C19.5848 9.00587 21.6739 9.0073 23.7628 9.01015C24.207 9.01148 24.6537 8.96848 25.0956 9.04914C25.2615 9.09936 25.4098 9.18109 25.5563 9.26576ZM9.76202 10.5329V10.9381C9.75863 10.9552 9.75625 10.9725 9.75487 10.9899C9.74428 11.3398 9.74428 11.3398 10.1223 11.3342H24.2768C24.405 11.3342 24.5344 11.3318 24.6617 11.3371C24.7327 11.3401 24.7521 11.3139 24.7519 11.2524C24.7519 11.0121 24.7645 10.7733 24.7519 10.5347C24.745 10.4151 24.828 10.2452 24.7015 10.1851C24.5899 10.1317 24.4236 10.179 24.2814 10.1816C24.1368 10.1604 23.9895 10.1604 23.845 10.1816C23.7044 10.1663 23.5625 10.1663 23.422 10.1816C23.2779 10.1603 23.1311 10.1603 22.987 10.1816C22.847 10.1664 22.7057 10.1664 22.5657 10.1816C22.4211 10.1604 22.2739 10.1604 22.1293 10.1816C21.9888 10.1663 21.8468 10.1663 21.7063 10.1816C21.5622 10.1603 21.4154 10.1603 21.2713 10.1816C21.1308 10.1663 20.9889 10.1663 20.8484 10.1816C20.7044 10.1603 20.5577 10.1603 20.4137 10.1816C20.2731 10.1663 20.1312 10.1663 19.9907 10.1816C19.8466 10.1603 19.6998 10.1603 19.5557 10.1816C19.4152 10.1663 19.2732 10.1663 19.1327 10.1816C18.9887 10.1603 18.842 10.1603 18.698 10.1816C18.5575 10.1663 18.4155 10.1663 18.275 10.1816C18.1315 10.16 17.9852 10.16 17.8418 10.1816C17.7008 10.1662 17.5583 10.1662 17.4173 10.1816C17.2733 10.1603 17.1264 10.1603 16.9824 10.1816C16.8418 10.1663 16.6999 10.1663 16.5594 10.1816C16.4153 10.1603 16.2685 10.1603 16.1244 10.1816C15.984 10.1663 15.8421 10.1663 15.7017 10.1816C15.5576 10.1603 15.4108 10.1603 15.2667 10.1816C15.1262 10.1663 14.9842 10.1663 14.8437 10.1816C14.6997 10.1603 14.553 10.1603 14.409 10.1816C14.2685 10.1663 14.1266 10.1663 13.986 10.1816C13.8419 10.1603 13.6951 10.1603 13.551 10.1816C13.4105 10.1663 13.2686 10.1663 13.1281 10.1816C12.9841 10.1603 12.8374 10.1603 12.6934 10.1816C12.5529 10.1663 12.4109 10.1663 12.2704 10.1816C12.1263 10.1603 11.9795 10.1603 11.8354 10.1816C11.6954 10.1664 11.5539 10.1664 11.4139 10.1816C11.2694 10.1603 11.1222 10.1603 10.9777 10.1816C10.8372 10.1663 10.6953 10.1663 10.5547 10.1816C10.4112 10.16 10.265 10.16 10.1215 10.1816C9.74771 10.1405 9.74514 10.1424 9.75573 10.4808C9.75683 10.4982 9.75893 10.5156 9.76202 10.5329Z" fill="#4298E5"/>
<path d="M18.7012 14.8799C19.0643 14.8241 19.4224 14.8291 19.7732 14.948C19.9689 15.0157 20.1508 15.1139 20.3112 15.2383C20.3513 15.2691 20.3828 15.3035 20.4228 15.2423C20.6786 15.0672 20.9673 14.9385 21.2739 14.8628L21.387 14.8529L21.4442 14.8465L21.7001 14.8372L22.16 14.9066C22.8182 15.1085 23.2412 15.5247 23.4478 16.1379C23.4682 16.2718 23.4884 16.4054 23.5084 16.5386L23.4701 16.9384C23.388 17.2322 23.2578 17.5049 23.0443 17.7397L22.9827 17.8097C22.7338 18.0212 22.455 18.1858 22.1308 18.2782L21.816 18.3316L21.7318 18.3367L21.678 18.3458L21.2739 18.3078C21.1266 18.2825 20.9906 18.2232 20.849 18.1804C20.836 18.1674 20.8204 18.157 20.803 18.1497C20.7857 18.1424 20.767 18.1384 20.7479 18.138L20.4183 17.9243C20.3874 17.8778 20.361 17.9032 20.327 17.9243C20.2208 17.9951 20.1129 18.0637 20.0059 18.1334C20.0023 18.1338 19.999 18.135 19.9961 18.137C19.9932 18.1389 19.991 18.1416 19.9896 18.1446L19.5583 18.2942L19.3007 18.3305C19.0998 18.3384 18.8986 18.3284 18.6998 18.3006L18.2739 18.1537C18.2536 18.1406 18.2333 18.127 18.2132 18.1142C18.0799 18.0458 17.9628 17.9566 17.8432 17.8703L17.697 17.7173C17.5859 17.6008 17.5078 17.4638 17.4214 17.3321C17.3777 17.2016 17.334 17.0709 17.2903 16.94C17.2762 16.8054 17.2623 16.6709 17.2485 16.5364L17.2586 16.4312C17.2608 16.4136 17.2634 16.3962 17.2657 16.3778L17.3124 16.1401C17.411 15.8458 17.5763 15.5747 17.7969 15.3452L17.8492 15.2963C18.1068 15.1096 18.3855 14.9616 18.7012 14.8799Z" fill="#4298E5"/>
</g>
</g>
<defs>
<filter id="filter0_b_530_1075" x="-30" y="-30" width="92" height="92" filterUnits="userSpaceOnUse" color-interpolation-filters="sRGB">
<feFlood flood-opacity="0" result="BackgroundImageFix"/>
<feGaussianBlur in="BackgroundImageFix" stdDeviation="15"/>
<feComposite in2="SourceAlpha" operator="in" result="effect1_backgroundBlur_530_1075"/>
<feBlend mode="normal" in="SourceGraphic" in2="effect1_backgroundBlur_530_1075" result="shape"/>
</filter>
<clipPath id="clip0_530_1075">
<rect width="20" height="14" fill="white" transform="translate(6 9)"/>
</clipPath>
</defs>
</svg>
