<svg width="32" height="32" viewBox="0 0 32 32" fill="none" xmlns="http://www.w3.org/2000/svg">
<g filter="url(#filter0_b_530_1040)">
<rect width="32" height="32" rx="16" fill="white"/>
<path d="M15.583 23.2663C13.2166 23.2663 10.8501 23.2663 8.4899 23.2663C8.30882 23.2663 8.12775 23.2413 7.94667 23.2163C7.81555 23.1976 7.67818 23.1726 7.5533 23.1351C7.42218 23.0977 7.29106 23.0665 7.15993 23.0227C6.94764 22.9541 6.74783 22.8542 6.54802 22.7605C6.29827 22.6419 6.07973 22.4858 5.86119 22.3297C5.65514 22.1798 5.46782 22.005 5.28674 21.8239C5.16187 21.6928 5.04323 21.5554 4.93708 21.4056C4.8122 21.2432 4.69981 21.0746 4.59991 20.8936C4.51249 20.7375 4.43132 20.5751 4.35639 20.4065C4.29395 20.2629 4.244 20.1193 4.2003 19.9757C4.15659 19.8383 4.12537 19.701 4.09415 19.5573C4.05668 19.4012 4.0442 19.2389 4.01922 19.0766C4.00673 18.9891 4.00673 18.9017 4.00049 18.8143C4.00049 18.7331 4.00049 18.6457 4.00049 18.5646C4.00049 18.396 4.01922 18.2336 4.03795 18.065C4.05044 17.9339 4.07542 17.8028 4.10039 17.6717C4.11912 17.5843 4.13786 17.5031 4.16283 17.4157C4.19405 17.2908 4.23776 17.1721 4.28147 17.0535C4.31269 16.9599 4.35015 16.8662 4.39386 16.7788C4.44381 16.6726 4.49376 16.5665 4.54996 16.4603C4.64362 16.2918 4.74352 16.1294 4.85591 15.9671C4.99952 15.761 5.16187 15.5612 5.34294 15.3801C5.47406 15.249 5.61143 15.1241 5.76129 15.0055C5.9486 14.8619 6.12968 14.7183 6.33573 14.6121C6.56676 14.4872 6.80403 14.3624 7.05379 14.275C7.14745 14.2437 7.23486 14.2063 7.32852 14.175C7.4534 14.1376 7.57203 14.1126 7.69691 14.0814C7.81555 14.0502 7.94043 14.0314 8.05906 14.0189C8.19019 14.0065 8.31507 13.9815 8.44619 13.9877C8.47117 13.9877 8.49614 13.9877 8.52112 13.9877C8.55858 13.9815 8.57731 13.969 8.5898 13.9315C8.61478 13.8254 8.65224 13.7192 8.6897 13.6131C8.76463 13.4008 8.85205 13.1885 8.94571 12.9762C9.03312 12.7889 9.12678 12.6078 9.22668 12.4267C9.38903 12.1333 9.57635 11.8523 9.7824 11.59C9.9385 11.384 10.1071 11.1904 10.2882 11.0031C10.5254 10.7534 10.7814 10.5223 11.0499 10.31C11.3184 10.0915 11.6056 9.89793 11.9053 9.7231C12.1551 9.57325 12.4173 9.44213 12.6858 9.32973C12.8856 9.24856 13.0855 9.17364 13.2915 9.09871C13.4226 9.055 13.56 9.02378 13.6911 8.98007C13.7723 8.9551 13.8597 8.93636 13.9471 8.91763C14.0595 8.89266 14.1657 8.85519 14.278 8.84895C14.3155 8.84895 14.3467 8.82397 14.3842 8.82397C14.559 8.81149 14.7339 8.76778 14.9087 8.76153C15.0273 8.76153 15.146 8.74905 15.2584 8.73031C15.2771 8.73031 15.2896 8.73031 15.3083 8.73031C15.4706 8.73031 15.633 8.72407 15.7953 8.73031C15.9327 8.73656 16.0701 8.73031 16.2012 8.76153C16.2137 8.76153 16.2262 8.76778 16.2387 8.76778C16.3698 8.76778 16.4947 8.79275 16.6195 8.80524C16.7507 8.81773 16.8818 8.84895 17.0129 8.86768C17.1003 8.88017 17.1877 8.8989 17.2752 8.93012C17.3376 8.9551 17.4063 8.96134 17.4687 8.97383C17.6498 9.01754 17.8246 9.07998 17.9994 9.13617C18.0994 9.16739 18.1993 9.2111 18.2992 9.24856C18.5302 9.33598 18.7487 9.43588 18.9673 9.54827C19.1608 9.65442 19.3544 9.76057 19.548 9.88545C19.7353 10.0041 19.9163 10.1352 20.0912 10.2726C20.2785 10.4162 20.4596 10.5723 20.6282 10.7409C20.7905 10.9032 20.9528 11.0656 21.1027 11.2341C21.2026 11.3528 21.3025 11.4714 21.3962 11.5963C21.5148 11.7461 21.6209 11.9022 21.7271 12.0646C21.8083 12.1895 21.8832 12.3206 21.9581 12.4517C21.9644 12.458 21.9644 12.4642 21.9706 12.4704C22.0206 12.5641 22.0206 12.5641 22.1267 12.5391C22.1517 12.5329 22.1704 12.5391 22.1954 12.5391C22.3515 12.5391 22.5138 12.5142 22.6699 12.5204C22.8135 12.5329 22.9572 12.5329 23.1008 12.5454C23.2881 12.5579 23.4754 12.5891 23.6627 12.6265C23.7938 12.6515 23.9187 12.6765 24.0436 12.7264C24.0998 12.7452 24.1622 12.7577 24.2247 12.7764C24.3558 12.8201 24.4807 12.8701 24.6118 12.92C24.7866 12.9887 24.949 13.0699 25.1176 13.1573C25.2862 13.2447 25.4485 13.3446 25.6108 13.4507C25.9792 13.7068 26.3227 13.994 26.6224 14.3249C26.8534 14.5871 27.0657 14.8681 27.2405 15.1678C27.3342 15.3302 27.4216 15.4925 27.4965 15.6611C27.6276 15.9358 27.7275 16.2168 27.8087 16.5103C27.8587 16.6914 27.8961 16.8787 27.9273 17.066C27.9586 17.2408 27.9711 17.4157 27.9898 17.5905C28.0085 17.7404 27.996 17.8964 27.996 18.0525C27.996 18.2399 27.9711 18.4272 27.9461 18.6145C27.9273 18.7768 27.8961 18.9454 27.8524 19.1078C27.8025 19.2889 27.7525 19.4762 27.6901 19.6572C27.5652 20.0132 27.4029 20.3503 27.2093 20.675C27.1031 20.8498 26.9908 21.0122 26.8659 21.1745C26.6723 21.4243 26.4663 21.6491 26.229 21.8614C26.0417 22.03 25.8419 22.1923 25.6358 22.3359C25.5297 22.4046 25.4173 22.467 25.3111 22.5357C25.1738 22.6231 25.0302 22.6918 24.8865 22.7667C24.8179 22.8042 24.7492 22.8354 24.6805 22.8604C24.5369 22.9166 24.3933 22.9728 24.2497 23.0165C24.0311 23.0852 23.8063 23.1414 23.5816 23.1851C23.4379 23.2101 23.2881 23.235 23.1382 23.2475C23.0196 23.26 22.8947 23.2725 22.7761 23.2725C20.3597 23.2663 17.9745 23.2663 15.583 23.2663ZM15.5955 22.5544C17.962 22.5544 20.3347 22.5544 22.7012 22.5544C22.8385 22.5544 22.9696 22.542 23.107 22.5232C23.2256 22.5107 23.3443 22.4858 23.4567 22.4733C23.5816 22.4545 23.7002 22.4233 23.8188 22.3921C23.9437 22.3609 24.0686 22.3172 24.1872 22.2672C24.2746 22.236 24.362 22.2048 24.4495 22.1673C24.6305 22.0799 24.8116 21.9925 24.9864 21.8863C25.2549 21.724 25.4984 21.5429 25.7295 21.3306C25.9543 21.1246 26.1541 20.8936 26.3414 20.65C26.5537 20.3691 26.7223 20.0631 26.8659 19.7447C26.972 19.5136 27.0532 19.2764 27.1156 19.0266C27.1469 18.9017 27.1781 18.7706 27.1968 18.6457C27.2155 18.5084 27.2405 18.371 27.2405 18.2274C27.2468 17.9964 27.2468 17.7653 27.2405 17.5343C27.2405 17.4656 27.2343 17.3969 27.2218 17.3282C27.1906 17.1347 27.1656 16.9349 27.1094 16.7476C27.0719 16.6227 27.0407 16.4978 26.997 16.3729C26.9158 16.1481 26.8159 15.9296 26.7035 15.7173C26.4912 15.3114 26.2165 14.9431 25.8918 14.6246C25.6171 14.3561 25.3236 14.1126 24.9864 13.9128C24.7367 13.7692 24.4807 13.6318 24.2122 13.5319C23.9062 13.4195 23.5878 13.3384 23.2569 13.2884C23.0633 13.2572 22.8697 13.2447 22.6699 13.2385C22.5575 13.2322 22.4452 13.2447 22.3328 13.2447C22.1642 13.2509 22.0018 13.2697 21.8395 13.2822C21.7021 13.2946 21.5835 13.2572 21.5086 13.1323C21.4336 13.0074 21.3649 12.8825 21.29 12.7577C21.1964 12.6016 21.1027 12.4455 21.0028 12.2956C20.8155 12.0209 20.6094 11.7649 20.3784 11.5214C20.1162 11.2404 19.8289 10.9844 19.5292 10.7471C19.2358 10.5161 18.9173 10.3288 18.5864 10.1602C18.3928 10.0603 18.1868 9.96662 17.9807 9.88545C17.7559 9.79803 17.5249 9.71686 17.2876 9.65442C17.2252 9.64193 17.1628 9.62944 17.1066 9.61071C16.938 9.56076 16.7631 9.54203 16.5946 9.50457C16.4572 9.47959 16.3198 9.47335 16.1887 9.46086C15.9639 9.43588 15.7391 9.42964 15.5144 9.42964C15.3458 9.42964 15.1772 9.43588 15.0148 9.45461C14.8837 9.4671 14.7526 9.47959 14.6277 9.49208C14.4779 9.51081 14.3342 9.54203 14.1906 9.567C14.097 9.58574 13.9971 9.61071 13.9034 9.63569C13.7161 9.68564 13.535 9.74808 13.3539 9.81052C13.2228 9.85423 13.0979 9.90418 12.9731 9.96037C12.767 10.054 12.5672 10.1539 12.3674 10.2601C12.1176 10.3912 11.8866 10.5473 11.6618 10.7096C11.4246 10.8845 11.206 11.0718 10.9937 11.2716C10.7065 11.5463 10.4443 11.8461 10.2132 12.1645C9.9822 12.4892 9.77615 12.8388 9.60757 13.201C9.51391 13.407 9.42649 13.6131 9.35156 13.8254C9.33283 13.8753 9.32034 13.9315 9.30161 13.9815C9.27039 14.0564 9.25166 14.1376 9.23293 14.2125C9.2142 14.2812 9.18298 14.3499 9.17673 14.4248C9.17673 14.4435 9.16425 14.4623 9.15176 14.481C9.06434 14.6121 8.95195 14.6871 8.78961 14.6746C8.53985 14.6621 8.29633 14.6871 8.05282 14.7308C7.78433 14.7807 7.51584 14.8494 7.25984 14.9493C6.9851 15.0492 6.72286 15.1866 6.47934 15.3489C6.32949 15.4488 6.19212 15.555 6.05475 15.6674C5.79251 15.8984 5.56148 16.1544 5.36792 16.4416C5.18684 16.7163 5.04323 17.0036 4.93084 17.3095C4.86216 17.5031 4.80596 17.7029 4.77474 17.9027C4.74352 18.0713 4.72479 18.2461 4.71854 18.4209C4.70606 18.7956 4.73728 19.1702 4.82469 19.5386C4.88713 19.8009 4.98079 20.0569 5.10567 20.3004C5.26177 20.6126 5.44284 20.906 5.68011 21.1683C5.86119 21.3681 6.04226 21.5554 6.2608 21.7178C6.37944 21.8052 6.49183 21.8926 6.62295 21.9675C6.82276 22.0861 7.03505 22.1861 7.24735 22.2735C7.42842 22.3484 7.62199 22.3983 7.81555 22.4483C7.9217 22.4733 8.02784 22.4858 8.14024 22.5045C8.29009 22.5295 8.44619 22.542 8.59604 22.542C9.0581 22.542 9.52015 22.542 9.9822 22.542C11.8429 22.5544 13.7161 22.5544 15.5955 22.5544Z" fill="#FE8E05"/>
<path d="M15.5956 22.5545C13.7162 22.5545 11.843 22.5545 9.96357 22.5545C9.50151 22.5545 9.03946 22.5545 8.57741 22.5545C8.42131 22.5545 8.27145 22.542 8.1216 22.517C8.01545 22.4983 7.90306 22.4858 7.79691 22.4608C7.60335 22.4171 7.41603 22.3609 7.22871 22.286C7.01017 22.1986 6.80412 22.0986 6.60431 21.98C6.47944 21.9051 6.3608 21.8177 6.24216 21.7303C6.02987 21.5679 5.84255 21.3806 5.66148 21.1808C5.42421 20.9248 5.24313 20.6251 5.08703 20.3129C4.9684 20.0694 4.87474 19.8196 4.80605 19.5511C4.71864 19.1827 4.68742 18.8143 4.69991 18.4334C4.70615 18.2586 4.72488 18.0838 4.7561 17.9152C4.79357 17.7154 4.84352 17.5156 4.9122 17.322C5.02459 17.0161 5.1682 16.7226 5.34928 16.4541C5.54284 16.1606 5.77387 15.9046 6.03611 15.6799C6.17348 15.5612 6.31085 15.4551 6.4607 15.3614C6.70422 15.1991 6.96646 15.0679 7.2412 14.9618C7.4972 14.8681 7.76569 14.7932 8.03418 14.7433C8.2777 14.6996 8.52121 14.6808 8.77097 14.6871C8.93331 14.6933 9.0457 14.6184 9.13312 14.4935C9.14561 14.4748 9.15809 14.456 9.15809 14.4373C9.16434 14.3624 9.19556 14.2937 9.21429 14.225C9.23302 14.1501 9.25175 14.0689 9.28297 13.994C9.30795 13.944 9.31419 13.8878 9.33293 13.8379C9.40785 13.6256 9.49527 13.4133 9.58893 13.2135C9.75752 12.8513 9.96357 12.5017 10.1946 12.177C10.4256 11.8523 10.6879 11.5588 10.9751 11.2841C11.1874 11.0781 11.4059 10.8907 11.6432 10.7222C11.868 10.5536 12.099 10.4037 12.3488 10.2726C12.5486 10.1664 12.7484 10.0665 12.9544 9.97288C13.0793 9.91668 13.2104 9.86673 13.3353 9.82302C13.5164 9.76058 13.7037 9.69814 13.8848 9.64819C13.9784 9.62321 14.0721 9.59824 14.172 9.57951C14.3156 9.54829 14.4655 9.52331 14.6091 9.50458C14.7402 9.48585 14.8651 9.4796 14.9962 9.46711C15.1648 9.44838 15.3334 9.44214 15.4957 9.44214C15.7205 9.44214 15.9453 9.44838 16.1701 9.47336C16.3074 9.49209 16.4448 9.49209 16.5759 9.51707C16.7445 9.54829 16.9193 9.57326 17.0879 9.62321C17.1504 9.64195 17.2128 9.65443 17.269 9.66692C17.5063 9.72936 17.7373 9.81053 17.9621 9.89795C18.1681 9.97912 18.3679 10.0665 18.5677 10.1727C18.8987 10.3475 19.2171 10.5348 19.5106 10.7596C19.8165 10.9969 20.0975 11.2529 20.3598 11.5339C20.5845 11.7774 20.7968 12.0271 20.9842 12.3081C21.0841 12.458 21.1777 12.6141 21.2714 12.7702C21.3463 12.895 21.4087 13.0199 21.4899 13.1448C21.5648 13.2697 21.6772 13.3072 21.8208 13.2947C21.9832 13.2822 22.1518 13.2572 22.3141 13.2572C22.4265 13.2572 22.5389 13.2447 22.6513 13.251C22.8449 13.2572 23.0447 13.2697 23.2382 13.3009C23.5629 13.3509 23.8814 13.432 24.1936 13.5444C24.462 13.6443 24.718 13.7754 24.9678 13.9253C25.305 14.1189 25.5984 14.3624 25.8732 14.6371C26.2041 14.9618 26.4726 15.324 26.6849 15.7298C26.7973 15.9421 26.8972 16.1606 26.9784 16.3854C27.0221 16.5103 27.0533 16.6352 27.0908 16.7601C27.1407 16.9536 27.1657 17.1472 27.2031 17.3408C27.2156 17.4094 27.2156 17.4781 27.2219 17.5468C27.2344 17.7778 27.2281 18.0089 27.2219 18.2399C27.2156 18.3772 27.1969 18.5209 27.1782 18.6582C27.1594 18.7894 27.1282 18.9142 27.097 19.0391C27.0408 19.2889 26.9534 19.5261 26.8472 19.7572C26.7036 20.0756 26.535 20.3816 26.3227 20.6625C26.1354 20.9061 25.9356 21.1371 25.7108 21.3431C25.4798 21.5554 25.2363 21.7365 24.9678 21.8988C24.793 22.005 24.6119 22.0924 24.4308 22.1798C24.3497 22.2173 24.256 22.2485 24.1686 22.2797C24.0437 22.3234 23.9251 22.3671 23.8002 22.4046C23.6815 22.4358 23.5629 22.467 23.438 22.4858C23.3194 22.5045 23.207 22.5232 23.0884 22.5357C22.951 22.5482 22.8199 22.5669 22.6825 22.5669C20.3348 22.5545 17.9621 22.5545 15.5956 22.5545ZM16.1513 15.0929C16.1701 15.1054 16.1701 15.1179 16.1763 15.1241C16.2013 15.224 16.2263 15.324 16.245 15.4239C16.4011 16.0857 16.5634 16.7476 16.7195 17.4032C16.7508 17.5281 16.7945 17.5655 16.9256 17.5655C17.0255 17.5655 17.1254 17.5655 17.2253 17.5655C17.3564 17.5655 17.4001 17.5281 17.4376 17.4094C17.4376 17.4032 17.4438 17.3969 17.4438 17.3907C17.5625 17.0036 17.6811 16.6165 17.806 16.2293C17.9683 15.7048 18.1369 15.1741 18.2993 14.6496C18.3117 14.5997 18.3305 14.5497 18.3367 14.4997C18.3555 14.4061 18.3242 14.3686 18.2306 14.3686C18.1307 14.3686 18.0308 14.3686 17.9309 14.3686C17.9059 14.3686 17.8809 14.3749 17.8559 14.3749C17.806 14.3811 17.7685 14.4123 17.7435 14.4623C17.7248 14.4997 17.7123 14.5372 17.7061 14.5809C17.5437 15.2178 17.3814 15.8547 17.219 16.4853C17.1816 16.6352 17.1441 16.785 17.1004 16.9411C17.0817 16.9224 17.0817 16.9037 17.0754 16.8787C17.0317 16.6914 16.988 16.4978 16.9381 16.3105C16.8257 15.8235 16.7133 15.3427 16.6009 14.8557C16.5759 14.7495 16.5509 14.6434 16.526 14.5372C16.4948 14.4123 16.451 14.3749 16.3199 14.3686C16.22 14.3686 16.1264 14.3686 16.0265 14.3686C16.0015 14.3686 15.9827 14.3749 15.9578 14.3749C15.9016 14.3811 15.8641 14.4123 15.8454 14.4685C15.8266 14.5185 15.8142 14.5684 15.8017 14.6184C15.6393 15.3115 15.477 16.0108 15.3146 16.7039C15.2959 16.7725 15.2834 16.835 15.2647 16.9162C15.2397 16.8849 15.2397 16.86 15.2335 16.835C15.0524 16.1107 14.8651 15.3801 14.684 14.6558C14.6715 14.5934 14.659 14.531 14.6278 14.4748C14.6028 14.4186 14.5654 14.3874 14.5029 14.3811C14.478 14.3811 14.4592 14.3749 14.4342 14.3749C14.3343 14.3749 14.2282 14.3749 14.1283 14.3749C14.1158 14.3749 14.1033 14.3749 14.0908 14.3749C14.0346 14.3811 14.0159 14.4061 14.0159 14.4623C14.0159 14.506 14.0284 14.5435 14.0409 14.5872C14.147 14.9368 14.2532 15.2927 14.3593 15.6424C14.4904 16.0857 14.6278 16.5228 14.7589 16.9661C14.8026 17.1222 14.8526 17.2721 14.8963 17.4282C14.9213 17.5156 14.9775 17.5718 15.0711 17.5718C15.1898 17.5718 15.3146 17.5718 15.4333 17.5718C15.5269 17.5718 15.5769 17.5218 15.6019 17.4344C15.6081 17.4219 15.6081 17.4094 15.6081 17.4032C15.7143 16.9599 15.8204 16.5103 15.9265 16.067C16.0015 15.7361 16.0764 15.4114 16.1513 15.0929ZM15.989 20.75C16.0826 20.75 16.1701 20.75 16.2637 20.75C16.5822 20.7437 16.9006 20.7125 17.219 20.6625C17.831 20.5626 18.4241 20.4065 18.9986 20.1755C19.4794 19.9819 19.9352 19.7384 20.3598 19.4325C20.3847 19.4137 20.4097 19.395 20.4284 19.3638C20.4597 19.3138 20.4722 19.2639 20.4472 19.2139C20.4222 19.1577 20.3785 19.1265 20.3161 19.1265C20.2723 19.1203 20.2349 19.1328 20.1912 19.1515C19.4856 19.4512 18.7488 19.6697 17.9933 19.8071C17.4626 19.907 16.9256 19.9632 16.3886 19.9819C16.0639 19.9944 15.7455 19.9819 15.427 19.9632C14.99 19.932 14.5529 19.8758 14.122 19.7946C13.354 19.651 12.611 19.42 11.8929 19.114C11.5246 18.9579 11.1687 18.7769 10.819 18.5771C10.7878 18.5583 10.7565 18.5396 10.7128 18.5396C10.6442 18.5396 10.6067 18.602 10.6317 18.6645C10.6442 18.6957 10.6691 18.7144 10.6879 18.7332C10.7878 18.8206 10.8877 18.908 10.9876 18.9954C11.6994 19.5761 12.4924 20.0194 13.3603 20.3191C14.2157 20.6126 15.0899 20.7562 15.989 20.75ZM13.0731 15.786C13.0481 15.7798 13.0356 15.7798 13.0294 15.7798C12.7796 15.7236 12.5298 15.6799 12.2676 15.6799C12.0303 15.6799 11.8055 15.7173 11.5932 15.8297C11.3622 15.9546 11.1936 16.1357 11.1187 16.3917C11.075 16.5478 11.0625 16.7101 11.0875 16.8662C11.1312 17.1659 11.2748 17.3907 11.5433 17.5343C11.6744 17.603 11.818 17.6342 11.9679 17.6405C12.33 17.6592 12.661 17.5655 12.9357 17.322C12.9981 17.2721 13.0481 17.2096 13.1043 17.1534C13.1293 17.1659 13.1293 17.1847 13.1355 17.1971C13.1605 17.2471 13.1855 17.2908 13.2104 17.3408C13.2479 17.4094 13.2916 17.4719 13.3478 17.5218C13.3915 17.5655 13.4477 17.5968 13.5101 17.5593C13.61 17.5031 13.7037 17.4407 13.7911 17.3657C13.8411 17.322 13.8473 17.2721 13.8161 17.2159C13.8098 17.1971 13.7974 17.1847 13.7911 17.1659C13.7349 17.0473 13.6725 16.9286 13.6662 16.7913C13.66 16.6914 13.6475 16.5915 13.6475 16.4916C13.6475 16.1419 13.6475 15.7922 13.6475 15.4426C13.6475 15.2927 13.6288 15.1429 13.5913 14.9993C13.5039 14.6746 13.3041 14.456 12.9856 14.3499C12.8233 14.2999 12.661 14.275 12.4924 14.2687C12.2051 14.2562 11.9242 14.2999 11.6557 14.3936C11.5558 14.4248 11.4621 14.4623 11.3747 14.5185C11.3372 14.5372 11.2998 14.5622 11.2935 14.6059C11.2748 14.712 11.2748 14.8182 11.2873 14.9243C11.2935 14.968 11.3185 14.9868 11.3685 14.9805C11.4059 14.9743 11.4371 14.968 11.4684 14.9493C11.5995 14.8931 11.7369 14.8494 11.8805 14.8119C12.1115 14.7495 12.3488 14.737 12.586 14.7745C12.8545 14.8244 12.9856 14.9493 13.0418 15.2178C13.0855 15.4176 13.0668 15.5987 13.0731 15.786ZM19.6729 17.6654C19.9664 17.6717 20.2661 17.5968 20.4846 17.4719C20.8405 17.2658 21.0216 16.8787 20.9467 16.4791C20.8967 16.2231 20.7469 16.042 20.5221 15.9171C20.3847 15.8422 20.2349 15.7985 20.085 15.7485C19.9164 15.6923 19.7479 15.6486 19.5855 15.5862C19.4981 15.555 19.4169 15.5113 19.3482 15.4551C19.1609 15.2927 19.1921 14.9805 19.4107 14.8557C19.4731 14.8182 19.5356 14.7995 19.6105 14.787C19.9414 14.7308 20.2599 14.7682 20.5658 14.9056C20.5908 14.9181 20.622 14.9306 20.647 14.9368C20.7282 14.9618 20.7719 14.9306 20.7781 14.8432C20.7781 14.7807 20.7781 14.7245 20.7781 14.6621C20.7781 14.5872 20.7469 14.531 20.6844 14.4873C20.6283 14.4498 20.5658 14.4186 20.5034 14.3998C20.2286 14.3062 19.9414 14.2625 19.648 14.2875C19.3982 14.3062 19.1672 14.3874 18.9674 14.5372C18.4991 14.9056 18.5428 15.53 18.9237 15.8672C19.061 15.9858 19.2234 16.0607 19.3919 16.1107C19.573 16.1669 19.7541 16.2231 19.9289 16.2793C20.0226 16.3105 20.1162 16.348 20.2037 16.4042C20.2661 16.4479 20.3161 16.5041 20.341 16.5852C20.3972 16.7601 20.3473 16.9599 20.1537 17.0723C20.0538 17.1285 19.9539 17.1534 19.8415 17.1659C19.4919 17.2034 19.1609 17.1472 18.8362 17.0098C18.7988 16.9973 18.7613 16.9786 18.7238 16.9661C18.6364 16.9411 18.5927 16.9724 18.5927 17.066C18.5927 17.1097 18.599 17.1534 18.5927 17.1909C18.574 17.3408 18.6489 17.4282 18.78 17.4844C18.805 17.4968 18.8237 17.5031 18.8487 17.5156C19.1172 17.6092 19.3919 17.6592 19.6729 17.6654ZM20.2973 18.7456C20.3847 18.7456 20.4722 18.7394 20.5658 18.7456C20.6407 18.7519 20.7157 18.7644 20.7906 18.7956C20.853 18.8206 20.8905 18.8643 20.903 18.9267C20.9092 18.9579 20.9092 18.9892 20.9092 19.0141C20.9092 19.1203 20.8843 19.2202 20.8593 19.3201C20.7906 19.6011 20.6844 19.8758 20.5783 20.1443C20.5658 20.1693 20.5533 20.2005 20.5471 20.2317C20.5346 20.2879 20.5658 20.3191 20.622 20.3129C20.6595 20.3066 20.6844 20.2879 20.7157 20.2629C20.8343 20.163 20.928 20.0506 21.0091 19.9195C21.2152 19.6011 21.3401 19.2514 21.3963 18.8768C21.415 18.7644 21.4212 18.652 21.4025 18.5333C21.39 18.4772 21.365 18.4334 21.3088 18.4085C21.2402 18.3772 21.1715 18.3585 21.0965 18.346C20.7594 18.2836 20.4284 18.2961 20.0975 18.3648C19.879 18.4147 19.6729 18.4896 19.4856 18.6145C19.4544 18.6333 19.4294 18.652 19.4107 18.6832C19.3732 18.7456 19.3982 18.7894 19.4669 18.7894C19.5043 18.7894 19.5356 18.7831 19.573 18.7831C19.8103 18.7706 20.0538 18.7456 20.2973 18.7456Z" fill="white"/>
<path d="M16.151 15.093C16.076 15.4177 15.9949 15.7361 15.9199 16.0608C15.8138 16.5041 15.7076 16.9537 15.6015 17.397C15.6015 17.4095 15.5952 17.422 15.5952 17.4282C15.5703 17.5156 15.5203 17.5656 15.4267 17.5656C15.308 17.5656 15.1831 17.5656 15.0645 17.5656C14.9708 17.5656 14.9147 17.5094 14.8897 17.422C14.846 17.2659 14.796 17.116 14.7523 16.9599C14.6212 16.5166 14.4838 16.0795 14.3527 15.6362C14.2465 15.2865 14.1404 14.9306 14.0343 14.581C14.0218 14.5435 14.0093 14.4998 14.0093 14.4561C14.0093 14.3999 14.0343 14.3749 14.0842 14.3687C14.0967 14.3687 14.1092 14.3687 14.1217 14.3687C14.2216 14.3687 14.3277 14.3687 14.4276 14.3687C14.4526 14.3687 14.4713 14.3749 14.4963 14.3749C14.5587 14.3812 14.5962 14.4124 14.6212 14.4686C14.6462 14.5248 14.6587 14.5872 14.6774 14.6496C14.8585 15.3739 15.0458 16.1045 15.2268 16.8288C15.2331 16.8538 15.2331 16.885 15.2581 16.91C15.2768 16.835 15.2955 16.7664 15.308 16.6977C15.4704 16.0046 15.6327 15.3053 15.7951 14.6122C15.8075 14.5622 15.82 14.5123 15.8388 14.4623C15.8575 14.4124 15.895 14.3812 15.9511 14.3687C15.9761 14.3624 15.9949 14.3624 16.0198 14.3624C16.1197 14.3624 16.2134 14.3624 16.3133 14.3624C16.4444 14.3687 16.4881 14.4061 16.5194 14.531C16.5443 14.6372 16.5693 14.7433 16.5943 14.8495C16.7067 15.3365 16.8191 15.8173 16.9315 16.3043C16.9752 16.4916 17.0189 16.6852 17.0688 16.8725C17.0751 16.8912 17.0751 16.9162 17.0938 16.9349C17.1313 16.7851 17.175 16.6352 17.2124 16.4791C17.3748 15.8422 17.5371 15.2054 17.6995 14.5747C17.7119 14.531 17.7244 14.4935 17.7369 14.4561C17.7557 14.4061 17.7931 14.3812 17.8493 14.3687C17.8743 14.3624 17.8993 14.3624 17.9242 14.3624C18.0241 14.3624 18.124 14.3624 18.224 14.3624C18.3176 14.3624 18.3488 14.3999 18.3301 14.4935C18.3239 14.5435 18.3051 14.5935 18.2926 14.6434C18.1303 15.1679 17.968 15.6986 17.7994 16.2231C17.6807 16.6103 17.5621 16.9974 17.4372 17.3845C17.4372 17.3907 17.431 17.397 17.431 17.4032C17.3873 17.5281 17.3436 17.5593 17.2187 17.5593C17.1188 17.5593 17.0189 17.5593 16.919 17.5593C16.7878 17.5593 16.7441 17.5219 16.7129 17.397C16.5568 16.7351 16.3945 16.0733 16.2384 15.4177C16.2134 15.3178 16.1884 15.2178 16.1697 15.1179C16.1759 15.1117 16.1697 15.0992 16.151 15.093Z" fill="black"/>
<path d="M15.9892 20.7501C15.0901 20.7501 14.2159 20.6127 13.3667 20.313C12.4988 20.007 11.7059 19.5699 10.994 18.9893C10.8879 18.9081 10.788 18.8207 10.6943 18.727C10.6694 18.7083 10.6506 18.6833 10.6381 18.6583C10.6132 18.5959 10.6506 18.5334 10.7193 18.5334C10.7568 18.5334 10.788 18.5522 10.8255 18.5709C11.1751 18.7707 11.531 18.9518 11.8994 19.1079C12.6175 19.4138 13.3605 19.6386 14.1285 19.7885C14.5593 19.8697 14.9902 19.9259 15.4335 19.9571C15.7519 19.9758 16.0766 19.9883 16.3951 19.9758C16.932 19.9571 17.469 19.9009 17.9998 19.801C18.7553 19.6636 19.4921 19.4451 20.1976 19.1454C20.2351 19.1266 20.2788 19.1204 20.3225 19.1204C20.385 19.1266 20.4287 19.1578 20.4536 19.2078C20.4786 19.264 20.4661 19.3139 20.4349 19.3576C20.4162 19.3826 20.3912 19.4014 20.3662 19.4263C19.9479 19.7323 19.4921 19.9758 19.005 20.1694C18.4306 20.4004 17.8374 20.5627 17.2255 20.6564C16.9071 20.7063 16.5949 20.7376 16.2702 20.7438C16.1703 20.7501 16.0766 20.7501 15.9892 20.7501Z" fill="#FE8E05"/>
<path d="M13.0731 15.7859C13.0669 15.5986 13.0856 15.4175 13.0481 15.2427C12.9919 14.9742 12.8608 14.8493 12.5923 14.7994C12.3551 14.7556 12.1178 14.7744 11.8868 14.8368C11.7494 14.8743 11.612 14.918 11.4747 14.9742C11.4434 14.9867 11.4122 14.9992 11.3748 15.0054C11.3248 15.0117 11.2998 14.9929 11.2936 14.9492C11.2811 14.8431 11.2811 14.7369 11.2998 14.6308C11.3061 14.5871 11.3435 14.5621 11.381 14.5434C11.4684 14.4934 11.5683 14.4559 11.662 14.4185C11.9367 14.3248 12.2115 14.2811 12.4987 14.2936C12.6673 14.2998 12.8296 14.3186 12.9919 14.3748C13.3166 14.4809 13.5102 14.6995 13.5976 15.0241C13.6351 15.1677 13.6538 15.3176 13.6538 15.4675C13.6538 15.8171 13.6538 16.1668 13.6538 16.5164C13.6538 16.6163 13.6601 16.7163 13.6725 16.8162C13.685 16.9535 13.7412 17.0722 13.7974 17.1908C13.8037 17.2095 13.8162 17.222 13.8224 17.2407C13.8474 17.3032 13.8474 17.3531 13.7974 17.3906C13.71 17.4655 13.6101 17.528 13.5164 17.5842C13.454 17.6216 13.3978 17.5904 13.3541 17.5467C13.2979 17.4905 13.2542 17.4281 13.2167 17.3656C13.1918 17.3219 13.1668 17.272 13.1418 17.222C13.1356 17.2033 13.1293 17.1845 13.1106 17.1783C13.0544 17.2345 13.0044 17.2907 12.942 17.3469C12.661 17.5904 12.3363 17.6841 11.9742 17.6653C11.8243 17.6591 11.6807 17.6279 11.5496 17.5592C11.2811 17.4156 11.1312 17.1908 11.0938 16.8911C11.0688 16.7287 11.0813 16.5726 11.125 16.4165C11.1999 16.1605 11.3685 15.9795 11.5995 15.8546C11.8118 15.7422 12.0366 15.7047 12.2739 15.7047C12.5299 15.7047 12.7859 15.7422 13.0357 15.8046C13.0357 15.7797 13.0481 15.7797 13.0731 15.7859ZM13.0794 16.3666C13.0794 16.3229 13.0794 16.2854 13.0794 16.248C13.0794 16.1855 13.0794 16.1855 13.0169 16.173C12.8608 16.1356 12.7047 16.1168 12.5486 16.1106C12.4113 16.1043 12.2739 16.1043 12.1365 16.1356C11.9555 16.173 11.8118 16.2604 11.7369 16.4415C11.6932 16.5539 11.687 16.6663 11.7057 16.7849C11.7369 17.0097 11.8805 17.1658 12.1428 17.1845C12.3301 17.197 12.5112 17.1596 12.686 17.0784C12.8421 17.0035 12.9607 16.8848 13.0232 16.7225C13.0669 16.6039 13.0731 16.479 13.0794 16.3666Z" fill="black"/>
<path d="M19.6726 17.6654C19.3916 17.6654 19.1231 17.6092 18.8609 17.5156C18.8359 17.5093 18.8109 17.4968 18.7922 17.4844C18.6611 17.4282 18.5862 17.3407 18.6049 17.1909C18.6111 17.1472 18.6049 17.1097 18.6049 17.066C18.6111 16.9723 18.6486 16.9411 18.736 16.9661C18.7735 16.9786 18.8109 16.9911 18.8484 17.0098C19.1669 17.1472 19.504 17.1971 19.8537 17.1659C19.9661 17.1534 20.066 17.1284 20.1659 17.0723C20.3595 16.9599 20.4094 16.7663 20.3532 16.5852C20.3282 16.5103 20.2783 16.4541 20.2158 16.4041C20.1347 16.348 20.041 16.3105 19.9411 16.2793C19.76 16.2231 19.579 16.1669 19.4041 16.1107C19.2355 16.0545 19.0732 15.9858 18.9358 15.8672C18.5549 15.53 18.5112 14.9056 18.9795 14.5372C19.1793 14.3811 19.4104 14.3062 19.6601 14.2874C19.9536 14.2625 20.2346 14.3062 20.5156 14.3998C20.578 14.4186 20.6404 14.4498 20.6966 14.4873C20.7591 14.531 20.7903 14.5872 20.7903 14.6621C20.7903 14.7245 20.7903 14.7807 20.7903 14.8432C20.784 14.9306 20.7466 14.9618 20.6592 14.9368C20.6279 14.9306 20.603 14.9181 20.578 14.9056C20.272 14.7745 19.9536 14.7308 19.6227 14.787C19.554 14.7995 19.4853 14.8182 19.4229 14.8556C19.2043 14.9805 19.1731 15.2927 19.3604 15.4551C19.4291 15.5175 19.5103 15.555 19.5977 15.5862C19.76 15.6486 19.9286 15.6986 20.0972 15.7485C20.2471 15.7985 20.3969 15.8422 20.5343 15.9171C20.7591 16.042 20.9089 16.2231 20.9589 16.4791C21.0338 16.8787 20.8527 17.2658 20.4968 17.4719C20.2658 17.5967 19.9598 17.6654 19.6726 17.6654Z" fill="black"/>
<path d="M20.297 18.7456C20.0535 18.7394 19.81 18.7643 19.5665 18.7956C19.529 18.8018 19.4978 18.8018 19.4603 18.8018C19.3916 18.8018 19.3667 18.7519 19.4041 18.6957C19.4229 18.6644 19.4541 18.6457 19.479 18.627C19.6664 18.5021 19.8724 18.4272 20.091 18.3772C20.4219 18.3023 20.7528 18.2961 21.09 18.3585C21.1649 18.371 21.2336 18.3897 21.3023 18.4209C21.3522 18.4459 21.3835 18.4834 21.3959 18.5458C21.4209 18.6582 21.4084 18.7768 21.3897 18.8892C21.3335 19.2639 21.2086 19.6135 21.0026 19.932C20.9214 20.0568 20.8215 20.1755 20.7091 20.2754C20.6841 20.3004 20.6529 20.3191 20.6155 20.3253C20.5593 20.3316 20.528 20.3004 20.5405 20.2442C20.5468 20.2129 20.5593 20.188 20.5717 20.1568C20.6779 19.8883 20.784 19.6135 20.8527 19.3325C20.8777 19.2326 20.8964 19.1327 20.9027 19.0266C20.9027 18.9954 20.9027 18.9642 20.8964 18.9392C20.8839 18.8705 20.8465 18.833 20.784 18.8081C20.7154 18.7768 20.6342 18.7643 20.5593 18.7581C20.4718 18.7456 20.3844 18.7456 20.297 18.7456Z" fill="#FE8E05"/>
<path d="M13.0791 16.3666C13.0729 16.479 13.0666 16.6039 13.0229 16.7162C12.9605 16.8786 12.8356 16.991 12.6857 17.0722C12.5171 17.1596 12.3361 17.1908 12.1425 17.1783C11.8865 17.1596 11.7366 16.9972 11.7054 16.7787C11.6929 16.66 11.6929 16.5477 11.7366 16.4353C11.8116 16.2542 11.9552 16.173 12.1363 16.1293C12.2736 16.0981 12.411 16.0981 12.5484 16.1043C12.7045 16.1168 12.8606 16.1356 13.0167 16.1668C13.0791 16.1793 13.0791 16.1793 13.0791 16.2417C13.0791 16.2854 13.0791 16.3229 13.0791 16.3666Z" fill="white"/>
</g>
<defs>
<filter id="filter0_b_530_1040" x="-30" y="-30" width="92" height="92" filterUnits="userSpaceOnUse" color-interpolation-filters="sRGB">
<feFlood flood-opacity="0" result="BackgroundImageFix"/>
<feGaussianBlur in="BackgroundImageFix" stdDeviation="15"/>
<feComposite in2="SourceAlpha" operator="in" result="effect1_backgroundBlur_530_1040"/>
<feBlend mode="normal" in="SourceGraphic" in2="effect1_backgroundBlur_530_1040" result="shape"/>
</filter>
</defs>
</svg>
