<svg width="32" height="32" viewBox="0 0 32 32" fill="none" xmlns="http://www.w3.org/2000/svg">
<g filter="url(#filter0_b_530_1050)">
<rect width="32" height="32" rx="16" fill="white"/>
<path d="M24.6911 23.9956C24.621 23.9825 24.5462 23.9518 24.4761 23.9518C23.5039 23.9475 22.5317 23.9475 21.5596 23.9431C20.3817 23.9343 19.1992 23.9212 18.0214 23.9124C16.9324 23.8993 15.8434 23.8818 14.759 23.8774C13.4082 23.873 12.0622 23.8774 10.7114 23.8774C10.7114 23.8599 10.7114 23.8467 10.7114 23.8292C14.1701 23.4614 17.6288 23.0936 21.1389 22.7214C20.9987 22.5638 20.8912 22.4368 20.779 22.3142C19.1665 20.5627 17.5587 18.8112 15.9462 17.064C15.8013 16.9064 15.6611 16.7444 15.5068 16.5999C15.4227 16.5211 15.418 16.4598 15.4694 16.3634C15.9602 15.4483 16.4463 14.5287 16.9324 13.6136C17.4792 12.5802 18.0214 11.5468 18.5683 10.5134C18.5916 10.4652 18.6243 10.4171 18.6571 10.3558C19.0403 10.9819 19.4142 11.5949 19.7881 12.208C21.3025 14.6907 22.8168 17.1735 24.3312 19.6563C25.1912 21.0618 26.0559 22.4674 26.9159 23.873C26.9392 23.908 26.972 23.9343 27 23.965C26.9533 23.9781 26.9065 24 26.8645 24C26.14 24 25.4155 23.9956 24.6911 23.9956Z" fill="#035ADB"/>
<path d="M5 22.5244C5.17293 22.2485 5.3225 22.0033 5.47674 21.7581C6.78544 19.6913 8.09413 17.6245 9.40283 15.5621C9.73 15.0411 10.0478 14.5156 10.389 14.0033C10.5012 13.8325 10.6601 13.6749 10.8237 13.5435C12.7727 12.0066 14.7217 10.4784 16.6754 8.95019C17.0867 8.62616 17.5027 8.30651 17.9374 8C17.5822 8.60865 17.2316 9.21292 16.8764 9.82157C15.8014 11.6607 14.7217 13.4997 13.6467 15.3344C12.7213 16.9152 11.7959 18.4959 10.8704 20.081C10.5105 20.6941 10.1507 21.3071 9.79544 21.9289C9.73 22.0471 9.64587 22.104 9.51033 22.1172C8.79989 22.1828 8.08479 22.2441 7.37435 22.3098C6.67794 22.3755 5.98152 22.4499 5.28043 22.5156C5.20565 22.52 5.12152 22.52 5 22.5244Z" fill="#035ADB"/>
</g>
<defs>
<filter id="filter0_b_530_1050" x="-30" y="-30" width="92" height="92" filterUnits="userSpaceOnUse" color-interpolation-filters="sRGB">
<feFlood flood-opacity="0" result="BackgroundImageFix"/>
<feGaussianBlur in="BackgroundImageFix" stdDeviation="15"/>
<feComposite in2="SourceAlpha" operator="in" result="effect1_backgroundBlur_530_1050"/>
<feBlend mode="normal" in="SourceGraphic" in2="effect1_backgroundBlur_530_1050" result="shape"/>
</filter>
</defs>
</svg>
